<?xml version="1.0" encoding="utf-8"?>
<!-- Generator: Adobe Illustrator 19.2.1, SVG Export Plug-In . SVG Version: 6.00 Build 0)  -->
<svg version="1.1" xmlns="http://www.w3.org/2000/svg" xmlns:xlink="http://www.w3.org/1999/xlink" x="0px" y="0px"
	 viewBox="0 0 2033.2 800" style="enable-background:new 0 0 2033.2 800;" xml:space="preserve">
<style type="text/css">
	.st0{fill:#FAEFDE;}
	.st1{fill:#D8654C;}
	.st2{fill:#72B0CC;}
	.st3{fill:#A1C3AB;}
	.st4{fill:#FAAF61;}
	.st5{fill:#F69E4E;}
	.st6{fill:#5192A9;}
	.st7{fill:#CF6B49;}
	.st8{fill:#BD5538;}
	.st9{fill:#7FA492;}
	.st10{fill:#505B60;}
	.st11{fill:#FFD37A;}
	.st12{opacity:0.46;fill:#FFD37A;}
	.st13{fill:#434D50;}
	.st14{fill:#8898A2;}
	.st15{fill:#A9B7C0;}
	.st16{fill:#738086;}
	.st17{fill:#FBBF83;}
	.st18{fill:#EA9447;}
	.st19{fill:#FCC07E;}
	.st20{fill:#FDCE8B;}
	.st21{opacity:0.36;fill:#D4D6D7;}
	.st22{fill:#F3B861;}
	.st23{fill:#FFFFFF;}
	.st24{fill:#E2E3E4;}
	.st25{fill:#D67C61;}
	.st26{fill:#FFCF78;}
	.st27{fill:#E7B057;}
	.st28{fill:#FFDE8F;}
	.st29{fill:#80301A;}
	.st30{fill:#FDC26B;}
	.st31{fill:#EA9D40;}
	.st32{fill:#EB9039;}
	.st33{fill:#FDC880;}
	.st34{opacity:0.47;fill:#F1B670;}
	.st35{fill:#FDD199;}
	.st36{fill:#DA684B;}
	.st37{fill:#484035;}
	.st38{fill:#A8675A;}
	.st39{fill:#8C554A;}
	.st40{fill:#CACCCE;}
	.st41{fill:#AAACAF;}
	.st42{fill:#FCBF6E;}
</style>
<g id="Background">
</g>
<g id="Objects">
	<rect x="1985.2" y="583.7" class="st3" width="19" height="216.2"/>
	<rect x="1787.2" y="380.9" class="st3" width="19" height="125.8"/>
	<rect x="1854.5" y="336.5" class="st3" width="179" height="19"/>
	<rect x="1823.5" y="533.1" class="st3" width="144.4" height="19"/>
	<g>
		<g>
			<path class="st4" d="M1947.1,531.8h8.5c38.7,0,50.1,21.5,50.1,60.1v17.4h-22V592c0-26.5-1.6-38.1-28.1-38.1h-8.5V531.8z"/>
		</g>
		<rect x="1947.1" y="531.8" class="st5" width="7.7" height="22"/>
		<rect x="1983.7" y="600.8" class="st5" width="22" height="8.5"/>
		<g>
			<path class="st4" d="M1941.8,528v30.3c0,3,2.5,5.5,5.5,5.5s5.5-2.5,5.5-5.5V528c0-3-2.5-5.5-5.5-5.5S1941.8,525,1941.8,528z"/>
			<path class="st4" d="M1974.7,609.4c0,3,2.5,5.5,5.5,5.5h30.3c3,0,5.5-2.5,5.5-5.5c0-3-2.5-5.5-5.5-5.5h-30.3
				C1977.1,603.9,1974.7,606.3,1974.7,609.4z"/>
		</g>
	</g>
	<rect x="1953.5" y="0" class="st3" width="19" height="35.8"/>
	<rect x="1989.9" y="67.4" class="st3" width="43.6" height="19"/>
	<g>
		<g>
			<path class="st4" d="M2010.7,87.6h-8.5c-38.7,0-50.1-21.5-50.1-60.1V10.1h22v17.4c0,26.5,1.6,38.1,28.1,38.1h8.5V87.6z"/>
		</g>
		<rect x="2002.9" y="65.6" class="st5" width="7.7" height="22"/>
		<rect x="1952" y="10.1" class="st5" width="22" height="8.5"/>
		<g>
			<path class="st4" d="M2016,91.4V61.1c0-3-2.5-5.5-5.5-5.5s-5.5,2.5-5.5,5.5v30.3c0,3,2.5,5.5,5.5,5.5S2016,94.5,2016,91.4z"/>
			<path class="st4" d="M1983.1,10.1c0-3-2.5-5.5-5.5-5.5h-30.3c-3,0-5.5,2.5-5.5,5.5c0,3,2.5,5.5,5.5,5.5h30.3
				C1980.6,15.6,1983.1,13.2,1983.1,10.1z"/>
		</g>
	</g>
	<g>
		<g>
			<path class="st7" d="M1844.5,552.4h-8.5c-38.7,0-50.1-21.5-50.1-60.1v-17.4h22v17.4c0,26.5,1.6,38.1,28.1,38.1h8.5V552.4z"/>
		</g>
		<rect x="1836.8" y="530.4" class="st8" width="7.7" height="22"/>
		<rect x="1785.8" y="474.9" class="st8" width="22" height="8.5"/>
		<g>
			<path class="st7" d="M1849.8,556.2v-30.3c0-3-2.5-5.5-5.5-5.5c-3,0-5.5,2.5-5.5,5.5v30.3c0,3,2.5,5.5,5.5,5.5
				C1847.4,561.7,1849.8,559.3,1849.8,556.2z"/>
			<path class="st7" d="M1816.9,474.9c0,2.7-1.9,4.9-4.4,5.4c-0.4,0.1-0.7,0.1-1.1,0.1h-30.3c-3.1,0-5.5-2.5-5.5-5.5
				c0-3.1,2.5-5.5,5.5-5.5h30.3C1814.5,469.4,1816.9,471.8,1816.9,474.9z"/>
		</g>
	</g>
	<g>
		<g>
			<path class="st7" d="M1786.1,394v-8.5c0-38.7,21.5-50.1,60.1-50.1h17.4v22h-17.4c-26.5,0-38.1,1.6-38.1,28.1v8.5H1786.1z"/>
		</g>
		<rect x="1786.1" y="386.2" class="st8" width="22" height="7.7"/>
		<rect x="1855.2" y="335.3" class="st8" width="8.5" height="22"/>
		<g>
			<path class="st7" d="M1818.2,393.8c0,0.3,0,0.6-0.1,0.8c-0.4,2.7-2.7,4.7-5.4,4.7h-30.3c-3,0-5.5-2.5-5.5-5.5
				c0-3.1,2.5-5.5,5.5-5.5h30.3C1815.7,388.2,1818.2,390.7,1818.2,393.8z"/>
			<path class="st7" d="M1863.7,366.4c3,0,5.5-2.5,5.5-5.5v-30.3c0-3-2.5-5.5-5.5-5.5c-3,0-5.5,2.5-5.5,5.5v30.3
				C1858.2,363.9,1860.6,366.4,1863.7,366.4z"/>
		</g>
	</g>
	<path class="st4" d="M1838.6,76.4l9.3-1.7l0.3-9.9l-9.3-2.2c-0.4-3.7-1.1-7.3-2.2-10.7l7.6-5.5l-4.1-9.1l-9.4,2
		c-1.9-3.1-4.2-6-6.7-8.7l4.5-8.3l-7.6-6.4l-7.5,5.9c-2.3-1.5-4.8-2.8-7.3-3.9c-0.8-0.4-1.6-0.7-2.4-1l0.4-9.5l-9.6-2.5l-4.2,8.6
		c-1-0.1-2.1-0.2-3.1-0.3c-2.3-0.1-4.6-0.1-6.9,0l-3.6-8.8l-9.8,1.8l-0.2,9.6c-3.5,1.1-6.8,2.6-9.9,4.4l-7.1-6.3l-8,5.9l4,8.8
		c-2.6,2.5-5,5.3-7.1,8.3l-9.1-2.6l-4.6,8.8l7.4,6.1c-0.6,1.7-1.2,3.5-1.7,5.4c-0.4,1.7-0.8,3.5-1.1,5.2l-9.4,1.6l-0.4,9.9l9.3,2.3
		c0.4,3.7,1.1,7.2,2.1,10.7l-7.7,5.5l4,9.1l9.4-2c1.9,3.1,4.1,6,6.6,8.7l-4.5,8.3l7.6,6.4l7.6-5.8c3,2,6.3,3.6,9.7,5l-0.5,9.4
		l9.6,2.5l4.3-8.6c3.4,0.4,6.7,0.5,10,0.3c0.3,0,0.6,0,0.9,0l3.7,8.7l9.7-1.9l0.1-9.5c1.5-0.5,3-1.1,4.5-1.8
		c1.9-0.8,3.7-1.7,5.5-2.8l7.1,6.2l7.9-6l-4-8.6c2.6-2.6,4.9-5.4,7-8.4l9.1,2.5l4.6-8.8l-7.4-6.1c0.6-1.6,1.1-3.3,1.5-4.9
		C1838,80.2,1838.3,78.3,1838.6,76.4z M1775.2,27.6c3.9-0.8,8-1.1,12.1-0.8c2.4,0.2,4.8,0.6,7.1,1.2c4.3,1.1,8.3,2.8,11.9,5.1
		c1.8,1.1,3.6,2.4,5.2,3.8c2.4,2,4.5,4.3,6.3,6.8l-11.4,6.8l-7.4,4.4c-0.5-0.6-1.1-1.1-1.6-1.6c-2.3-2-5.1-3.5-8.2-4.3
		c-0.6-0.2-1.2-0.3-1.8-0.4c-2.5-0.4-5.1-0.3-7.5,0.2c-0.7,0.2-1.5,0.4-2.2,0.6l-11.2-18.8C1769.2,29.3,1772.1,28.3,1775.2,27.6z
		 M1746.2,86.1c-3.9-8.4-5.1-18.3-2.6-28c2.5-9.7,8.2-17.8,15.7-23.3l11.2,18.8c-2.8,2.5-4.9,5.9-5.9,9.8c-1,3.9-0.8,7.9,0.4,11.4
		L1746.2,86.1z M1787.2,110.1c-4.4,0.3-9,0-13.5-1.2c-9.7-2.5-17.8-8.2-23.3-15.7l18.8-11.2c2.5,2.8,5.9,4.9,9.8,5.9
		c2.8,0.7,5.5,0.8,8.2,0.4c1.1-0.2,2.2-0.5,3.3-0.8l11.2,18.8C1797.2,108.4,1792.3,109.7,1787.2,110.1z M1824.5,78.8
		c-2.5,9.7-8.2,17.8-15.7,23.3l-2.6-4.3l-8.6-14.5c2.8-2.5,4.9-5.9,5.9-9.8c1-3.9,0.8-7.9-0.4-11.4l3.2-1.9l15.7-9.3
		C1825.8,59.3,1827,69.1,1824.5,78.8z"/>
	<rect x="1787.2" y="0" class="st3" width="19" height="214"/>
	<rect x="1913" y="336.5" class="st9" width="28.7" height="19"/>
	<rect x="1913" y="533.1" class="st9" width="28.7" height="19"/>
	<rect x="1917.9" y="0" class="st3" width="19" height="799.3"/>
	<path class="st10" d="M2022.8,229.5l1.8-7.9l-7.1-3.3c0.1-1.4,0.2-2.8,0.2-4.2c0-1.6-0.1-3.2-0.3-4.7l7-3.2l-1.8-7.9l-7.8,0.1
		c-1.1-2.8-2.4-5.5-4-8.1l4.9-6l-5.1-6.4l-7,3.5c-2.2-2.1-4.5-3.9-7.1-5.5l1.9-7.5l-7.3-3.6l-4.8,6.2c-2.8-0.9-5.7-1.6-8.8-1.9
		l-1.6-7.6h-8.2l-1.6,7.7c-2.8,0.4-5.5,1-8,1.8l-4.7-6.2l-7,3.3l-0.4,0.2l0.1,0.4l1.7,7.3c-2.5,1.6-4.9,3.5-7,5.5l-4.1-2.1l-2.8-1.5
		l-5.2,6.3l4.9,6.2c-1.5,2.5-2.9,5.2-3.9,8l-7.8-0.2l-1.9,7.9l7.1,3.4c-0.2,1.5-0.2,3.1-0.2,4.6c0,1.5,0.1,2.9,0.2,4.3l-7.1,3.2
		l1.7,8l7.9,0c1,2.8,2.3,5.5,3.9,8.1l-5,5.9l5,6.4l3.2-1.5l3.9-1.9c2.1,2.1,4.5,4,7,5.6l-1.9,7.5l7.3,3.6l4.8-6.2
		c2.8,0.9,5.7,1.6,8.8,2l1.4,7l0.1,0.6l8.1,0.1l0.1-0.6l1.5-7c3-0.4,5.9-1.1,8.8-2l4.7,6.2l7.4-3.5l-1.8-7.6c2.5-1.6,4.9-3.5,7-5.6
		l6.9,3.5l5.1-6.3l-5-6.1c1.5-2.6,2.8-5.3,3.9-8.1L2022.8,229.5z M1957.1,183.3c4.6-2.3,9.8-3.6,15.3-3.6s10.7,1.3,15.3,3.6
		c2.3,1.1,4.4,2.5,6.4,4.1l-12.7,12.7c-0.5-0.3-1.1-0.7-1.6-0.9c-2.2-1.1-4.7-1.7-7.4-1.7s-5.2,0.6-7.4,1.7
		c-0.6,0.3-1.1,0.6-1.6,0.9l-12.7-12.7C1952.7,185.9,1954.8,184.5,1957.1,183.3z M1945.9,235.7c-4.8-5.9-7.8-13.5-7.8-21.7
		s2.9-15.8,7.8-21.7l12.7,12.7c-1.7,2.6-2.7,5.7-2.7,9s1,6.4,2.7,9L1945.9,235.7z M1972.4,248.3c-8.2,0-15.8-2.9-21.7-7.8l12.7-12.7
		c2.6,1.7,5.7,2.7,9,2.7s6.4-1,9-2.7l12.7,12.7C1988.2,245.4,1980.7,248.3,1972.4,248.3z M1999,235.7l-12.7-12.7
		c1.7-2.6,2.7-5.7,2.7-9s-1-6.4-2.7-9l12.7-12.7c4.9,5.9,7.8,13.5,7.8,21.7S2003.8,229.8,1999,235.7z"/>
	<path class="st7" d="M2033.5,123.4V112l-1.7,3.4c-1.9-0.2-3.8-0.3-5.7-0.1l-2-5l-5.5,1l-0.1,5.4c-2,0.6-3.8,1.5-5.6,2.5l-4-3.6
		l-4.5,3.3l2.3,5c-1.5,1.4-2.8,3-4,4.7l-5.2-1.5l-2.6,5l4.2,3.5c-0.4,1-0.7,2-0.9,3c-0.3,1-0.4,1.9-0.6,2.9l-5.3,0.9l-0.2,5.6
		l5.3,1.3c0.2,2.1,0.6,4.1,1.2,6l-4.4,3.1l2.3,5.1l5.3-1.1c1.1,1.8,2.3,3.4,3.7,4.9l-2.6,4.7l4.3,3.6l4.3-3.3
		c1.7,1.1,3.5,2.1,5.5,2.8l-0.3,5.3l5.4,1.4l2.4-4.8c2.1,0.3,4.2,0.3,6.2,0.2l2.1,4.9l0.8-0.2v-12.8c-3.5,0.8-7.3,0.8-11.1-0.1
		c-5.5-1.4-10.1-4.6-13.2-8.9l10.7-6.3c1.4,1.6,3.3,2.8,5.5,3.3c2.2,0.6,4.5,0.4,6.5-0.3l1.6,2.7v-23.5c-0.8-0.4-1.6-0.7-2.4-0.9
		c-1.8-0.4-3.5-0.5-5.2-0.1c-0.4,0.1-0.8,0.2-1.3,0.3l-6.3-10.7c1.6-0.7,3.3-1.3,5-1.7C2026.5,122.6,2030,122.6,2033.5,123.4z
		 M2020.6,138.1c-1.6,1.4-2.8,3.3-3.3,5.6c-0.6,2.2-0.4,4.4,0.3,6.5l-10.7,6.3c-2.2-4.8-2.9-10.3-1.5-15.8
		c1.4-5.5,4.6-10.1,8.9-13.2L2020.6,138.1z"/>
	<path class="st7" d="M1942.7,149.8l9.3-1.7l0.3-9.9l-9.3-2.2c-0.4-3.7-1.1-7.3-2.3-10.7l7.6-5.5l-4.1-9.1l-7.4,1.6l-2,0.4
		c-1.9-3.1-4.1-6-6.6-8.7l4.5-8.3l-7.6-6.4l-7.3,5.7l-0.3,0.2c-3-1.9-6.3-3.6-9.8-4.9l0.4-9.5l-9.6-2.5l-4.2,8.6
		c-3.4-0.4-6.8-0.5-10.1-0.2l-3.6-8.8l-9.8,1.8l-0.2,9.6c-3.5,1.2-6.8,2.6-9.9,4.4l-7.1-6.3l-8,5.9l4,8.8c-2.6,2.5-5,5.3-7,8.3
		l-9.1-2.6l-4.6,8.8l7.4,6.2c-0.6,1.7-1.2,3.5-1.7,5.4c-0.5,1.7-0.8,3.5-1.1,5.2l-9.4,1.6l-0.4,9.9l9.3,2.3
		c0.4,3.6,1.1,7.2,2.1,10.7l-7.7,5.5l4,9.1l9.4-2c1.9,3.1,4.1,6,6.6,8.7l-4.5,8.3l7.5,6.4l7.6-5.8c3,1.9,6.3,3.6,9.7,5l-0.5,9.4
		l9.6,2.5l4.3-8.6c3.7,0.5,7.3,0.6,10.9,0.3l3.7,8.7l9.8-1.9l0.1-9.6c3.5-1.2,6.8-2.7,10-4.5l2.1,1.9l4.9,4.3l8-5.9l-4-8.7
		c2.6-2.5,4.9-5.4,7-8.4l3.1,0.9l5.9,1.6l3.5-6.7l0.3-0.5l0.8-1.6l-7.4-6.1c0.6-1.6,1.1-3.3,1.5-4.9
		C1942,153.6,1942.4,151.7,1942.7,149.8z M1879.2,101c6.1-1.3,12.7-1.3,19.2,0.3c6.5,1.7,12.3,4.8,17,8.9c0.8,0.7,1.7,1.5,2.5,2.3
		c1.4,1.4,2.7,2.9,3.8,4.5l-3.8,2.3l-15,8.9c-0.5-0.6-1.1-1.1-1.6-1.6c-2.3-2-5.1-3.5-8.2-4.3c-3.1-0.8-6.3-0.8-9.2-0.2
		c-0.8,0.2-1.5,0.4-2.2,0.6l-11.2-18.8C1873.2,102.6,1876.2,101.6,1879.2,101z M1850.2,159.4c-3.9-8.4-5.1-18.3-2.6-28
		c2.5-9.7,8.2-17.8,15.7-23.3l11.2,18.8c-2.8,2.5-4.9,5.9-5.9,9.8s-0.8,7.9,0.4,11.4L1850.2,159.4z M1877.7,182.3
		c-9.7-2.5-17.8-8.2-23.3-15.7l18.9-11.2c2.5,2.8,5.9,4.9,9.8,5.9c3.9,1,7.9,0.8,11.4-0.4l11.2,18.8
		C1897.3,183.6,1887.5,184.8,1877.7,182.3z M1928.6,152.1c-1.9,7.4-5.7,13.8-10.7,18.9c-1.6,1.6-3.3,3.1-5,4.4l-11.2-18.8
		c2.8-2.6,4.9-5.9,5.9-9.8s0.8-7.9-0.5-11.4l10.8-6.4l8.1-4.8C1929.9,132.6,1931,142.4,1928.6,152.1z"/>
	<rect x="1917.9" y="262" class="st9" width="19" height="27"/>
	
		<rect x="1934.5" y="186" transform="matrix(6.123234e-017 -1 1 6.123234e-017 1668.527 2219.4509)" class="st3" width="19" height="179"/>
	
		<rect x="1851.5" y="401.6" transform="matrix(6.123234e-017 -1 1 6.123234e-017 1423.2205 2298.7573)" class="st3" width="19" height="72.3"/>
	<g>
		<g>
			<path class="st4" d="M1785.7,187.8v28.5c0,38.7,31.5,70.1,70.1,70.1h17.4v-22h-17.4c-26.5,0-48.1-21.6-48.1-48.1v-28.5H1785.7z"
				/>
		</g>
		<rect x="1785.7" y="187.8" class="st5" width="22" height="7.7"/>
		<rect x="1864.7" y="264.5" class="st5" width="8.5" height="22"/>
		<g>
			<path class="st4" d="M1781.9,182.5h30.3c3,0,5.5,2.5,5.5,5.5c0,3-2.5,5.5-5.5,5.5h-30.3c-3,0-5.5-2.5-5.5-5.5
				C1776.4,185,1778.9,182.5,1781.9,182.5z"/>
			<path class="st4" d="M1873.3,255.4c3,0,5.5,2.5,5.5,5.5v30.3c0,3-2.5,5.5-5.5,5.5s-5.5-2.5-5.5-5.5v-30.3
				C1867.7,257.9,1870.2,255.4,1873.3,255.4z"/>
		</g>
	</g>
	<g>
		<rect x="1916.3" y="383.5" class="st11" width="22" height="105.8"/>
		<rect x="1880" y="427.2" class="st11" width="58.3" height="22"/>
		<rect x="1916.3" y="482" class="st12" width="22" height="7.3"/>
		<path class="st11" d="M1913,493.7h28.6c2.7,0,4.9-2.2,4.9-4.9l0,0c0-2.7-2.2-4.9-4.9-4.9H1913c-2.7,0-4.9,2.2-4.9,4.9l0,0
			C1908.1,491.5,1910.3,493.7,1913,493.7z"/>
		<rect x="1879.9" y="427.2" class="st12" width="6.8" height="22"/>
		<path class="st11" d="M1879.9,457.4c2.7,0,4.9-2.2,4.9-4.9v-28.6c0-2.7-2.2-4.9-4.9-4.9s-4.9,2.2-4.9,4.9v28.6
			C1875.1,455.2,1877.3,457.4,1879.9,457.4z"/>
		<rect x="1916.3" y="383.5" class="st12" width="22" height="7.8"/>
		<path class="st11" d="M1913,388.3h28.6c2.7,0,4.9-2.2,4.9-4.9s-2.2-4.9-4.9-4.9H1913c-2.7,0-4.9,2.2-4.9,4.9
			S1910.3,388.3,1913,388.3z"/>
	</g>
	<path class="st12" d="M1938.3,436.6c-0.1-0.4-0.1-0.7-0.2-1v0c0,0,0,0,0,0c0,0,0,0,0,0c-0.3-1-0.7-1.9-1.2-2.8
		c0-0.1-0.1-0.1-0.1-0.2l1.5-1.5v-7.3l-3.8,3.8l-0.3,0.3l-1,1c-0.6-0.4-1.2-0.7-1.8-0.9h0c-0.4-0.2-0.9-0.3-1.4-0.4v-10.5
		c0-0.9,0-1.9-0.1-2.9c-0.1-2.5-0.3-5,0-7.4c0-0.4,0.1-0.7,0.1-1.1c0-0.3,3.9,0.8,6.9,1.6c0.5,0.2,1,0.3,1.4,0.4v-9.5
		c-0.5-0.1-0.9-0.3-1.4-0.4c-1.1-0.3-2.1-0.5-3.2-0.6c-2.1-0.3-4.2-0.5-6.3-0.5c-3.3,0-6.4,0.4-9.5,1.1c-0.6,0.1-1.1,0.3-1.6,0.4
		v9.3c0.5-0.2,1.1-0.4,1.6-0.5c2.3-0.6,4.6-1.1,6.9-1.4c0.1,0.5,0.1,1,0.1,1.5c0.4,5,0.1,10.1,0,15.2v0c0,0.9,0,1.8-0.1,2.7
		c0,0.2,0,0.4,0,0.6c0,0.5,0,1,0,1.5v0.4c-0.5,0.1-0.9,0.3-1.4,0.5c-0.6,0.2-1.2,0.5-1.8,0.9l-1-1l-0.3-0.3l-0.3-0.3l-0.2-0.2
		l-1.3-1.3l-0.6-0.6l-1.6-1.6v3.6h-3.6l3.4,3.4l0.2,0.2l1.1,1.1l0.2,0.2l0.4,0.4l0.1,0.1c0,0.1-0.1,0.1-0.1,0.2
		c-0.5,0.9-0.9,1.8-1.2,2.8c0,0,0,0,0,0c0,0,0,0,0,0v0c-0.2,0.9-0.3,1.8-0.3,2.7c0,0.1,0,0.2,0,0.3c0,0,0,0,0-0.1
		c0,1.3,0.3,2.6,0.7,3.7c0.2,0.6,0.5,1.1,0.8,1.6c0,0.1,0.1,0.1,0.1,0.2l-0.1,0.1l-0.3,0.3l-1.3,1.3l-0.2,0.2l-3.3,3.3h3.4v3.8
		c0.5-0.5,1.1-1.1,1.6-1.6l2.2-2.2l1.6-1.5c1,0.6,2,1.1,3.2,1.3v16.1c0,0.6,0.1,1.2,0.1,1.8c0,0.1,0,0.1,0,0.2c0,0,0,0,0,0
		c0,0.4,0,0.8,0,1.2c0,0.1,0,0.1,0,0.2c0,0.2,0,0.4-0.1,0.6c-0.1,0.5-0.3,0.9-0.6,1.1c-1,0.9-3,0.1-4.6-0.2
		c-0.6-0.1-1.1-0.3-1.7-0.4c-0.5-0.1-1.1-0.3-1.6-0.5v9.2c0.5,0.2,1.1,0.3,1.6,0.4c3.1,0.7,6.2,1.1,9.5,1.1c2.2,0,4.3-0.2,6.3-0.5
		c1.1-0.2,2.1-0.4,3.2-0.6c0.5-0.1,0.9-0.2,1.4-0.4v-9.3c-0.5,0.2-0.9,0.3-1.4,0.5c-2.3,0.7-4.6,1.1-6.9,1.3c0.1,0,0.1-1,0.1-2.6
		c0-0.4,0-0.8,0-1.2v0c0-5.6-0.1-15.8-0.1-17.9V449c1.1-0.3,2.2-0.7,3.2-1.3l1.5,1.5l0.4,0.4c0,0,0.7,0.7,1.8,1.8
		c0.4,0.4,0.9,0.9,1.4,1.4v-7.3l-1.1-1.1l-0.3-0.3l-0.1-0.1c0-0.1,0.1-0.1,0.1-0.2c0.3-0.5,0.6-1,0.8-1.6c0.3-0.8,0.5-1.6,0.6-2.4
		c0.1-0.4,0.1-0.9,0.1-1.3c0,0,0,0,0,0.1c0-0.1,0-0.2,0-0.3C1938.4,437.7,1938.4,437.2,1938.3,436.6z"/>
	<g>
		<polygon class="st10" points="1955.5,410.9 1952,407.4 1951.6,407.8 1946,413.4 1934.8,424.5 1929.9,429.5 1929.9,398.2 
			1924.9,398.2 1924.9,429.5 1902.8,407.4 1899.3,410.9 1899.7,411.3 1916.4,428.1 1923.9,435.5 1916.4,443 1899.7,459.7 
			1899.3,460.1 1902.8,463.6 1924.9,441.5 1924.9,472.8 1929.9,472.8 1929.9,441.5 1934.8,446.5 1951.6,463.2 1952,463.6 
			1955.5,460.1 1930.9,435.5 		"/>
		<path class="st13" d="M1951.6,407.8l-2.8,2.8l-0.8,0.8v0l-2,2c1.3,1.1,2.4,2.3,3.5,3.5l2.6-2.6l2.9-2.9
			C1954,410.1,1952.8,408.9,1951.6,407.8z M1927.4,398.8c-0.8,0-1.7,0-2.5,0.1v7.8c0.8-0.1,1.7-0.1,2.5-0.1c0.8,0,1.7,0,2.5,0.1
			v-7.8C1929.1,398.8,1928.2,398.8,1927.4,398.8z M1905.2,454.2l-2.5,2.5l-3,3c1.1,1.3,2.3,2.4,3.5,3.5l2.9-2.9l0.7-0.6l2-2
			C1907.5,456.6,1906.3,455.4,1905.2,454.2z M1952.1,456.7l-2.5-2.5c-1.1,1.3-2.2,2.5-3.5,3.5l2,2c0,0,0,0,0,0v0l3.6,3.6
			c1.3-1.1,2.4-2.3,3.5-3.5L1952.1,456.7z M1927.4,464.5c-0.8,0-1.7,0-2.5-0.1v7.8c0.8,0.1,1.7,0.1,2.5,0.1c0.8,0,1.7,0,2.5-0.1
			v-7.8C1929.1,464.4,1928.2,464.5,1927.4,464.5z M1903.2,407.8c-1.3,1.1-2.4,2.3-3.5,3.5l2.9,2.9c0,0,0,0,0,0l0.7,0.7l2,2
			c1.1-1.3,2.3-2.5,3.5-3.5L1903.2,407.8z"/>
		<path class="st14" d="M1967.7,434.8c0-0.3,0-0.5,0-0.7c0-0.1,0-0.1,0-0.2c0-0.3,0-0.5,0-0.8c-0.1-1.1-0.2-2.2-0.3-3.3
			c-0.1-0.5-0.1-0.9-0.2-1.4c-0.2-1-0.4-2-0.6-2.9c-0.1-0.3-0.2-0.6-0.3-1c-0.1-0.2-0.1-0.3-0.1-0.5c-0.1-0.2-0.1-0.4-0.2-0.6
			c-0.2-0.5-0.3-1-0.5-1.5c-0.2-0.5-0.4-0.9-0.5-1.4c-0.2-0.6-0.5-1.2-0.8-1.7c-0.1-0.3-0.3-0.6-0.4-1c-0.2-0.3-0.3-0.7-0.5-1
			c-0.1-0.3-0.3-0.5-0.4-0.8c-0.8-1.4-1.6-2.8-2.6-4c-0.2-0.2-0.3-0.4-0.5-0.6c-0.2-0.3-0.4-0.5-0.6-0.8c-0.2-0.3-0.5-0.6-0.7-0.8
			c-0.4-0.4-0.7-0.9-1.1-1.3c-0.4-0.5-0.9-0.9-1.3-1.4c-0.3-0.3-0.7-0.7-1-1c-0.1-0.1-0.2-0.2-0.4-0.3c-0.3-0.2-0.5-0.5-0.8-0.7
			c-0.4-0.3-0.8-0.7-1.2-1c-0.2-0.2-0.4-0.3-0.6-0.5s-0.4-0.3-0.6-0.5c-0.4-0.3-0.8-0.6-1.3-0.9c-0.5-0.3-0.9-0.6-1.4-0.9
			c-0.5-0.3-0.9-0.5-1.4-0.8c-0.2-0.1-0.4-0.3-0.7-0.4c-0.3-0.1-0.5-0.3-0.8-0.4c-0.4-0.2-0.8-0.4-1.2-0.6c-0.5-0.3-1.1-0.5-1.6-0.7
			c-1-0.4-2-0.8-3-1.1c-0.5-0.2-1-0.3-1.5-0.5c-0.1,0-0.2-0.1-0.3-0.1l-0.6-0.1c-0.2-0.1-0.4-0.1-0.6-0.1c0,0-0.1,0-0.1,0
			c-0.3-0.1-0.5-0.1-0.8-0.2c-0.5-0.1-1-0.2-1.5-0.3c-0.4-0.1-0.7-0.1-1.1-0.2c-0.4-0.1-0.8-0.1-1.2-0.2c-0.9-0.1-1.8-0.2-2.7-0.2
			c-0.3,0-0.6,0-0.9,0c-0.4,0-0.8,0-1.2,0c-0.4,0-0.8,0-1.2,0c-0.3,0-0.6,0-0.9,0c-0.9,0-1.8,0.1-2.7,0.2c-0.4,0-0.8,0.1-1.2,0.2
			c-0.4,0-0.7,0.1-1.1,0.2c-0.5,0.1-1,0.2-1.5,0.3c-0.3,0.1-0.6,0.1-0.8,0.2c0,0,0,0-0.1,0c-0.2,0-0.4,0.1-0.6,0.1
			c-0.2,0.1-0.5,0.1-0.7,0.2c-0.1,0-0.2,0.1-0.4,0.1c-0.4,0.1-0.8,0.2-1.2,0.4c-0.5,0.1-1,0.3-1.4,0.5c-0.4,0.2-0.9,0.3-1.3,0.5
			c-0.4,0.2-0.8,0.3-1.3,0.5c-0.4,0.2-0.8,0.4-1.2,0.6c-0.4,0.2-0.8,0.4-1.2,0.6c-0.4,0.2-0.8,0.4-1.2,0.6c-0.6,0.4-1.3,0.7-1.9,1.1
			c-0.3,0.2-0.6,0.4-0.9,0.6c-0.3,0.2-0.6,0.5-1,0.7c-0.3,0.2-0.5,0.4-0.8,0.6c-0.7,0.5-1.4,1.1-2.1,1.7c-0.3,0.3-0.7,0.6-1,0.9
			c-0.3,0.3-0.7,0.6-1,0.9c-0.3,0.3-0.6,0.6-0.9,1c-0.1,0.1-0.2,0.3-0.4,0.4c-0.5,0.5-1,1.1-1.4,1.6c-0.3,0.4-0.6,0.7-0.8,1.1
			c-0.3,0.4-0.5,0.7-0.8,1.1c-0.8,1.1-1.5,2.3-2.2,3.5c-0.2,0.3-0.3,0.6-0.5,0.8c-0.2,0.4-0.4,0.8-0.6,1.3c-0.2,0.4-0.4,0.8-0.5,1.2
			c-0.1,0.3-0.2,0.5-0.3,0.8c-0.1,0.3-0.3,0.6-0.4,0.9c-0.1,0.4-0.3,0.7-0.4,1.1c-0.2,0.4-0.3,0.9-0.5,1.3c-0.1,0.3-0.2,0.5-0.3,0.8
			c-0.3,1.1-0.6,2.2-0.9,3.4c-0.1,0.4-0.1,0.7-0.2,1.1c-0.1,0.6-0.2,1.2-0.3,1.8c0,0.3-0.1,0.6-0.1,1c-0.1,0.7-0.1,1.4-0.2,2.2
			c0,0.5,0,1-0.1,1.6c0,0.3,0,0.5,0,0.8c0,0.2,0,0.4,0,0.6c0,0.5,0,1,0,1.4c0,0.6,0.1,1.1,0.1,1.7c0,0.4,0.1,0.8,0.1,1.2
			c0,0.1,0,0.2,0,0.3c0,0.1,0,0.2,0.1,0.4c0,0.2,0.1,0.5,0.1,0.7c0,0,0,0,0,0.1c0.1,0.4,0.2,0.9,0.2,1.3c0.1,0.4,0.2,0.8,0.3,1.2
			c0,0.1,0.1,0.3,0.1,0.4c0.2,0.8,0.4,1.6,0.7,2.4c0,0.1,0.1,0.2,0.1,0.4c0.1,0.3,0.2,0.5,0.3,0.8c0.1,0.3,0.2,0.5,0.3,0.8
			c0.3,0.8,0.6,1.5,0.9,2.2c0.2,0.4,0.4,0.8,0.5,1.2c0.2,0.4,0.4,0.8,0.6,1.2c0.3,0.6,0.6,1.2,0.9,1.7c0.4,0.7,0.9,1.4,1.3,2.2
			c0.2,0.3,0.4,0.7,0.7,1c0,0,0.1,0.1,0.1,0.1c0.3,0.4,0.6,0.9,1,1.3c0.4,0.5,0.7,0.9,1.1,1.4c0.1,0.1,0.3,0.3,0.4,0.4
			c0.2,0.2,0.4,0.4,0.6,0.6c0.5,0.5,1,1.1,1.5,1.6c0.2,0.2,0.5,0.5,0.7,0.7c0.3,0.3,0.6,0.6,1,0.9c0.3,0.3,0.6,0.5,0.9,0.7
			c0.5,0.4,1,0.8,1.4,1.2c0.5,0.3,0.9,0.7,1.4,1c0.3,0.2,0.7,0.4,1,0.7c0.3,0.2,0.7,0.4,1,0.6c0.4,0.2,0.8,0.5,1.1,0.7
			c0.3,0.2,0.6,0.3,0.9,0.5c0.3,0.2,0.7,0.4,1.1,0.5c0.3,0.2,0.6,0.3,0.9,0.4c0.3,0.1,0.5,0.3,0.8,0.4c0.2,0.1,0.4,0.2,0.6,0.2
			c0.3,0.1,0.6,0.3,1,0.4c0.8,0.3,1.5,0.6,2.3,0.8c0.4,0.1,0.8,0.2,1.2,0.3c0.1,0,0.3,0.1,0.4,0.1c0.2,0.1,0.5,0.1,0.7,0.2
			c0.2,0,0.4,0.1,0.6,0.1c0,0,0.1,0,0.1,0c0.3,0.1,0.6,0.1,0.8,0.2c0.5,0.1,1,0.2,1.5,0.3c0.4,0.1,0.7,0.1,1.1,0.2
			c0.4,0.1,0.8,0.1,1.2,0.2c0.9,0.1,1.8,0.2,2.7,0.2c0.3,0,0.6,0,0.9,0c0.4,0,0.8,0,1.2,0c0.4,0,0.8,0,1.2,0c0.3,0,0.6,0,0.9,0
			c0.9,0,1.8-0.1,2.7-0.2c0.4-0.1,0.8-0.1,1.2-0.2c0.4-0.1,0.7-0.1,1.1-0.2c0.5-0.1,1-0.2,1.5-0.3c0.3-0.1,0.6-0.1,0.8-0.2
			c0,0,0.1,0,0.1,0c0.2,0,0.4-0.1,0.6-0.1l0.6-0.1c0.1,0,0.2-0.1,0.3-0.1c0.5-0.1,1-0.3,1.6-0.5c0,0,0.1,0,0.1,0
			c0.1,0,0.3-0.1,0.4-0.1c0.2-0.1,0.5-0.2,0.7-0.2c0.1,0,0.3-0.1,0.4-0.1c0.5-0.2,1-0.4,1.5-0.6c0.1,0,0.1-0.1,0.2-0.1
			c0.4-0.2,0.9-0.4,1.3-0.6c0.4-0.2,0.8-0.4,1.2-0.6c0.7-0.3,1.3-0.7,1.9-1c0.4-0.2,0.8-0.4,1.1-0.7c0.4-0.3,0.9-0.6,1.3-0.9
			c0.4-0.3,0.9-0.6,1.3-0.9c0.3-0.2,0.6-0.4,0.8-0.6c0.5-0.4,1.1-0.9,1.6-1.3c0.3-0.2,0.5-0.5,0.8-0.7c0.7-0.6,1.3-1.2,1.9-1.8
			c0.3-0.3,0.6-0.6,0.8-0.9c0.3-0.4,0.7-0.7,1-1.1c0.3-0.4,0.7-0.8,1-1.2c0.3-0.4,0.7-0.9,1-1.3c0.1-0.1,0.2-0.2,0.3-0.4
			c0.3-0.4,0.6-0.9,0.9-1.3c0.5-0.8,0.9-1.5,1.4-2.3c0.2-0.4,0.4-0.7,0.6-1.1c0-0.1,0.1-0.2,0.1-0.3c0.2-0.5,0.5-1,0.7-1.4
			c0,0,0,0,0,0c0.2-0.5,0.4-1,0.6-1.5c0.1-0.4,0.3-0.7,0.4-1.1c0.1-0.4,0.3-0.7,0.4-1.1c0-0.1,0-0.1,0-0.2c0.1-0.4,0.2-0.7,0.3-1.1
			c0.1-0.2,0.1-0.4,0.2-0.6c0.1-0.2,0.1-0.4,0.2-0.6c0.2-0.5,0.3-1.1,0.4-1.6c0.1-0.3,0.1-0.5,0.2-0.8c0.1-0.3,0.1-0.5,0.2-0.8
			c0.2-1.1,0.3-2.2,0.5-3.3c0.1-0.6,0.1-1.1,0.1-1.7c0-0.6,0.1-1.1,0.1-1.7c0-0.2,0-0.4,0-0.6C1967.7,435.3,1967.7,435,1967.7,434.8
			z M1959.1,435.5c0,0.2,0,0.4,0,0.6v0.2c0,0.5,0,0.9-0.1,1.4c0,0.3,0,0.5-0.1,0.8c0,0.5-0.1,1-0.2,1.5c0,0.2-0.1,0.4-0.1,0.6
			c0,0.2-0.1,0.4-0.1,0.5c0,0,0,0,0,0c-0.1,0.3-0.1,0.7-0.2,1c0,0,0,0.1,0,0.1c-0.1,0.3-0.1,0.5-0.2,0.7c-0.1,0.5-0.3,1-0.4,1.5
			c-0.1,0.4-0.2,0.8-0.4,1.1c-0.2,0.5-0.4,1-0.5,1.5c-0.2,0.6-0.5,1.2-0.8,1.8c-0.2,0.4-0.4,0.8-0.6,1.1c-0.6,1.2-1.3,2.4-2.1,3.5
			c-0.4,0.6-0.9,1.2-1.4,1.8c-0.2,0.3-0.4,0.5-0.6,0.8c-0.1,0.1-0.2,0.3-0.3,0.4c-0.2,0.2-0.4,0.5-0.6,0.7c-0.2,0.2-0.4,0.5-0.7,0.7
			c-0.2,0.1-0.3,0.3-0.5,0.5c-0.1,0.1-0.3,0.3-0.5,0.4c-0.3,0.3-0.6,0.5-0.8,0.8c0,0-0.1,0.1-0.1,0.1v0c0,0,0,0,0,0c0,0,0,0,0,0
			c-0.4,0.3-0.8,0.6-1.2,0.9c-0.3,0.2-0.6,0.5-0.9,0.7c-0.3,0.2-0.6,0.5-1,0.7c-0.3,0.2-0.7,0.4-1,0.6c-0.3,0.2-0.6,0.3-0.8,0.5
			c-0.1,0.1-0.2,0.1-0.3,0.2c-0.2,0.1-0.4,0.2-0.7,0.4c-0.2,0.1-0.4,0.2-0.7,0.3c-1,0.5-2,0.9-3.1,1.3c-0.5,0.2-0.9,0.3-1.4,0.5
			c-0.3,0.1-0.6,0.2-0.9,0.3c-0.9,0.3-1.8,0.5-2.7,0.6c-0.3,0.1-0.7,0.1-1.1,0.2c-0.5,0.1-1,0.1-1.6,0.2c-0.2,0-0.3,0-0.5,0.1
			c-0.1,0-0.1,0-0.2,0c0,0,0,0,0,0c-0.3,0-0.5,0-0.8,0s-0.5,0-0.8,0c-0.1,0-0.2,0-0.3,0c-0.2,0-0.4,0-0.6,0s-0.4,0-0.6,0
			c-0.1,0-0.2,0-0.3,0c-0.2,0-0.4,0-0.5,0c-0.2,0-0.5,0-0.7,0c-0.1,0-0.1,0-0.2,0h0c-0.2,0-0.5,0-0.7-0.1c-0.5,0-1.1-0.1-1.6-0.2
			c-0.4-0.1-0.7-0.1-1.1-0.2c-0.9-0.2-1.9-0.4-2.7-0.6c-0.3-0.1-0.6-0.2-0.9-0.3c-0.4-0.1-0.9-0.3-1.3-0.4c-0.1,0-0.2-0.1-0.3-0.1
			c-0.1,0-0.3-0.1-0.4-0.1c-0.4-0.2-0.8-0.3-1.2-0.5c-0.3-0.1-0.6-0.3-0.9-0.4c-0.1-0.1-0.3-0.1-0.4-0.2c-0.2-0.1-0.5-0.2-0.7-0.3
			c-0.2-0.1-0.4-0.2-0.7-0.4c-0.1-0.1-0.2-0.1-0.3-0.2c-0.3-0.2-0.6-0.3-0.8-0.5c-0.3-0.2-0.7-0.4-1-0.6c-0.3-0.2-0.7-0.4-1-0.7
			c-0.3-0.2-0.6-0.5-0.9-0.7c-0.4-0.3-0.8-0.6-1.2-0.9c0,0,0,0,0,0c0,0-0.1-0.1-0.1-0.1c-0.3-0.2-0.6-0.5-0.8-0.8
			c-0.1-0.1-0.3-0.3-0.5-0.4c-0.2-0.1-0.3-0.3-0.5-0.5c-0.2-0.2-0.4-0.5-0.7-0.7c-0.2-0.2-0.4-0.5-0.6-0.7c-0.1-0.1-0.2-0.3-0.3-0.4
			c-0.2-0.3-0.4-0.5-0.6-0.8c-0.5-0.6-0.9-1.2-1.3-1.8c-0.8-1.1-1.5-2.3-2.1-3.5c-0.1-0.3-0.3-0.6-0.4-0.9c-0.1-0.1-0.1-0.2-0.1-0.3
			c-0.3-0.6-0.5-1.2-0.8-1.8c-0.1-0.3-0.3-0.7-0.4-1c-0.1-0.3-0.2-0.7-0.3-1v0c-0.1-0.2-0.1-0.4-0.2-0.6c-0.1-0.5-0.3-1-0.4-1.5
			c-0.1-0.3-0.1-0.5-0.2-0.7c0,0,0,0,0-0.1c-0.1-0.3-0.1-0.7-0.2-1c0,0,0,0,0,0c0-0.2-0.1-0.3-0.1-0.5c0-0.2-0.1-0.4-0.1-0.6
			c-0.1-0.5-0.1-1-0.2-1.5c0-0.3,0-0.5-0.1-0.8c0-0.5-0.1-0.9-0.1-1.4v-0.2c0-0.2,0-0.4,0-0.6c0-0.3,0-0.5,0-0.8v-0.1
			c0-0.5,0-1,0.1-1.5v0c0-0.5,0.1-1,0.1-1.5c0-0.4,0.1-0.8,0.2-1.1c0-0.2,0.1-0.4,0.1-0.6c0-0.1,0-0.1,0-0.2
			c0.1-0.4,0.2-0.8,0.3-1.2c0-0.1,0-0.2,0.1-0.2c0.1-0.4,0.2-0.7,0.3-1.1c0-0.1,0-0.1,0.1-0.2c0.1-0.4,0.2-0.8,0.4-1.3
			c0-0.1,0.1-0.3,0.1-0.4c0.1-0.3,0.2-0.6,0.3-0.9c0-0.1,0-0.2,0.1-0.2c0.1-0.3,0.2-0.5,0.3-0.8c0.1-0.3,0.2-0.6,0.4-0.9
			c0.1-0.3,0.3-0.6,0.5-1c0,0,0,0,0,0c0.1-0.2,0.2-0.4,0.3-0.6c0.2-0.4,0.4-0.7,0.6-1c0,0,0,0,0,0c0.2-0.4,0.5-0.9,0.8-1.3
			c0.3-0.4,0.5-0.8,0.8-1.3c0.3-0.4,0.5-0.8,0.8-1.1c0-0.1,0.1-0.1,0.1-0.1c0.3-0.4,0.6-0.7,0.9-1.1c0,0,0.1-0.1,0.1-0.1
			c0.4-0.4,0.8-0.9,1.2-1.3c0.3-0.3,0.5-0.5,0.8-0.8c0.5-0.5,1.1-1,1.6-1.5c0.6-0.5,1.2-1,1.8-1.5c0.2-0.2,0.4-0.3,0.6-0.4
			c0.8-0.5,1.6-1,2.4-1.5c0.3-0.2,0.6-0.3,0.8-0.5c0.2-0.1,0.4-0.2,0.7-0.4c0.4-0.2,0.9-0.4,1.4-0.6c0.5-0.2,0.9-0.4,1.4-0.6
			c0.1,0,0.2-0.1,0.3-0.1c0.1,0,0.2-0.1,0.4-0.1c0.4-0.1,0.7-0.3,1.1-0.4c0,0,0.1,0,0.2-0.1c0.4-0.1,0.8-0.2,1.2-0.4
			c0.2-0.1,0.4-0.1,0.6-0.2c0.2,0,0.4-0.1,0.6-0.1c0.4-0.1,0.8-0.2,1.3-0.3c0.9-0.2,1.7-0.3,2.6-0.4c0.2,0,0.5,0,0.7-0.1
			c0,0,0,0,0,0c0.2,0,0.3,0,0.5,0c0.1,0,0.3,0,0.5,0c0.2,0,0.4,0,0.5,0c0.1,0,0.2,0,0.3,0c0.2,0,0.4,0,0.6,0s0.4,0,0.6,0
			c0.1,0,0.2,0,0.3,0c0.2,0,0.3,0,0.5,0c0.2,0,0.3,0,0.5,0c0.2,0,0.3,0,0.5,0c0,0,0,0,0,0c0.2,0,0.5,0,0.7,0.1
			c0.9,0.1,1.8,0.2,2.6,0.4c0.4,0.1,0.8,0.2,1.3,0.3c0.2,0.1,0.4,0.1,0.6,0.1c0.2,0.1,0.4,0.1,0.6,0.2c0.4,0.1,0.8,0.2,1.2,0.4
			c0.5,0.1,0.9,0.3,1.4,0.5c0.9,0.3,1.7,0.7,2.5,1.1c0.3,0.1,0.6,0.3,0.8,0.4c0.2,0.1,0.4,0.2,0.7,0.4c0.3,0.1,0.6,0.3,0.8,0.5
			c0.8,0.5,1.6,1,2.4,1.5c0.2,0.1,0.4,0.3,0.6,0.4c0.6,0.4,1.2,0.9,1.8,1.4c0,0,0,0,0.1,0.1v0c0.6,0.5,1.1,1,1.6,1.5
			c0.3,0.3,0.5,0.5,0.8,0.8c0.4,0.4,0.8,0.8,1.2,1.3c0,0,0.1,0.1,0.1,0.1c0.3,0.4,0.6,0.7,0.9,1.1c0,0,0.1,0.1,0.1,0.1
			c0.3,0.4,0.6,0.8,0.8,1.1c0.3,0.4,0.6,0.8,0.8,1.3c0.3,0.4,0.5,0.8,0.8,1.3c0,0,0,0,0,0c0.2,0.3,0.4,0.7,0.5,1
			c0.1,0.2,0.2,0.4,0.3,0.6c0,0,0,0,0,0c0.2,0.3,0.3,0.6,0.4,1c0.1,0.3,0.3,0.6,0.4,0.9c0.1,0.3,0.2,0.5,0.3,0.8
			c0,0.1,0.1,0.2,0.1,0.2c0.1,0.3,0.2,0.6,0.3,0.9c0.1,0.1,0.1,0.3,0.1,0.4c0.1,0.4,0.3,0.8,0.4,1.3c0.1,0.5,0.3,1,0.4,1.5
			c0.1,0.4,0.2,0.8,0.3,1.2l0,0.2c0,0.2,0.1,0.4,0.1,0.6c0.1,0.4,0.1,0.8,0.2,1.1c0.1,0.5,0.1,1,0.1,1.5v0c0,0.5,0.1,1,0.1,1.5v0.1
			C1959.1,435,1959.1,435.3,1959.1,435.5z"/>
		<g>
			<path class="st15" d="M1927.4,396.5c22,0,39.9,17.7,40.3,39.7c0-0.2,0-0.4,0-0.6c0-22.2-18-40.3-40.3-40.3s-40.3,18-40.3,40.3
				c0,0.2,0,0.4,0,0.6C1887.4,414.2,1905.4,396.5,1927.4,396.5z"/>
			<path class="st15" d="M1927.4,468.5c17.5,0,31.7-14.2,31.7-31.7c0-0.2,0-0.4,0-0.6c-0.3,17.2-14.4,31.1-31.7,31.1
				c-17.3,0-31.4-13.9-31.7-31.1c0,0.2,0,0.4,0,0.6C1895.7,454.3,1909.9,468.5,1927.4,468.5z"/>
		</g>
		<g>
			<path class="st16" d="M1927.4,402.3c-17.5,0-31.7,14.2-31.7,31.7c0,0.2,0,0.5,0,0.7c0.4-17.2,14.4-31,31.7-31
				c17.3,0,31.3,13.8,31.7,31c0-0.2,0-0.5,0-0.7C1959.1,416.5,1944.9,402.3,1927.4,402.3z"/>
			<path class="st16" d="M1927.4,474.3c-22,0-39.9-17.6-40.3-39.5c0,0.2,0,0.5,0,0.7c0,22.2,18,40.3,40.3,40.3s40.3-18,40.3-40.3
				c0-0.2,0-0.5,0-0.7C1967.3,456.7,1949.4,474.3,1927.4,474.3z"/>
		</g>
		<path class="st13" d="M1930.9,435.5l7.5,7.5c-0.9,1.4-2.1,2.6-3.5,3.5l-5-5v7c-0.8,0.2-1.6,0.2-2.5,0.2c-0.8,0-1.7-0.1-2.5-0.2v-7
			l-5,5c-1.4-0.9-2.6-2.1-3.5-3.5l7.5-7.5l-7.5-7.5c0.9-1.4,2.1-2.6,3.5-3.5l5,5v-7c0.8-0.2,1.6-0.2,2.5-0.2c0.8,0,1.7,0.1,2.5,0.2
			v7l5-5c1.4,0.9,2.6,2.1,3.5,3.5L1930.9,435.5z"/>
		<circle class="st4" cx="1927.4" cy="435.5" r="10.7"/>
		<path class="st17" d="M1927.4,425.4c5.8,0,10.5,4.6,10.7,10.4c0-0.1,0-0.2,0-0.3c0-5.9-4.8-10.7-10.7-10.7
			c-5.9,0-10.7,4.8-10.7,10.7c0,0.1,0,0.2,0,0.3C1916.9,430.1,1921.6,425.4,1927.4,425.4z"/>
		<ellipse class="st18" cx="1927.4" cy="437.3" rx="7.2" ry="7.9"/>
		<circle class="st19" cx="1927.4" cy="435.5" r="7.2"/>
		<path class="st20" d="M1927.4,428.9c3.9,0,7,3.1,7.1,6.9c0-0.1,0-0.2,0-0.2c0-4-3.2-7.2-7.2-7.2s-7.2,3.2-7.2,7.2
			c0,0.1,0,0.2,0,0.2C1920.4,431.9,1923.5,428.9,1927.4,428.9z"/>
	</g>
	<path class="st21" d="M1816.9,474.9c0,2.7-1.9,4.9-4.4,5.4c-1.6-0.3-3.1-0.7-4.7-1.2c-0.5-0.2-1.1-0.4-1.6-0.6
		c-2.6-1-5.1-2.2-7.5-3.6c-2.6-1.6-5-3.4-7.2-5.5c-1.5-1.4-3-3-4.3-4.7v-53.8c3.8-4.8,8.6-8.8,14.1-11.7c1.6-0.8,3.2-1.5,4.9-2.1
		c3.8-1.4,7.7-2.3,11.9-2.5c-0.4,2.7-2.7,4.7-5.4,4.7h-6.4v70.1h5.2C1814.5,469.4,1816.9,471.8,1816.9,474.9z"/>
	<g>
		<circle class="st22" cx="1821.2" cy="435.8" r="37.2"/>
		<g>
			<circle class="st23" cx="1821.2" cy="435.8" r="29.2"/>
			<path class="st24" d="M1821.2,407.8c15.9,0,28.9,12.8,29.2,28.6c0-0.2,0-0.4,0-0.6c0-16.1-13.1-29.2-29.2-29.2
				c-16.1,0-29.2,13.1-29.2,29.2c0,0.2,0,0.4,0,0.6C1792.3,420.6,1805.3,407.8,1821.2,407.8z"/>
			<path class="st25" d="M1845.5,435.8c0,3.8-0.9,7.4-2.4,10.6h-12.1c2.9-2.6,4.7-6.4,4.7-10.6c0-1.4-0.2-2.7-0.6-4
				c-1.7-6-7.3-10.4-13.8-10.4c-7.9,0-14.4,6.4-14.4,14.4c0,4.2,1.8,8,4.7,10.6h-12.1c-1.6-3.2-2.4-6.8-2.4-10.6
				c0-13.4,10.8-24.2,24.2-24.2c12,0,22,8.8,23.9,20.2C1845.3,433.1,1845.5,434.5,1845.5,435.8z"/>
			<g>
				<path class="st26" d="M1825.6,435.8c0-2.3-1.7-4.2-3.9-4.4l-0.5-21.9h-0.2l-0.5,21.9c-2.2,0.3-3.9,2.2-3.9,4.4
					c0,2.2,1.6,4,3.7,4.4l-0.1,6.8h1.9l-0.1-6.8C1824,439.9,1825.6,438,1825.6,435.8z"/>
				<ellipse class="st27" cx="1821.1" cy="436.3" rx="2.6" ry="2.8"/>
				<circle class="st28" cx="1821.1" cy="435.8" r="2.6"/>
			</g>
			<path class="st29" d="M1845.5,435.8c0,3.8-0.9,7.4-2.4,10.6h-12.1c2.9-2.6,4.7-6.4,4.7-10.6c0-1.4-0.2-2.7-0.6-4h10.1
				C1845.3,433.1,1845.5,434.5,1845.5,435.8z"/>
		</g>
		<g>
			<g>
				<path class="st30" d="M1823.3,402.3c0.5,1.8-1.1,3.4-2.9,2.9c-0.8-0.2-1.4-0.8-1.6-1.6c-0.5-1.8,1.1-3.4,2.9-2.9
					C1822.5,401,1823.1,401.6,1823.3,402.3z"/>
				<path class="st31" d="M1823.3,402.2c0.5,1.8-1.1,3.4-2.9,2.9c-0.8-0.2-1.4-0.8-1.6-1.6c-0.5-1.8,1.1-3.4,2.9-2.9
					C1822.5,400.9,1823.1,401.5,1823.3,402.2z"/>
				<path class="st32" d="M1821.8,400.8c0.8,0.2,1.4,0.8,1.6,1.6c0.1,0.2,0.1,0.4,0.1,0.6c0-0.2,0-0.5-0.1-0.8
					c-0.2-0.8-0.8-1.4-1.6-1.6c-1.6-0.5-3.1,0.8-3,2.3C1818.8,401.5,1820.2,400.4,1821.8,400.8z"/>
				<path class="st33" d="M1822.9,402.4c0.4,1.5-0.9,2.8-2.4,2.4c-0.6-0.2-1.1-0.7-1.3-1.3c-0.4-1.5,0.9-2.8,2.4-2.4
					C1822.3,401.2,1822.8,401.7,1822.9,402.4z"/>
				<path class="st34" d="M1820.5,404.4c-0.6-0.2-1.1-0.7-1.3-1.3c0-0.1-0.1-0.2-0.1-0.4c0,0.2,0,0.5,0.1,0.8
					c0.2,0.6,0.7,1.1,1.3,1.3c1.4,0.4,2.6-0.7,2.5-2.1C1822.9,403.9,1821.7,404.7,1820.5,404.4z"/>
				<path class="st35" d="M1821.3,401.7c0.2,0.6-0.4,1.1-0.9,0.9c-0.2-0.1-0.4-0.3-0.5-0.5c-0.2-0.6,0.4-1.1,0.9-0.9
					C1821,401.3,1821.2,401.5,1821.3,401.7z"/>
			</g>
			<g>
				<path class="st30" d="M1845.9,413.1c-0.9,1.7-3.2,1.7-4.1,0.1c-0.4-0.7-0.4-1.5-0.1-2.2c0.9-1.7,3.2-1.7,4.1-0.1
					C1846.2,411.6,1846.2,412.5,1845.9,413.1z"/>
				<path class="st31" d="M1845.9,413.1c-0.9,1.7-3.2,1.7-4.1,0.1c-0.4-0.7-0.4-1.5-0.1-2.2c0.9-1.7,3.2-1.7,4.1-0.1
					C1846.3,411.5,1846.3,412.4,1845.9,413.1z"/>
				<path class="st32" d="M1845.8,411c0.4,0.7,0.4,1.5,0.1,2.2c-0.1,0.2-0.2,0.3-0.3,0.5c0.2-0.2,0.3-0.4,0.5-0.6
					c0.4-0.7,0.3-1.5-0.1-2.2c-0.9-1.4-2.8-1.6-3.8-0.4C1843.1,409.4,1844.9,409.6,1845.8,411z"/>
				<path class="st33" d="M1845.6,412.9c-0.7,1.4-2.6,1.4-3.4,0.1c-0.3-0.6-0.3-1.3,0-1.8c0.7-1.4,2.6-1.4,3.4-0.1
					C1845.8,411.6,1845.9,412.3,1845.6,412.9z"/>
				<path class="st34" d="M1842.4,412.7c-0.3-0.6-0.3-1.3,0-1.8c0.1-0.1,0.1-0.2,0.2-0.3c-0.2,0.2-0.4,0.4-0.5,0.6
					c-0.3,0.6-0.3,1.3,0,1.8c0.7,1.2,2.4,1.3,3.2,0.2C1844.5,414,1843.1,413.8,1842.4,412.7z"/>
				<path class="st35" d="M1844.8,411.3c-0.3,0.5-1,0.5-1.3,0c-0.1-0.2-0.1-0.5,0-0.7c0.3-0.5,1-0.5,1.3,0
					C1844.9,410.8,1844.9,411.1,1844.8,411.3z"/>
			</g>
			<g>
				<path class="st30" d="M1854.7,436.5c-1.8,0.6-3.5-0.9-3.1-2.8c0.2-0.8,0.8-1.4,1.5-1.6c1.8-0.6,3.5,0.9,3.1,2.8
					C1856,435.6,1855.5,436.3,1854.7,436.5z"/>
				<path class="st31" d="M1854.8,436.5c-1.8,0.6-3.5-0.9-3.1-2.8c0.2-0.8,0.8-1.4,1.5-1.6c1.8-0.6,3.5,0.9,3.1,2.8
					C1856.1,435.6,1855.5,436.3,1854.8,436.5z"/>
				<path class="st32" d="M1856.1,434.9c-0.2,0.8-0.8,1.4-1.5,1.6c-0.2,0.1-0.4,0.1-0.6,0.1c0.2,0,0.5,0,0.8-0.1
					c0.7-0.2,1.3-0.9,1.5-1.6c0.4-1.6-0.9-3-2.5-2.9C1855.3,431.9,1856.5,433.3,1856.1,434.9z"/>
				<path class="st33" d="M1854.7,436.1c-1.5,0.5-2.9-0.8-2.5-2.3c0.1-0.6,0.6-1.2,1.2-1.4c1.5-0.5,2.9,0.8,2.5,2.3
					C1855.8,435.4,1855.3,435.9,1854.7,436.1z"/>
				<path class="st34" d="M1852.5,433.8c0.1-0.6,0.6-1.2,1.2-1.4c0.1,0,0.2-0.1,0.4-0.1c-0.2,0-0.5,0-0.8,0.1
					c-0.6,0.2-1.1,0.7-1.2,1.4c-0.3,1.4,0.8,2.6,2.2,2.4C1853.2,436.1,1852.3,435.1,1852.5,433.8z"/>
				<path class="st35" d="M1855.2,434.5c-0.6,0.2-1.1-0.3-1-0.9c0.1-0.2,0.2-0.4,0.5-0.5c0.6-0.2,1.1,0.3,1,0.9
					C1855.7,434.2,1855.5,434.4,1855.2,434.5z"/>
			</g>
			<g>
				<path class="st30" d="M1845,459.6c-1.7-0.8-1.9-3.1-0.3-4.1c0.7-0.4,1.5-0.5,2.2-0.2c1.7,0.8,1.9,3.1,0.3,4.1
					C1846.6,459.8,1845.7,459.9,1845,459.6z"/>
				<path class="st31" d="M1845.1,459.6c-1.7-0.8-1.9-3.1-0.3-4.1c0.7-0.4,1.5-0.5,2.2-0.2c1.7,0.8,1.9,3.1,0.3,4.1
					C1846.6,459.9,1845.8,459.9,1845.1,459.6z"/>
				<path class="st32" d="M1847.2,459.3c-0.7,0.4-1.5,0.5-2.2,0.2c-0.2-0.1-0.4-0.2-0.5-0.3c0.2,0.2,0.4,0.3,0.6,0.4
					c0.7,0.3,1.6,0.3,2.2-0.2c1.4-0.9,1.4-2.8,0.2-3.8C1848.6,456.6,1848.5,458.4,1847.2,459.3z"/>
				<path class="st33" d="M1845.2,459.2c-1.4-0.7-1.6-2.6-0.2-3.4c0.5-0.4,1.2-0.4,1.8-0.1c1.4,0.7,1.6,2.6,0.2,3.4
					C1846.5,459.5,1845.8,459.5,1845.2,459.2z"/>
				<path class="st34" d="M1845.3,456.1c0.5-0.4,1.2-0.4,1.8-0.1c0.1,0.1,0.2,0.1,0.3,0.2c-0.2-0.2-0.4-0.3-0.6-0.5
					c-0.6-0.3-1.3-0.2-1.8,0.1c-1.2,0.8-1.2,2.5-0.1,3.2C1844.1,458.2,1844.2,456.8,1845.3,456.1z"/>
				<path class="st35" d="M1846.8,458.4c-0.5-0.3-0.6-1-0.1-1.3c0.2-0.1,0.5-0.2,0.7-0.1c0.5,0.3,0.6,1,0.1,1.3
					C1847.3,458.5,1847,458.5,1846.8,458.4z"/>
			</g>
			<g>
				<path class="st30" d="M1822.1,469.5c-0.7-1.8,0.8-3.5,2.6-3.2c0.8,0.1,1.4,0.7,1.7,1.4c0.7,1.8-0.8,3.5-2.6,3.2
					C1823,470.8,1822.4,470.3,1822.1,469.5z"/>
				<path class="st31" d="M1822.1,469.6c-0.7-1.8,0.8-3.5,2.6-3.2c0.8,0.1,1.4,0.7,1.7,1.4c0.7,1.8-0.8,3.5-2.6,3.2
					C1823,470.9,1822.4,470.4,1822.1,469.6z"/>
				<path class="st32" d="M1823.8,470.9c-0.8-0.1-1.4-0.7-1.7-1.4c-0.1-0.2-0.1-0.4-0.1-0.6c0,0.2,0.1,0.5,0.2,0.7
					c0.3,0.7,0.9,1.3,1.7,1.4c1.7,0.3,3-1.1,2.8-2.6C1826.7,469.9,1825.4,471.2,1823.8,470.9z"/>
				<path class="st33" d="M1822.5,469.5c-0.6-1.5,0.6-2.9,2.2-2.7c0.6,0.1,1.2,0.6,1.4,1.2c0.6,1.5-0.6,2.9-2.2,2.7
					C1823.2,470.5,1822.7,470.1,1822.5,469.5z"/>
				<path class="st34" d="M1824.7,467.2c0.6,0.1,1.2,0.6,1.4,1.2c0,0.1,0.1,0.2,0.1,0.4c0-0.2,0-0.5-0.1-0.8
					c-0.2-0.6-0.8-1.1-1.4-1.2c-1.4-0.3-2.5,1-2.3,2.3C1822.4,468,1823.4,467,1824.7,467.2z"/>
				<path class="st35" d="M1824.2,470c-0.2-0.6,0.2-1.1,0.8-1c0.2,0,0.5,0.2,0.5,0.4c0.2,0.6-0.2,1.1-0.8,1
					C1824.5,470.4,1824.3,470.2,1824.2,470z"/>
			</g>
			<g>
				<path class="st30" d="M1798.6,460.9c0.7-1.7,3-2,4.1-0.5c0.5,0.6,0.6,1.5,0.3,2.2c-0.7,1.7-3,2-4.1,0.5
					C1798.4,462.5,1798.3,461.7,1798.6,460.9z"/>
				<path class="st31" d="M1798.6,461c0.7-1.7,3-2,4.1-0.5c0.5,0.6,0.6,1.5,0.3,2.2c-0.7,1.7-3,2-4.1,0.5
					C1798.4,462.6,1798.3,461.7,1798.6,461z"/>
				<path class="st32" d="M1798.9,463.1c-0.5-0.6-0.6-1.5-0.3-2.2c0.1-0.2,0.2-0.4,0.3-0.5c-0.2,0.2-0.3,0.4-0.4,0.7
					c-0.3,0.7-0.2,1.6,0.3,2.2c1,1.4,2.9,1.3,3.8,0C1801.7,464.4,1799.9,464.4,1798.9,463.1z"/>
				<path class="st33" d="M1798.9,461.2c0.6-1.4,2.5-1.7,3.4-0.4c0.4,0.5,0.5,1.2,0.2,1.8c-0.6,1.4-2.5,1.7-3.4,0.4
					C1798.8,462.5,1798.7,461.8,1798.9,461.2z"/>
				<path class="st34" d="M1802.1,461.1c0.4,0.5,0.5,1.2,0.2,1.8c0,0.1-0.1,0.2-0.2,0.3c0.2-0.2,0.3-0.4,0.4-0.7
					c0.2-0.6,0.2-1.3-0.2-1.8c-0.8-1.2-2.5-1.1-3.2,0.1C1799.9,460,1801.3,460,1802.1,461.1z"/>
				<path class="st35" d="M1799.8,462.7c0.2-0.6,1-0.6,1.3-0.2c0.1,0.2,0.2,0.5,0.1,0.7c-0.2,0.6-1,0.6-1.3,0.2
					C1799.8,463.2,1799.7,462.9,1799.8,462.7z"/>
			</g>
			<g>
				<path class="st30" d="M1787.5,438.5c1.7-0.8,3.6,0.6,3.3,2.5c-0.1,0.8-0.6,1.5-1.3,1.8c-1.7,0.8-3.6-0.6-3.3-2.5
					C1786.3,439.5,1786.8,438.9,1787.5,438.5z"/>
				<path class="st31" d="M1787.4,438.6c1.7-0.8,3.6,0.6,3.3,2.5c-0.1,0.8-0.6,1.5-1.3,1.8c-1.7,0.8-3.6-0.6-3.3-2.5
					C1786.2,439.6,1786.7,438.9,1787.4,438.6z"/>
				<path class="st32" d="M1786.3,440.3c0.1-0.8,0.6-1.5,1.3-1.8c0.2-0.1,0.4-0.1,0.6-0.2c-0.2,0-0.5,0.1-0.7,0.2
					c-0.7,0.3-1.2,1-1.3,1.8c-0.2,1.7,1.2,2.9,2.8,2.7C1787.4,443.2,1786.1,441.9,1786.3,440.3z"/>
				<path class="st33" d="M1787.6,438.9c1.4-0.6,3,0.5,2.8,2c-0.1,0.6-0.5,1.2-1.1,1.5c-1.4,0.6-3-0.5-2.8-2
					C1786.6,439.8,1787,439.2,1787.6,438.9z"/>
				<path class="st34" d="M1790,441c-0.1,0.6-0.5,1.2-1.1,1.5c-0.1,0.1-0.2,0.1-0.3,0.1c0.2,0,0.5-0.1,0.8-0.2
					c0.6-0.3,1-0.8,1.1-1.5c0.2-1.4-1.1-2.5-2.4-2.2C1789.1,438.8,1790.1,439.8,1790,441z"/>
				<path class="st35" d="M1787.2,440.7c0.5-0.2,1.1,0.2,1.1,0.8c0,0.2-0.2,0.5-0.4,0.6c-0.5,0.2-1.1-0.2-1.1-0.8
					C1786.8,441,1787,440.8,1787.2,440.7z"/>
			</g>
			<g>
				<path class="st30" d="M1795,414.7c1.8,0.6,2.2,2.9,0.7,4.1c-0.6,0.5-1.5,0.6-2.2,0.4c-1.8-0.6-2.2-2.9-0.7-4.1
					C1793.4,414.6,1794.2,414.4,1795,414.7z"/>
				<path class="st31" d="M1794.9,414.6c1.8,0.6,2.2,2.9,0.7,4.1c-0.6,0.5-1.5,0.6-2.2,0.4c-1.8-0.6-2.2-2.9-0.7-4.1
					C1793.3,414.5,1794.2,414.4,1794.9,414.6z"/>
				<path class="st32" d="M1792.8,415.1c0.6-0.5,1.5-0.6,2.2-0.4c0.2,0.1,0.4,0.2,0.5,0.3c-0.2-0.1-0.4-0.3-0.7-0.4
					c-0.7-0.3-1.6-0.1-2.2,0.4c-1.3,1.1-1.1,3,0.2,3.8C1791.7,417.9,1791.6,416.1,1792.8,415.1z"/>
				<path class="st33" d="M1794.8,415c1.5,0.5,1.8,2.4,0.6,3.4c-0.5,0.4-1.2,0.5-1.8,0.3c-1.5-0.5-1.8-2.4-0.6-3.4
					C1793.5,414.9,1794.2,414.8,1794.8,415z"/>
				<path class="st34" d="M1795,418.2c-0.5,0.4-1.2,0.5-1.8,0.3c-0.1,0-0.2-0.1-0.3-0.2c0.2,0.2,0.4,0.3,0.7,0.4
					c0.6,0.2,1.3,0.1,1.8-0.3c1.1-0.9,0.9-2.6-0.2-3.2C1796,415.9,1796,417.3,1795,418.2z"/>
				<path class="st35" d="M1793.3,416c0.6,0.2,0.7,0.9,0.2,1.3c-0.2,0.2-0.5,0.2-0.7,0.1c-0.6-0.2-0.7-0.9-0.2-1.3
					C1792.8,416,1793,415.9,1793.3,416z"/>
			</g>
		</g>
	</g>
	<rect x="1917.9" y="662.8" class="st9" width="19" height="127.2"/>
	<rect x="1985.2" y="662.8" class="st9" width="19" height="127.2"/>
	<rect x="142.3" y="712.9" class="st3" width="1665.6" height="19"/>
	<path class="st9" d="M1807.8,712.9v19h-26v-16.2c0-0.9,0-1.9,0.1-2.8H1807.8z"/>
	<path class="st38" d="M2033.5,672.8V800h-239.6v-84.3c0-0.9,0-1.9,0.1-2.8c1.4-22.4,20-40.1,42.8-40.1H2033.5z"/>
	<path class="st39" d="M1877.4,714.3V800h-23.5v-85.7c0-5,3-9.2,7.4-10.9c1.4-0.5,2.8-0.8,4.4-0.8
		C1872.2,702.6,1877.4,707.8,1877.4,714.3z"/>
	<path class="st39" d="M1949.9,714.3V800h-23.6v-85.7c0-2.2,0.6-4.2,1.6-5.9c0.5-0.9,1.2-1.8,2-2.5c0.1-0.2,0.3-0.3,0.5-0.4
		c0.1-0.1,0.1-0.1,0.2-0.2c1.7-1.5,3.9-2.4,6.3-2.7c0.4,0,0.8-0.1,1.2-0.1c2.9,0,5.5,1,7.5,2.7c0.1,0.1,0.2,0.1,0.2,0.2
		c0.2,0.2,0.4,0.4,0.6,0.6c0.7,0.7,1.3,1.5,1.8,2.3C1949.3,710.1,1949.9,712.2,1949.9,714.3z"/>
	<path class="st39" d="M2022.3,714.3V800h-23.5v-85.7c0-3.3,1.4-6.3,3.6-8.4c0.6-0.6,1.2-1.1,1.9-1.5c1.8-1.2,4-1.8,6.3-1.8
		c3.3,0,6.2,1.3,8.4,3.5C2021,708.2,2022.3,711.1,2022.3,714.3z"/>
	<g>
		<path class="st40" d="M2018.9,679.1v54.7c0,3.7-3,6.7-6.7,6.7h-3.2c-3.7,0-6.7-3-6.7-6.7v-54.7H2018.9z"/>
		<path class="st41" d="M2018.9,667.2v20.6c-2.6,1.1-5.4,1.7-8.4,1.7c-2.9,0-5.7-0.6-8.2-1.7v-20.7H2018.9z"/>
		<g>
			<circle class="st4" cx="2010.5" cy="663.4" r="21.2"/>
			<path class="st5" d="M2010.5,680.3c-11,0-20-8.3-21.1-19c-0.1,0.7-0.1,1.4-0.1,2.2c0,11.7,9.5,21.2,21.2,21.2s21.2-9.5,21.2-21.2
				c0-0.7,0-1.5-0.1-2.2C2030.5,671.9,2021.5,680.3,2010.5,680.3z"/>
			<circle class="st42" cx="2005" cy="653.4" r="7.8"/>
		</g>
	</g>
	<g>
		<path class="st40" d="M1946.5,705.5v54.7c0,3.7-3,6.7-6.7,6.7h-3.2c-3.7,0-6.7-3-6.7-6.7v-54.7H1946.5z"/>
		<path class="st41" d="M1946.5,693.5v20.6c-2.6,1.1-5.4,1.7-8.4,1.7c-2.9,0-5.7-0.6-8.2-1.7v-20.7H1946.5z"/>
		<g>
			<circle class="st4" cx="1938.1" cy="689.8" r="21.2"/>
			<path class="st5" d="M1938.1,706.6c-11,0-20-8.3-21.1-19c-0.1,0.7-0.1,1.4-0.1,2.2c0,11.7,9.5,21.2,21.2,21.2
				c11.7,0,21.2-9.5,21.2-21.2c0-0.7,0-1.5-0.1-2.2C1958.1,698.3,1949.1,706.6,1938.1,706.6z"/>
			<circle class="st42" cx="1932.5" cy="679.8" r="7.8"/>
		</g>
	</g>
	<g>
		<path class="st40" d="M1874,736.9v54.7c0,3.7-3,6.7-6.7,6.7h-3.2c-3.7,0-6.7-3-6.7-6.7v-54.7H1874z"/>
		<path class="st41" d="M1874,724.9v20.6c-2.6,1.1-5.4,1.7-8.4,1.7c-2.9,0-5.7-0.6-8.2-1.7v-20.7H1874z"/>
		<g>
			<circle class="st4" cx="1865.7" cy="721.2" r="21.2"/>
			<path class="st5" d="M1865.7,738c-11,0-20-8.3-21.1-19c-0.1,0.7-0.1,1.4-0.1,2.2c0,11.7,9.5,21.2,21.2,21.2s21.2-9.5,21.2-21.2
				c0-0.7,0-1.5-0.1-2.2C1885.7,729.7,1876.6,738,1865.7,738z"/>
			<circle class="st42" cx="1860.1" cy="711.2" r="7.8"/>
		</g>
	</g>
	<path class="st23" d="M1778.7,201.4c-7.6,4.7-15,9.9-22.1,15.4c-5,3.9-11,8.3-17.2,6.7c-2-0.5-3.9-1.7-5.8-2.5
		c-4.6-1.9-10.5-1.4-13.8,2.3c-3.3,3.7-2.2,10.8,2.6,12.3c-4.7,0.1-9.4,2.7-11.6,6.8c-2.3,4.1-1.8,9.7,1.5,13.1
		c3.3,3.4,9.1,4,12.8,1.1c-0.9,5.1,3.3,10.5,8.5,10.9c5.2,0.4,10.2-4.2,10.2-9.4c1,3.8,6.1,5.5,9.6,3.7c3.5-1.8,5.3-6.1,4.9-10
		c-0.3-3.9-2.3-7.6-4.7-10.7c-0.8-1-1.6-2.1-1.8-3.4c-0.1-1.3,0.5-2.6,1.1-3.8C1759.8,222.1,1772.4,213.8,1778.7,201.4z"/>
	<path class="st23" d="M1953.3,400.1c4.7-2.9,9.3-6.1,13.6-9.5c3.1-2.4,6.8-5.1,10.6-4.1c1.3,0.3,2.4,1,3.6,1.5
		c2.8,1.1,6.5,0.9,8.5-1.4c2-2.3,1.4-6.7-1.6-7.6c2.9-0.1,5.8-1.7,7.2-4.2c1.4-2.5,1.1-6-0.9-8.1c-2-2.1-5.6-2.5-7.9-0.7
		c0.5-3.1-2-6.5-5.2-6.7c-3.2-0.3-6.3,2.6-6.3,5.8c-0.6-2.4-3.8-3.4-5.9-2.3c-2.2,1.1-3.2,3.8-3,6.2c0.2,2.4,1.4,4.7,2.9,6.6
		c0.5,0.6,1,1.3,1.1,2.1c0.1,0.8-0.3,1.6-0.7,2.3C1964.9,387.4,1957.1,392.5,1953.3,400.1z"/>
	<rect x="47.9" y="0" class="st2" width="19" height="800"/>
	<path class="st6" d="M66.9,712v88h-5.4v-15.6h-5.1c-3.1,0-5.5-2.5-5.5-5.5c0-3,2.5-5.5,5.5-5.5H60v-11.9c0-19.6-0.9-31.1-12.1-35.7
		v-22.9c0.1,0,0.2,0,0.2,0C55.9,704.6,62.1,707.7,66.9,712z"/>
	<rect x="65.5" y="753.2" class="st3" width="19" height="46.8"/>
	<rect y="702.6" class="st3" width="48.1" height="19"/>
	<g>
		<g>
			<path class="st4" d="M27.3,701.3h8.5c38.7,0,50.1,21.5,50.1,60.1v17.4H64v-17.4c0-26.5-1.6-38.1-28.1-38.1h-8.5V701.3z"/>
		</g>
		<rect x="27.3" y="701.3" class="st5" width="7.7" height="22"/>
		<rect x="64" y="770.4" class="st5" width="22" height="8.5"/>
		<g>
			<path class="st4" d="M22,697.6v30.3c0,3,2.5,5.5,5.5,5.5c3,0,5.5-2.5,5.5-5.5v-30.3c0-3-2.5-5.5-5.5-5.5
				C24.5,692,22,694.5,22,697.6z"/>
			<path class="st4" d="M54.9,778.9c0,3,2.5,5.5,5.5,5.5h30.3c3,0,5.5-2.5,5.5-5.5c0-3-2.5-5.5-5.5-5.5H60.4
				C57.4,773.4,54.9,775.8,54.9,778.9z"/>
		</g>
	</g>
	<rect x="0" y="157.9" class="st3" width="204.4" height="19"/>
	<g>
		<g>
			<path class="st4" d="M183.6,178.2h8.5c38.7,0,50.1-21.5,50.1-60.1v-17.4h-22v17.4c0,26.5-1.6,38.1-28.1,38.1h-8.5V178.2z"/>
		</g>
		<rect x="183.6" y="156.2" class="st5" width="7.7" height="22"/>
		<rect x="220.2" y="100.7" class="st5" width="22" height="8.5"/>
		<g>
			<path class="st4" d="M178.3,182v-30.3c0-3,2.5-5.5,5.5-5.5c3,0,5.5,2.5,5.5,5.5V182c0,3-2.5,5.5-5.5,5.5
				C180.7,187.5,178.3,185.1,178.3,182z"/>
			<path class="st4" d="M211.2,100.7c0-3,2.5-5.5,5.5-5.5H247c3,0,5.5,2.5,5.5,5.5c0,3-2.5,5.5-5.5,5.5h-30.3
				C213.6,106.2,211.2,103.7,211.2,100.7z"/>
		</g>
	</g>
	<rect x="153.2" y="0" class="st2" width="19" height="49.2"/>
	<rect x="47.9" y="76.3" class="st6" width="19" height="27.9"/>
	<rect y="80.7" class="st2" width="135.9" height="19"/>
	<g>
		<g>
			<path class="st4" d="M115.1,101h8.5c38.7,0,50.1-21.5,50.1-60.1V23.5h-22v17.4c0,26.5-1.6,38.1-28.1,38.1h-8.5V101z"/>
		</g>
		<rect x="115.1" y="79" class="st5" width="7.7" height="22"/>
		<rect x="151.7" y="23.5" class="st5" width="22" height="8.5"/>
		<g>
			<path class="st4" d="M109.8,104.8V74.5c0-3,2.5-5.5,5.5-5.5c3,0,5.5,2.5,5.5,5.5v30.3c0,3-2.5,5.5-5.5,5.5
				C112.2,110.3,109.8,107.9,109.8,104.8z"/>
			<path class="st4" d="M142.6,23.5c0-3,2.5-5.5,5.5-5.5h30.3c3,0,5.5,2.5,5.5,5.5s-2.5,5.5-5.5,5.5h-30.3
				C145.1,29,142.6,26.5,142.6,23.5z"/>
		</g>
	</g>
	
		<rect x="114.8" y="468.4" transform="matrix(6.123234e-017 -1 1 6.123234e-017 -380.2616 628.8222)" class="st3" width="19" height="72.3"/>
	<g>
		<rect x="47" y="450.3" class="st11" width="22" height="105.8"/>
		<rect x="47" y="494" class="st11" width="58.3" height="22"/>
		<rect x="47" y="548.8" class="st12" width="22" height="7.3"/>
		<path class="st11" d="M77.2,555.6c0,1.2-0.4,2.2-1.1,3c-0.1,0.1-0.2,0.3-0.3,0.4c-0.9,0.9-2.1,1.4-3.4,1.4H43.7
			c-2.7,0-4.8-2.2-4.8-4.9c0-1.3,0.5-2.5,1.4-3.4c0.9-0.9,2.1-1.4,3.4-1.4h28.6c1.5,0,2.9,0.7,3.8,1.8
			C76.8,553.4,77.2,554.5,77.2,555.6z"/>
		<rect x="98.5" y="494" class="st12" width="6.9" height="22"/>
		<path class="st11" d="M110.2,490.7v28.6c0,2.7-2.2,4.8-4.8,4.8c-0.6,0-1.1-0.1-1.6-0.3c-1.9-0.7-3.3-2.5-3.3-4.6v-28.6
			c0-2.1,1.4-3.9,3.3-4.6c0.5-0.2,1-0.3,1.6-0.3C108,485.8,110.2,488,110.2,490.7z"/>
		<rect x="47" y="450.3" class="st12" width="22" height="7.8"/>
		<path class="st11" d="M77.2,450.3c0,1.1-0.4,2.2-1.1,3c-0.9,1.1-2.3,1.8-3.8,1.8H43.7c-2.7,0-4.8-2.2-4.8-4.8
			c0-2.7,2.2-4.9,4.8-4.9h28.6c1.5,0,2.9,0.7,3.8,1.8C76.8,448.1,77.2,449.1,77.2,450.3z"/>
	</g>
	<g>
		<circle class="st22" cx="164" cy="502.6" r="37.2"/>
		<g>
			<circle class="st23" cx="164" cy="502.6" r="29.2"/>
			<path class="st24" d="M164,474.6c-15.9,0-28.9,12.8-29.2,28.6c0-0.2,0-0.4,0-0.6c0-16.1,13.1-29.2,29.2-29.2
				c16.1,0,29.2,13.1,29.2,29.2c0,0.2,0,0.4,0,0.6C192.9,487.4,180,474.6,164,474.6z"/>
			<path class="st25" d="M139.8,502.6c0,3.8,0.9,7.4,2.4,10.6h12.1c-2.9-2.6-4.7-6.4-4.7-10.6c0-1.4,0.2-2.7,0.6-4
				c1.7-6,7.3-10.4,13.8-10.4c7.9,0,14.4,6.4,14.4,14.4c0,4.2-1.8,8-4.7,10.6h12.1c1.6-3.2,2.4-6.8,2.4-10.6
				c0-13.4-10.8-24.2-24.2-24.2c-12,0-22,8.8-23.9,20.2C139.9,499.9,139.8,501.2,139.8,502.6z"/>
			<g>
				<path class="st26" d="M159.6,502.6c0-2.3,1.7-4.2,3.9-4.4l0.5-21.9h0.2l0.5,21.9c2.2,0.3,3.9,2.2,3.9,4.4c0,2.2-1.6,4-3.7,4.4
					l0.1,6.8h-1.9l0.1-6.8C161.2,506.6,159.6,504.8,159.6,502.6z"/>
				<ellipse class="st27" cx="164.1" cy="503.1" rx="2.6" ry="2.8"/>
				<circle class="st28" cx="164.1" cy="502.6" r="2.6"/>
			</g>
			<path class="st29" d="M139.8,502.6c0,3.8,0.9,7.4,2.4,10.6h12.1c-2.9-2.6-4.7-6.4-4.7-10.6c0-1.4,0.2-2.7,0.6-4h-10.1
				C139.9,499.9,139.8,501.2,139.8,502.6z"/>
		</g>
		<g>
			<g>
				<path class="st30" d="M161.9,469.1c-0.5,1.8,1.1,3.4,2.9,2.9c0.8-0.2,1.4-0.8,1.6-1.6c0.5-1.8-1.1-3.4-2.9-2.9
					C162.8,467.7,162.2,468.3,161.9,469.1z"/>
				<path class="st31" d="M161.9,469c-0.5,1.8,1.1,3.4,2.9,2.9c0.8-0.2,1.4-0.8,1.6-1.6c0.5-1.8-1.1-3.4-2.9-2.9
					C162.8,467.7,162.2,468.3,161.9,469z"/>
				<path class="st32" d="M163.5,467.6c-0.8,0.2-1.4,0.8-1.6,1.6c-0.1,0.2-0.1,0.4-0.1,0.6c0-0.2,0-0.5,0.1-0.8
					c0.2-0.8,0.8-1.4,1.6-1.6c1.6-0.5,3.1,0.8,3,2.3C166.5,468.3,165.1,467.2,163.5,467.6z"/>
				<path class="st33" d="M162.3,469.1c-0.4,1.5,0.9,2.8,2.4,2.4c0.6-0.2,1.1-0.7,1.3-1.3c0.4-1.5-0.9-2.8-2.4-2.4
					C163,468,162.5,468.5,162.3,469.1z"/>
				<path class="st34" d="M164.8,471.1c0.6-0.2,1.1-0.7,1.3-1.3c0-0.1,0.1-0.2,0.1-0.4c0,0.2,0,0.5-0.1,0.8
					c-0.2,0.6-0.7,1.1-1.3,1.3c-1.4,0.4-2.6-0.7-2.5-2.1C162.4,470.6,163.5,471.5,164.8,471.1z"/>
				<path class="st35" d="M164,468.5c-0.2,0.6,0.4,1.1,0.9,0.9c0.2-0.1,0.4-0.3,0.5-0.5c0.2-0.6-0.4-1.1-0.9-0.9
					C164.2,468.1,164.1,468.2,164,468.5z"/>
			</g>
			<g>
				<path class="st30" d="M139.4,479.9c0.9,1.7,3.2,1.7,4.1,0.1c0.4-0.7,0.4-1.5,0.1-2.2c-0.9-1.7-3.2-1.7-4.1-0.1
					C139.1,478.4,139,479.2,139.4,479.9z"/>
				<path class="st31" d="M139.3,479.9c0.9,1.7,3.2,1.7,4.1,0.1c0.4-0.7,0.4-1.5,0.1-2.2c-0.9-1.7-3.2-1.7-4.1-0.1
					C139,478.3,139,479.2,139.3,479.9z"/>
				<path class="st32" d="M139.5,477.8c-0.4,0.7-0.4,1.5-0.1,2.2c0.1,0.2,0.2,0.3,0.3,0.5c-0.2-0.2-0.3-0.4-0.5-0.6
					c-0.4-0.7-0.3-1.5,0.1-2.2c0.9-1.4,2.8-1.6,3.8-0.4C142.1,476.2,140.3,476.4,139.5,477.8z"/>
				<path class="st33" d="M139.7,479.7c0.7,1.4,2.6,1.4,3.4,0.1c0.3-0.6,0.3-1.3,0-1.8c-0.7-1.4-2.6-1.4-3.4-0.1
					C139.4,478.4,139.4,479.1,139.7,479.7z"/>
				<path class="st34" d="M142.9,479.5c0.3-0.6,0.3-1.3,0-1.8c-0.1-0.1-0.1-0.2-0.2-0.3c0.2,0.2,0.4,0.4,0.5,0.6
					c0.3,0.6,0.3,1.3,0,1.8c-0.7,1.2-2.4,1.3-3.2,0.2C140.8,480.7,142.2,480.6,142.9,479.5z"/>
				<path class="st35" d="M140.5,478.1c0.3,0.5,1,0.5,1.3,0c0.1-0.2,0.1-0.5,0-0.7c-0.3-0.5-1-0.5-1.3,0
					C140.4,477.6,140.3,477.8,140.5,478.1z"/>
			</g>
			<g>
				<path class="st30" d="M130.6,503.3c1.8,0.6,3.5-0.9,3.1-2.8c-0.2-0.8-0.8-1.4-1.5-1.6c-1.8-0.6-3.5,0.9-3.1,2.8
					C129.2,502.4,129.8,503,130.6,503.3z"/>
				<path class="st31" d="M130.5,503.3c1.8,0.6,3.5-0.9,3.1-2.8c-0.2-0.8-0.8-1.4-1.5-1.6c-1.8-0.6-3.5,0.9-3.1,2.8
					C129.1,502.4,129.7,503,130.5,503.3z"/>
				<path class="st32" d="M129.1,501.7c0.2,0.8,0.8,1.4,1.5,1.6c0.2,0.1,0.4,0.1,0.6,0.1c-0.2,0-0.5,0-0.8-0.1
					c-0.7-0.2-1.3-0.9-1.5-1.6c-0.4-1.6,0.9-3,2.5-2.9C130,498.7,128.8,500.1,129.1,501.7z"/>
				<path class="st33" d="M130.6,502.9c1.5,0.5,2.9-0.8,2.5-2.3c-0.1-0.6-0.6-1.2-1.2-1.4c-1.5-0.5-2.9,0.8-2.5,2.3
					C129.5,502.2,130,502.7,130.6,502.9z"/>
				<path class="st34" d="M132.7,500.6c-0.1-0.6-0.6-1.2-1.2-1.4c-0.1,0-0.2-0.1-0.4-0.1c0.2,0,0.5,0,0.8,0.1
					c0.6,0.2,1.1,0.7,1.2,1.4c0.3,1.4-0.8,2.6-2.2,2.4C132.1,502.9,133,501.8,132.7,500.6z"/>
				<path class="st35" d="M130,501.2c0.6,0.2,1.1-0.3,1-0.9c-0.1-0.2-0.2-0.4-0.5-0.5c-0.6-0.2-1.1,0.3-1,0.9
					C129.6,500.9,129.8,501.1,130,501.2z"/>
			</g>
			<g>
				<path class="st30" d="M140.3,526.3c1.7-0.8,1.9-3.1,0.3-4.1c-0.7-0.4-1.5-0.5-2.2-0.2c-1.7,0.8-1.9,3.1-0.3,4.1
					C138.7,526.6,139.6,526.7,140.3,526.3z"/>
				<path class="st31" d="M140.2,526.4c1.7-0.8,1.9-3.1,0.3-4.1c-0.7-0.4-1.5-0.5-2.2-0.2c-1.7,0.8-1.9,3.1-0.3,4.1
					C138.6,526.7,139.5,526.7,140.2,526.4z"/>
				<path class="st32" d="M138.1,526.1c0.7,0.4,1.5,0.5,2.2,0.2c0.2-0.1,0.4-0.2,0.5-0.3c-0.2,0.2-0.4,0.3-0.6,0.4
					c-0.7,0.3-1.6,0.3-2.2-0.2c-1.4-0.9-1.4-2.8-0.2-3.8C136.7,523.4,136.8,525.2,138.1,526.1z"/>
				<path class="st33" d="M140,526c1.4-0.7,1.6-2.6,0.2-3.4c-0.5-0.4-1.2-0.4-1.8-0.1c-1.4,0.7-1.6,2.6-0.2,3.4
					C138.7,526.2,139.4,526.3,140,526z"/>
				<path class="st34" d="M140,522.9c-0.5-0.4-1.2-0.4-1.8-0.1c-0.1,0.1-0.2,0.1-0.3,0.2c0.2-0.2,0.4-0.3,0.6-0.5
					c0.6-0.3,1.3-0.2,1.8,0.1c1.2,0.8,1.2,2.5,0.1,3.2C141.1,525,141,523.6,140,522.9z"/>
				<path class="st35" d="M138.5,525.2c0.5-0.3,0.6-1,0.1-1.3c-0.2-0.1-0.5-0.2-0.7-0.1c-0.5,0.3-0.6,1-0.1,1.3
					C138,525.3,138.2,525.3,138.5,525.2z"/>
			</g>
			<g>
				<path class="st30" d="M163.2,536.3c0.7-1.8-0.8-3.5-2.6-3.2c-0.8,0.1-1.4,0.7-1.7,1.4c-0.7,1.8,0.8,3.5,2.6,3.2
					C162.2,537.6,162.9,537,163.2,536.3z"/>
				<path class="st31" d="M163.2,536.4c0.7-1.8-0.8-3.5-2.6-3.2c-0.8,0.1-1.4,0.7-1.7,1.4c-0.7,1.8,0.8,3.5,2.6,3.2
					C162.2,537.7,162.9,537.1,163.2,536.4z"/>
				<path class="st32" d="M161.5,537.6c0.8-0.1,1.4-0.7,1.7-1.4c0.1-0.2,0.1-0.4,0.1-0.6c0,0.2-0.1,0.5-0.2,0.7
					c-0.3,0.7-0.9,1.3-1.7,1.4c-1.7,0.3-3-1.1-2.8-2.6C158.6,536.7,159.9,537.9,161.5,537.6z"/>
				<path class="st33" d="M162.8,536.2c0.6-1.5-0.6-2.9-2.2-2.7c-0.6,0.1-1.2,0.6-1.4,1.2c-0.6,1.5,0.6,2.9,2.2,2.7
					C162,537.3,162.6,536.8,162.8,536.2z"/>
				<path class="st34" d="M160.6,534c-0.6,0.1-1.2,0.6-1.4,1.2c0,0.1-0.1,0.2-0.1,0.4c0-0.2,0-0.5,0.1-0.8c0.2-0.6,0.8-1.1,1.4-1.2
					c1.4-0.3,2.5,1,2.3,2.3C162.9,534.7,161.8,533.8,160.6,534z"/>
				<path class="st35" d="M161.1,536.7c0.2-0.6-0.2-1.1-0.8-1c-0.2,0-0.5,0.2-0.5,0.4c-0.2,0.6,0.2,1.1,0.8,1
					C160.8,537.1,161,537,161.1,536.7z"/>
			</g>
			<g>
				<path class="st30" d="M186.7,527.7c-0.7-1.7-3-2-4.1-0.5c-0.5,0.6-0.6,1.5-0.3,2.2c0.7,1.7,3,2,4.1,0.5
					C186.9,529.3,187,528.4,186.7,527.7z"/>
				<path class="st31" d="M186.7,527.8c-0.7-1.7-3-2-4.1-0.5c-0.5,0.6-0.6,1.5-0.3,2.2c0.7,1.7,3,2,4.1,0.5
					C186.9,529.4,187,528.5,186.7,527.8z"/>
				<path class="st32" d="M186.3,529.9c0.5-0.6,0.6-1.5,0.3-2.2c-0.1-0.2-0.2-0.4-0.3-0.5c0.2,0.2,0.3,0.4,0.4,0.7
					c0.3,0.7,0.2,1.6-0.3,2.2c-1,1.4-2.9,1.3-3.8,0C183.6,531.2,185.4,531.2,186.3,529.9z"/>
				<path class="st33" d="M186.3,527.9c-0.6-1.4-2.5-1.7-3.4-0.4c-0.4,0.5-0.5,1.2-0.2,1.8c0.6,1.4,2.5,1.7,3.4,0.4
					C186.5,529.2,186.6,528.5,186.3,527.9z"/>
				<path class="st34" d="M183.2,527.9c-0.4,0.5-0.5,1.2-0.2,1.8c0,0.1,0.1,0.2,0.2,0.3c-0.2-0.2-0.3-0.4-0.4-0.7
					c-0.2-0.6-0.2-1.3,0.2-1.8c0.8-1.2,2.5-1.1,3.2,0.1C185.4,526.8,183.9,526.8,183.2,527.9z"/>
				<path class="st35" d="M185.4,529.5c-0.2-0.6-1-0.6-1.3-0.2c-0.1,0.2-0.2,0.5-0.1,0.7c0.2,0.6,1,0.6,1.3,0.2
					C185.5,530,185.5,529.7,185.4,529.5z"/>
			</g>
			<g>
				<path class="st30" d="M197.7,505.3c-1.7-0.8-3.6,0.6-3.3,2.5c0.1,0.8,0.6,1.5,1.3,1.8c1.7,0.8,3.6-0.6,3.3-2.5
					C199,506.3,198.5,505.6,197.7,505.3z"/>
				<path class="st31" d="M197.8,505.3c-1.7-0.8-3.6,0.6-3.3,2.5c0.1,0.8,0.6,1.5,1.3,1.8c1.7,0.8,3.6-0.6,3.3-2.5
					C199.1,506.3,198.5,505.6,197.8,505.3z"/>
				<path class="st32" d="M199,507.1c-0.1-0.8-0.6-1.5-1.3-1.8c-0.2-0.1-0.4-0.1-0.6-0.2c0.2,0,0.5,0.1,0.7,0.2
					c0.7,0.3,1.2,1,1.3,1.8c0.2,1.7-1.2,2.9-2.8,2.7C197.9,509.9,199.2,508.7,199,507.1z"/>
				<path class="st33" d="M197.7,505.7c-1.4-0.6-3,0.5-2.8,2c0.1,0.6,0.5,1.2,1.1,1.5c1.4,0.6,3-0.5,2.8-2
					C198.7,506.5,198.2,506,197.7,505.7z"/>
				<path class="st34" d="M195.3,507.8c0.1,0.6,0.5,1.2,1.1,1.5c0.1,0.1,0.2,0.1,0.3,0.1c-0.2,0-0.5-0.1-0.8-0.2
					c-0.6-0.3-1-0.8-1.1-1.5c-0.2-1.4,1.1-2.5,2.4-2.2C196.2,505.5,195.1,506.5,195.3,507.8z"/>
				<path class="st35" d="M198.1,507.4c-0.5-0.2-1.1,0.2-1.1,0.8c0,0.2,0.2,0.5,0.4,0.6c0.5,0.2,1.1-0.2,1.1-0.8
					C198.4,507.7,198.3,507.5,198.1,507.4z"/>
			</g>
			<g>
				<path class="st30" d="M190.3,481.4c-1.8,0.6-2.2,2.9-0.7,4.1c0.6,0.5,1.5,0.6,2.2,0.4c1.8-0.6,2.2-2.9,0.7-4.1
					C191.9,481.3,191,481.2,190.3,481.4z"/>
				<path class="st31" d="M190.4,481.4c-1.8,0.6-2.2,2.9-0.7,4.1c0.6,0.5,1.5,0.6,2.2,0.4c1.8-0.6,2.2-2.9,0.7-4.1
					C192,481.3,191.1,481.1,190.4,481.4z"/>
				<path class="st32" d="M192.4,481.9c-0.6-0.5-1.5-0.6-2.2-0.4c-0.2,0.1-0.4,0.2-0.5,0.3c0.2-0.1,0.4-0.3,0.7-0.4
					c0.7-0.3,1.6-0.1,2.2,0.4c1.3,1.1,1.1,3-0.2,3.8C193.6,484.7,193.7,482.9,192.4,481.9z"/>
				<path class="st33" d="M190.5,481.8c-1.5,0.5-1.8,2.4-0.6,3.4c0.5,0.4,1.2,0.5,1.8,0.3c1.5-0.5,1.8-2.4,0.6-3.4
					C191.8,481.7,191.1,481.6,190.5,481.8z"/>
				<path class="st34" d="M190.3,484.9c0.5,0.4,1.2,0.5,1.8,0.3c0.1,0,0.2-0.1,0.3-0.2c-0.2,0.2-0.4,0.3-0.7,0.4
					c-0.6,0.2-1.3,0.1-1.8-0.3c-1.1-0.9-0.9-2.6,0.2-3.2C189.3,482.7,189.3,484.1,190.3,484.9z"/>
				<path class="st35" d="M192,482.8c-0.6,0.2-0.7,0.9-0.2,1.3c0.2,0.2,0.5,0.2,0.7,0.1c0.6-0.2,0.7-0.9,0.2-1.3
					C192.5,482.7,192.2,482.7,192,482.8z"/>
			</g>
		</g>
	</g>
	<path class="st3" d="M77.2,450.3c0,1.1-0.4,2.2-1.1,3v-6.1C76.8,448.1,77.2,449.1,77.2,450.3z"/>
	<path class="st3" d="M76.1,552.6c0.7,0.8,1.1,1.9,1.1,3c0,1.2-0.4,2.2-1.1,3V552.6z"/>
	<path class="st21" d="M103.7,486.1v37.8c-1.9-0.7-3.3-2.5-3.3-4.6V516H76.1v-22h24.4v-3.3C100.5,488.6,101.8,486.8,103.7,486.1z"/>
	<rect x="80.4" y="246" class="st3" width="19" height="435.4"/>
	<g>
		<g>
			<path class="st4" d="M137.6,733.2h-8.5c-38.7,0-50.1-21.5-50.1-60.1v-17.4h22v17.4c0,26.5,1.6,38.1,28.1,38.1h8.5V733.2z"/>
		</g>
		<rect x="129.9" y="711.2" class="st5" width="7.7" height="22"/>
		<rect x="78.9" y="655.7" class="st5" width="22" height="8.5"/>
		<g>
			<path class="st4" d="M142.9,737v-30.3c0-3-2.5-5.5-5.5-5.5s-5.5,2.5-5.5,5.5V737c0,3,2.5,5.5,5.5,5.5S142.9,740,142.9,737z"/>
			<path class="st4" d="M110,655.7c0-3-2.5-5.5-5.5-5.5H74.2c-3,0-5.5,2.5-5.5,5.5c0,3,2.5,5.5,5.5,5.5h30.3
				C107.5,661.2,110,658.7,110,655.7z"/>
		</g>
	</g>
	<path class="st6" d="M66.9,110.7V256h-8.1c-4.7,0-8.7-2.5-10.9-6.3V117c2.2-3.8,6.2-6.3,10.9-6.3H66.9z"/>
	<rect x="80.4" y="246" class="st9" width="19" height="10"/>
	<path class="st36" d="M136.4,246H58.7c-6.9,0-12.6-5.6-12.6-12.6V113.3c0-6.9,5.6-12.6,12.6-12.6h77.6c6.9,0,12.6,5.6,12.6,12.6
		v120.2C148.9,240.4,143.3,246,136.4,246z"/>
	<path class="st0" d="M135.8,120.1v22.6c0,3.5-2.7,6.4-6.1,6.8c-0.2,0-0.4,0-0.7,0H67.2c-3.7,0-6.8-3-6.8-6.8v-22.6
		c0-3.7,3-6.8,6.8-6.8H129C132.8,113.3,135.8,116.4,135.8,120.1z"/>
	<path class="st4" d="M135.8,204.5v22.6c0,3.5-2.7,6.4-6.1,6.8c-0.2,0-0.4,0-0.7,0H67.2c-3.7,0-6.8-3-6.8-6.8v-22.6
		c0-3.7,3-6.8,6.8-6.8H129C132.8,197.7,135.8,200.7,135.8,204.5z"/>
	<path class="st37" d="M99.9,149.5h-3.4L87.8,129c-0.1-0.3,0-0.7,0.3-0.8c0.1,0,0.2-0.1,0.3-0.1c0.2,0,0.4,0.1,0.6,0.3L99.9,149.5z"
		/>
	<path class="st0" d="M135.8,162.7v22.6c0,3.5-2.7,6.4-6.1,6.8c-0.2,0-0.4,0-0.7,0H67.2c-3.7,0-6.8-3-6.8-6.8v-22.6
		c0-3.8,3-6.8,6.8-6.8H129C132.8,155.9,135.8,158.9,135.8,162.7z"/>
	<path class="st37" d="M108.9,167.3c0,0.1,0,0.2,0,0.2l-10.2,24.5h-3.8l12.9-25.1c0.2-0.3,0.5-0.4,0.8-0.3
		C108.7,166.8,108.9,167.1,108.9,167.3z"/>
	<g>
		<path class="st37" d="M99,118.7c-16.9,0-30.7,13.8-30.7,30.8h1.4c0-16.3,13.2-29.5,29.3-29.5c16.2,0,29.3,13.2,29.3,29.5h0.7
			c0.2,0,0.5,0,0.7,0C129.7,132.5,115.9,118.7,99,118.7z"/>
	</g>
	<g>
		<path class="st37" d="M125.7,176.9c-5.3-9.4-15.3-15.7-26.7-15.7c-11.5,0-21.5,6.3-26.7,15.7c-2.5,4.5-4,9.6-4,15.1h1.4
			c0-5.5,1.5-10.7,4.2-15.1c5.1-8.6,14.5-14.3,25.2-14.3c10.7,0,20,5.8,25.2,14.3c2.7,4.4,4.2,9.6,4.2,15.1h0.7c0.2,0,0.5,0,0.7,0
			C129.7,186.6,128.2,181.4,125.7,176.9z"/>
	</g>
	<g>
		<path class="st36" d="M123.2,224.9c-0.2,0-0.4,0-0.6-0.1c-1-0.4-1.7-1.7-1.9-2.1l-4.3-9.9c-2.2,3.6-3.9,7.4-5,11.5
			c0,0.2-0.2,0.3-0.3,0.3c-0.1,0.1-0.3,0-0.4,0c-1.9-1.1-3.5-2.7-4.6-4.6l-1.7,3.9c-0.1,0.2-0.2,0.3-0.4,0.3c-0.2,0-0.3-0.1-0.5-0.2
			l-2.6-3.4c-0.6,1.4-1.4,2.8-2.4,3.9c-0.1,0.1-0.3,0.2-0.5,0.2c-0.2,0-0.3-0.1-0.4-0.3c-1.9-4.6-4.2-9.1-6.7-13.5l-3.4,8.4
			c-0.3,0.8-1,1.8-1.8,2c-0.4,0.1-0.8,0.1-1.2-0.2c-0.1-0.1-0.2-0.1-0.2-0.2c-0.7-1.9-1.6-3.9-2.5-5.7c-0.8,2.4-1.7,4.7-2.8,6.9
			c-0.1,0.2-0.3,0.3-0.5,0.3c-0.2,0-0.4-0.2-0.4-0.4c-1.1-4.1-2.6-8.1-4.6-11.8l-1.8,5.6c-0.2,0.7-0.5,1.5-1.1,2.1
			c-0.6,0.5-1.3,0.7-2.1,0.9c-4.1,0.9-8.5,1.5-13.1,1.8c-0.1,0-0.1,0-0.2,0H55c-0.3,0-0.5-0.2-0.5-0.5c0-0.3,0.2-0.5,0.5-0.5
			c4.7-0.3,9.2-0.9,13.4-1.8c0.7-0.1,1.2-0.3,1.6-0.6c0.4-0.4,0.6-1,0.8-1.6l2.1-6.8c0.1-0.2,0.2-0.3,0.4-0.3c0.2,0,0.4,0.1,0.5,0.3
			c2,3.8,3.7,7.7,4.9,11.8c1-2.2,1.8-4.4,2.5-6.7c0.1-0.2,0.2-0.3,0.4-0.4c0.2,0,0.4,0.1,0.5,0.2c1.2,2.1,2.3,4.4,3.1,6.7
			c0.1,0,0.2,0,0.2,0c0.4-0.1,0.9-0.7,1.2-1.4l3.8-9.3c0.1-0.2,0.2-0.3,0.4-0.3c0.2,0,0.4,0.1,0.5,0.2c2.6,4.4,4.9,9,6.9,13.7
			c0.9-1.1,1.6-2.4,2-3.8c0.1-0.2,0.2-0.3,0.4-0.3c0.2,0,0.4,0,0.5,0.2l2.7,3.5l1.8-4c0.1-0.2,0.3-0.3,0.4-0.3
			c0.2,0,0.4,0.1,0.5,0.3c1,1.9,2.4,3.5,4.2,4.7c1.2-4.2,3-8.2,5.4-11.9c0.1-0.2,0.3-0.2,0.5-0.2c0.2,0,0.3,0.1,0.4,0.3l4.7,10.8
			c0.3,0.8,0.9,1.4,1.3,1.6c0.1,0,0.2,0,0.3,0c0.7-2.8,1.9-5.6,3.6-8c0.1-0.1,0.3-0.2,0.4-0.2c0.2,0,0.3,0.1,0.4,0.3
			c0.9,1.8,1.9,3.5,3.1,5.2c0.6-2,1.4-3.9,2.5-5.6c0.1-0.1,0.2-0.2,0.3-0.2c0.1,0,0.3,0,0.4,0.1c2.8,1.8,6.3,2.5,9.6,2
			c0.3,0,0.5,0.1,0.6,0.4c0,0.3-0.1,0.5-0.4,0.6c-3.4,0.6-6.9-0.1-9.9-1.9c-1.1,1.8-1.9,3.8-2.4,5.9c0,0.2-0.2,0.3-0.4,0.4
			c-0.2,0-0.4,0-0.5-0.2c-1.3-1.7-2.4-3.5-3.4-5.4c-1.4,2.2-2.4,4.7-3,7.2c0,0.1-0.1,0.3-0.3,0.3
			C123.7,224.9,123.5,224.9,123.2,224.9z"/>
	</g>
	<path class="st23" d="M116.8,642.5c7.6-4.7,15-9.9,22.1-15.4c5-3.9,11-8.3,17.2-6.7c2,0.5,3.9,1.7,5.8,2.5
		c4.6,1.9,10.5,1.4,13.8-2.3c3.3-3.7,2.2-10.8-2.6-12.3c4.7-0.1,9.4-2.7,11.6-6.8s1.8-9.7-1.5-13.1c-3.3-3.4-9.1-4-12.8-1.1
		c0.9-5.1-3.3-10.5-8.5-10.9c-5.2-0.4-10.2,4.2-10.2,9.4c-1-3.8-6.1-5.5-9.6-3.7c-3.5,1.8-5.3,6.1-4.9,10c0.3,3.9,2.3,7.6,4.7,10.7
		c0.8,1,1.6,2.1,1.8,3.4c0.1,1.3-0.5,2.6-1.1,3.8C135.6,621.9,123.1,630.1,116.8,642.5z"/>
</g>
</svg>
