<?xml version="1.0" encoding="utf-8"?>
<!-- Generator: Adobe Illustrator 19.2.1, SVG Export Plug-In . SVG Version: 6.00 Build 0)  -->
<svg version="1.1" id="Слой_1" xmlns="http://www.w3.org/2000/svg" xmlns:xlink="http://www.w3.org/1999/xlink" x="0px" y="0px"
	 viewBox="0 0 467 500" style="enable-background:new 0 0 467 500;" xml:space="preserve">
<style type="text/css">
	.st0{fill:#FAB650;}
	.st1{opacity:0.8;fill:#E95225;enable-background:new    ;}
	.st2{fill:#E95225;}
	.st3{fill:#30B08A;}
	.st4{fill:#015328;}
	.st5{fill:#B2581B;}
	.st6{fill:#888888;}
	.st7{fill:none;stroke:#B2581B;stroke-width:8;stroke-miterlimit:10;}
	.st8{fill:#FFFFFF;}
</style>
<g>
	<polygon class="st0" points="222.8,314.2 222.8,157.4 314.2,157.4 314.2,0 0,0 0,314.2 126.8,314.2 	"/>
	<polygon class="st1" points="467,157.4 314.2,157.4 314.2,314.7 314.2,402.4 467,402.4 	"/>
	<polygon class="st2" points="222.8,314.2 313.4,314.2 314.2,314.2 314.2,157.4 222.8,157.4 	"/>
	<polygon class="st3" points="223.2,314.2 126.8,314.2 126.8,500.5 314.2,500.5 314.2,401.6 223.2,401.6 	"/>
	<rect x="222.8" y="314.2" class="st4" width="91.5" height="88.3"/>
</g>
<path class="st5" d="M230.5,129c0-16.5,12.1-29.8,29.4-29.8c17,0,28.5,12.7,28.5,31.3v3.3h-42.3c0.9,7.2,6.7,13.2,16.4,13.2
	c4.8,0,11.5-2.1,15.2-5.7l6.6,9.7c-5.7,5.2-14.6,7.9-23.4,7.9C243.6,159,230.5,147.3,230.5,129z M260,111.1c-9.3,0-13.3,6.9-14,12.6
	h28C273.6,118.3,269.9,111.1,260,111.1z"/>
<path class="st6" d="M314.3,150.2v29h-15v-78.6h15v7.2c4.4-5.5,10.6-8.6,17.6-8.6c14.6,0,25.2,10.8,25.2,29.8
	c0,19-10.6,29.9-25.2,29.9C325.1,159,318.9,156.1,314.3,150.2z M341.5,129c0-9.8-5.8-16.5-14.4-16.5c-4.8,0-10.4,2.8-12.8,6.5v20.1
	c2.5,3.5,8,6.5,12.8,6.5C335.7,145.7,341.5,138.9,341.5,129z"/>
<path class="st6" d="M368,157.6V79h15v78.6H368z"/>
<path class="st6" d="M394.1,129c0-16.1,11.3-29.8,30-29.8c18.8,0,30.2,13.7,30.2,29.8c0,16.3-11.3,29.9-30.2,29.9
	C405.5,159,394.1,145.3,394.1,129z M438.8,129c0-8.8-5.3-16.5-14.6-16.5c-9.3,0-14.5,7.7-14.5,16.5c0,9,5.2,16.6,14.5,16.6
	C433.5,145.7,438.8,138,438.8,129z"/>
<g>
	<path class="st2" d="M340.7,356.5c0-10.1,6.6-18.2,17.2-18.2s17.2,8.1,17.2,18.2c0,10.1-6.6,18.3-17.2,18.3
		S340.7,366.6,340.7,356.5z M369.4,356.5c0-7.1-4.1-13.4-11.5-13.4c-7.4,0-11.6,6.3-11.6,13.4c0,7.1,4.2,13.5,11.6,13.5
		C365.3,370,369.4,363.6,369.4,356.5z"/>
	<path class="st2" d="M383.9,373.9v-34.8h5.4v5.6c2.8-3.7,6.8-6.3,11.6-6.3v5.5c-0.6-0.1-1.3-0.2-2.2-0.2c-3.3,0-7.8,2.7-9.4,5.5
		v24.6H383.9z"/>
	<path class="st2" d="M407.6,382.8l2.7-4c2.9,3.5,6.3,4.8,11.3,4.8c5.8,0,11.2-2.8,11.2-10.4v-5c-2.5,3.5-6.8,6.2-11.7,6.2
		c-9.1,0-15.5-6.8-15.5-18c0-11.2,6.3-18.1,15.5-18.1c4.7,0,8.9,2.3,11.7,6.1v-5.3h5.4v33.8c0,11.5-8.1,15.1-16.6,15.1
		C415.7,388,411.7,386.9,407.6,382.8z M432.8,363.9v-15.2c-1.9-3-6-5.6-10.4-5.6c-7,0-11.2,5.5-11.2,13.2c0,7.6,4.2,13.2,11.2,13.2
		C426.8,369.6,430.9,366.9,432.8,363.9z"/>
</g>
<g>
	<path class="st4" d="M179,459.6v-3.3c-1.8,2-4.8,3.8-8.3,3.8c-4.8,0-7.4-2.4-7.4-7.4v-16.4h3.6v15.3c0,4.1,2.1,5.3,5.2,5.3
		c2.8,0,5.5-1.6,6.9-3.5v-17h3.6v23.2H179z"/>
	<path class="st4" d="M204.3,459.6V457c-1.9,2.1-4.6,3.2-7.7,3.2c-3.9,0-8.1-2.6-8.1-7.7c0-5.2,4.2-7.6,8.1-7.6c3.2,0,5.8,1,7.7,3.2
		v-4.2c0-3.1-2.5-4.9-5.9-4.9c-2.8,0-5,1-7.1,3.2l-1.7-2.5c2.5-2.6,5.5-3.8,9.3-3.8c4.9,0,9,2.2,9,7.8v15.9H204.3z M204.3,454.7
		v-4.4c-1.4-1.9-3.8-2.9-6.4-2.9c-3.4,0-5.7,2.1-5.7,5.1c0,2.9,2.4,5,5.7,5C200.5,457.6,203,456.6,204.3,454.7z"/>
</g>
<g>
	<path class="st5" d="M109.7,67.1h32.4v50.7H209v30.4h-66.9v79.5c0,28.8,9.3,45.4,32.4,45.4c12.6,0,22.3-5.3,28.8-10.1l10.1,25.1
		c-9.7,8.1-26.4,15.4-46.6,15.4c-41,0-57.2-26-57.2-72.6V67.1z"/>
</g>
<circle class="st7" cx="72.3" cy="88.7" r="16.7"/>
<path class="st5" d="M299.3,179.2v-78.6h15v78.6H299.3z"/>
<path class="st8" d="M299.3,179.2v-22.1h15v22.1H299.3z"/>
</svg>
