<?xml version="1.0" encoding="utf-8"?>
<!-- Generator: Adobe Illustrator 19.2.1, SVG Export Plug-In . SVG Version: 6.00 Build 0)  -->
<svg version="1.1" id="Слой_1" xmlns="http://www.w3.org/2000/svg" xmlns:xlink="http://www.w3.org/1999/xlink" x="0px" y="0px"
	 viewBox="0 0 422.1 800" style="enable-background:new 0 0 422.1 800;" xml:space="preserve">
<style type="text/css">
	.st0{fill:#72B0CC;}
	.st1{fill:#5192A9;}
	.st2{fill:#A1C3AB;}
	.st3{fill:#FAAF61;}
	.st4{fill:#F69E4E;}
	.st5{fill:#FFD37A;}
	.st6{opacity:0.46;fill:#FFD37A;enable-background:new    ;}
	.st7{fill:#F3B861;}
	.st8{fill:#FFFFFF;}
	.st9{fill:#E2E3E4;}
	.st10{fill:#D67C61;}
	.st11{fill:#FFCF78;}
	.st12{fill:#E7B057;}
	.st13{fill:#FFDE8F;}
	.st14{fill:#80301A;}
	.st15{fill:#FDC26B;}
	.st16{fill:#EA9D40;}
	.st17{fill:#EB9039;}
	.st18{fill:#FDC880;}
	.st19{opacity:0.47;fill:#F1B670;enable-background:new    ;}
	.st20{fill:#FDD199;}
	.st21{opacity:0.36;fill:#D4D6D7;enable-background:new    ;}
	.st22{fill:#7FA492;}
	.st23{fill:#DA684B;}
	.st24{fill:#FAEFDE;}
	.st25{fill:#484035;}
</style>
<g id="Background">
</g>
<rect x="217.5" class="st0" width="19" height="800"/>
<path class="st1" d="M236.5,712v88h-5.4v-15.6H226c-3.1,0-5.5-2.5-5.5-5.5s2.5-5.5,5.5-5.5h3.6v-11.9c0-19.6-0.9-31.1-12.1-35.7
	v-22.9c0.1,0,0.2,0,0.2,0C225.5,704.6,231.7,707.7,236.5,712z"/>
<rect x="235.1" y="753.2" class="st2" width="19" height="46.8"/>
<rect y="702.6" class="st2" width="272.1" height="19"/>
<g>
	<g>
		<path class="st3" d="M196.9,701.3h8.5c38.7,0,50.1,21.5,50.1,60.1v17.4h-22v-17.4c0-26.5-1.6-38.1-28.1-38.1h-8.5V701.3z"/>
	</g>
	<rect x="196.9" y="701.3" class="st4" width="7.7" height="22"/>
	<rect x="233.6" y="770.4" class="st4" width="22" height="8.5"/>
	<g>
		<path class="st3" d="M191.6,697.6v30.3c0,3,2.5,5.5,5.5,5.5s5.5-2.5,5.5-5.5v-30.3c0-3-2.5-5.5-5.5-5.5
			C194.1,692,191.6,694.5,191.6,697.6z"/>
		<path class="st3" d="M224.5,778.9c0,3,2.5,5.5,5.5,5.5h30.3c3,0,5.5-2.5,5.5-5.5s-2.5-5.5-5.5-5.5H230
			C227,773.4,224.5,775.8,224.5,778.9z"/>
	</g>
</g>
<rect y="157.9" class="st2" width="374" height="19"/>
<g>
	<g>
		<path class="st3" d="M353.2,178.2h8.5c38.7,0,50.1-21.5,50.1-60.1v-17.4h-22v17.4c0,26.5-1.6,38.1-28.1,38.1h-8.5V178.2z"/>
	</g>
	<rect x="353.2" y="156.2" class="st4" width="7.7" height="22"/>
	<rect x="389.8" y="100.7" class="st4" width="22" height="8.5"/>
	<g>
		<path class="st3" d="M347.9,182v-30.3c0-3,2.5-5.5,5.5-5.5s5.5,2.5,5.5,5.5V182c0,3-2.5,5.5-5.5,5.5S347.9,185.1,347.9,182z"/>
		<path class="st3" d="M380.8,100.7c0-3,2.5-5.5,5.5-5.5h30.3c3,0,5.5,2.5,5.5,5.5s-2.5,5.5-5.5,5.5h-30.3
			C383.2,106.2,380.8,103.7,380.8,100.7z"/>
	</g>
</g>
<rect x="322.8" class="st0" width="19" height="49.2"/>
<rect x="217.5" y="76.3" class="st1" width="19" height="27.9"/>
<rect y="80.7" class="st0" width="297.3" height="19"/>
<g>
	<g>
		<path class="st3" d="M284.7,101h8.5c38.7,0,50.1-21.5,50.1-60.1V23.5h-22v17.4c0,26.5-1.6,38.1-28.1,38.1h-8.5V101z"/>
	</g>
	<rect x="284.7" y="79" class="st4" width="7.7" height="22"/>
	<rect x="321.3" y="23.5" class="st4" width="22" height="8.5"/>
	<g>
		<path class="st3" d="M279.4,104.8V74.5c0-3,2.5-5.5,5.5-5.5s5.5,2.5,5.5,5.5v30.3c0,3-2.5,5.5-5.5,5.5
			C281.8,110.3,279.4,107.9,279.4,104.8z"/>
		<path class="st3" d="M312.3,23.5c0-3,2.5-5.5,5.5-5.5h30.3c3,0,5.5,2.5,5.5,5.5s-2.5,5.5-5.5,5.5h-30.3
			C314.7,29,312.3,26.5,312.3,23.5z"/>
	</g>
</g>
<rect x="257.7" y="495" class="st2" width="72.3" height="19"/>
<g>
	<rect x="216.6" y="450.3" class="st5" width="22" height="105.8"/>
	<rect x="216.6" y="494" class="st5" width="58.3" height="22"/>
	<rect x="216.6" y="548.8" class="st6" width="22" height="7.3"/>
	<path class="st5" d="M246.8,555.6c0,1.2-0.4,2.2-1.1,3c-0.1,0.1-0.2,0.3-0.3,0.4c-0.9,0.9-2.1,1.4-3.4,1.4h-28.6
		c-2.7,0-4.8-2.2-4.8-4.9c0-1.3,0.5-2.5,1.4-3.4s2.1-1.4,3.4-1.4H242c1.5,0,2.9,0.7,3.8,1.8C246.4,553.4,246.8,554.5,246.8,555.6z"
		/>
	<rect x="268.1" y="494" class="st6" width="6.9" height="22"/>
	<path class="st5" d="M279.8,490.7v28.6c0,2.7-2.2,4.8-4.8,4.8c-0.6,0-1.1-0.1-1.6-0.3c-1.9-0.7-3.3-2.5-3.3-4.6v-28.6
		c0-2.1,1.4-3.9,3.3-4.6c0.5-0.2,1-0.3,1.6-0.3C277.6,485.8,279.8,488,279.8,490.7z"/>
	<rect x="216.6" y="450.3" class="st6" width="22" height="7.8"/>
	<path class="st5" d="M246.8,450.3c0,1.1-0.4,2.2-1.1,3c-0.9,1.1-2.3,1.8-3.8,1.8h-28.6c-2.7,0-4.8-2.2-4.8-4.8
		c0-2.7,2.2-4.9,4.8-4.9h28.6c1.5,0,2.9,0.7,3.8,1.8C246.4,448.1,246.8,449.1,246.8,450.3z"/>
</g>
<g>
	<circle class="st7" cx="333.6" cy="502.6" r="37.2"/>
	<g>
		<circle class="st8" cx="333.6" cy="502.6" r="29.2"/>
		<path class="st9" d="M333.6,474.6c-15.9,0-28.9,12.8-29.2,28.6c0-0.2,0-0.4,0-0.6c0-16.1,13.1-29.2,29.2-29.2s29.2,13.1,29.2,29.2
			c0,0.2,0,0.4,0,0.6C362.5,487.4,349.6,474.6,333.6,474.6z"/>
		<path class="st10" d="M309.4,502.6c0,3.8,0.9,7.4,2.4,10.6H324c-2.9-2.6-4.7-6.4-4.7-10.6c0-1.4,0.2-2.7,0.6-4
			c1.7-6,7.3-10.4,13.8-10.4c7.9,0,14.4,6.4,14.4,14.4c0,4.2-1.8,8-4.7,10.6h12.1c1.6-3.2,2.4-6.8,2.4-10.6
			c0-13.4-10.8-24.2-24.2-24.2c-12,0-22,8.8-23.9,20.2C309.5,499.9,309.4,501.2,309.4,502.6z"/>
		<g>
			<path class="st11" d="M329.2,502.6c0-2.3,1.7-4.2,3.9-4.4l0.5-21.9h0.2l0.5,21.9c2.2,0.3,3.9,2.2,3.9,4.4c0,2.2-1.6,4-3.7,4.4
				l0.1,6.8h-1.9l0.1-6.8C330.8,506.6,329.2,504.8,329.2,502.6z"/>
			<ellipse class="st12" cx="333.7" cy="503.1" rx="2.6" ry="2.8"/>
			<circle class="st13" cx="333.7" cy="502.6" r="2.6"/>
		</g>
		<path class="st14" d="M309.4,502.6c0,3.8,0.9,7.4,2.4,10.6H324c-2.9-2.6-4.7-6.4-4.7-10.6c0-1.4,0.2-2.7,0.6-4h-10.1
			C309.5,499.9,309.4,501.2,309.4,502.6z"/>
	</g>
	<g>
		<g>
			<path class="st15" d="M331.5,469.1c-0.5,1.8,1.1,3.4,2.9,2.9c0.8-0.2,1.4-0.8,1.6-1.6c0.5-1.8-1.1-3.4-2.9-2.9
				C332.4,467.7,331.8,468.3,331.5,469.1z"/>
			<path class="st16" d="M331.5,469c-0.5,1.8,1.1,3.4,2.9,2.9c0.8-0.2,1.4-0.8,1.6-1.6c0.5-1.8-1.1-3.4-2.9-2.9
				C332.4,467.7,331.8,468.3,331.5,469z"/>
			<path class="st17" d="M333.1,467.6c-0.8,0.2-1.4,0.8-1.6,1.6c-0.1,0.2-0.1,0.4-0.1,0.6c0-0.2,0-0.5,0.1-0.8
				c0.2-0.8,0.8-1.4,1.6-1.6c1.6-0.5,3.1,0.8,3,2.3C336.1,468.3,334.7,467.2,333.1,467.6z"/>
			<path class="st18" d="M331.9,469.1c-0.4,1.5,0.9,2.8,2.4,2.4c0.6-0.2,1.1-0.7,1.3-1.3c0.4-1.5-0.9-2.8-2.4-2.4
				C332.6,468,332.1,468.5,331.9,469.1z"/>
			<path class="st19" d="M334.4,471.1c0.6-0.2,1.1-0.7,1.3-1.3c0-0.1,0.1-0.2,0.1-0.4c0,0.2,0,0.5-0.1,0.8c-0.2,0.6-0.7,1.1-1.3,1.3
				c-1.4,0.4-2.6-0.7-2.5-2.1C332,470.6,333.1,471.5,334.4,471.1z"/>
			<path class="st20" d="M333.6,468.5c-0.2,0.6,0.4,1.1,0.9,0.9c0.2-0.1,0.4-0.3,0.5-0.5c0.2-0.6-0.4-1.1-0.9-0.9
				C333.9,468.1,333.7,468.2,333.6,468.5z"/>
		</g>
		<g>
			<path class="st15" d="M309,479.9c0.9,1.7,3.2,1.7,4.1,0.1c0.4-0.7,0.4-1.5,0.1-2.2c-0.9-1.7-3.2-1.7-4.1-0.1
				C308.7,478.4,308.6,479.2,309,479.9z"/>
			<path class="st16" d="M309,479.9c0.9,1.7,3.2,1.7,4.1,0.1c0.4-0.7,0.4-1.5,0.1-2.2c-0.9-1.7-3.2-1.7-4.1-0.1
				C308.6,478.3,308.6,479.2,309,479.9z"/>
			<path class="st17" d="M309.1,477.8c-0.4,0.7-0.4,1.5-0.1,2.2c0.1,0.2,0.2,0.3,0.3,0.5c-0.2-0.2-0.3-0.4-0.5-0.6
				c-0.4-0.7-0.3-1.5,0.1-2.2c0.9-1.4,2.8-1.6,3.8-0.4C311.8,476.2,310,476.4,309.1,477.8z"/>
			<path class="st18" d="M309.3,479.7c0.7,1.4,2.6,1.4,3.4,0.1c0.3-0.6,0.3-1.3,0-1.8c-0.7-1.4-2.6-1.4-3.4-0.1
				C309,478.4,309,479.1,309.3,479.7z"/>
			<path class="st19" d="M312.5,479.5c0.3-0.6,0.3-1.3,0-1.8c-0.1-0.1-0.1-0.2-0.2-0.3c0.2,0.2,0.4,0.4,0.5,0.6
				c0.3,0.6,0.3,1.3,0,1.8c-0.7,1.2-2.4,1.3-3.2,0.2C310.4,480.7,311.8,480.6,312.5,479.5z"/>
			<path class="st20" d="M310.1,478.1c0.3,0.5,1,0.5,1.3,0c0.1-0.2,0.1-0.5,0-0.7c-0.3-0.5-1-0.5-1.3,0
				C310,477.6,310,477.8,310.1,478.1z"/>
		</g>
		<g>
			<path class="st15" d="M300.2,503.3c1.8,0.6,3.5-0.9,3.1-2.8c-0.2-0.8-0.8-1.4-1.5-1.6c-1.8-0.6-3.5,0.9-3.1,2.8
				C298.8,502.4,299.4,503,300.2,503.3z"/>
			<path class="st16" d="M300.1,503.3c1.8,0.6,3.5-0.9,3.1-2.8c-0.2-0.8-0.8-1.4-1.5-1.6c-1.8-0.6-3.5,0.9-3.1,2.8
				C298.8,502.4,299.3,503,300.1,503.3z"/>
			<path class="st17" d="M298.7,501.7c0.2,0.8,0.8,1.4,1.5,1.6c0.2,0.1,0.4,0.1,0.6,0.1c-0.2,0-0.5,0-0.8-0.1
				c-0.7-0.2-1.3-0.9-1.5-1.6c-0.4-1.6,0.9-3,2.5-2.9C299.6,498.7,298.4,500.1,298.7,501.7z"/>
			<path class="st18" d="M300.2,502.9c1.5,0.5,2.9-0.8,2.5-2.3c-0.1-0.6-0.6-1.2-1.2-1.4c-1.5-0.5-2.9,0.8-2.5,2.3
				C299.1,502.2,299.6,502.7,300.2,502.9z"/>
			<path class="st19" d="M302.3,500.6c-0.1-0.6-0.6-1.2-1.2-1.4c-0.1,0-0.2-0.1-0.4-0.1c0.2,0,0.5,0,0.8,0.1
				c0.6,0.2,1.1,0.7,1.2,1.4c0.3,1.4-0.8,2.6-2.2,2.4C301.7,502.9,302.6,501.8,302.3,500.6z"/>
			<path class="st20" d="M299.6,501.2c0.6,0.2,1.1-0.3,1-0.9c-0.1-0.2-0.2-0.4-0.5-0.5c-0.6-0.2-1.1,0.3-1,0.9
				C299.2,500.9,299.4,501.1,299.6,501.2z"/>
		</g>
		<g>
			<path class="st15" d="M309.9,526.3c1.7-0.8,1.9-3.1,0.3-4.1c-0.7-0.4-1.5-0.5-2.2-0.2c-1.7,0.8-1.9,3.1-0.3,4.1
				C308.3,526.6,309.2,526.7,309.9,526.3z"/>
			<path class="st16" d="M309.8,526.4c1.7-0.8,1.9-3.1,0.3-4.1c-0.7-0.4-1.5-0.5-2.2-0.2c-1.7,0.8-1.9,3.1-0.3,4.1
				C308.2,526.7,309.1,526.7,309.8,526.4z"/>
			<path class="st17" d="M307.7,526.1c0.7,0.4,1.5,0.5,2.2,0.2c0.2-0.1,0.4-0.2,0.5-0.3c-0.2,0.2-0.4,0.3-0.6,0.4
				c-0.7,0.3-1.6,0.3-2.2-0.2c-1.4-0.9-1.4-2.8-0.2-3.8C306.3,523.4,306.4,525.2,307.7,526.1z"/>
			<path class="st18" d="M309.6,526c1.4-0.7,1.6-2.6,0.2-3.4c-0.5-0.4-1.2-0.4-1.8-0.1c-1.4,0.7-1.6,2.6-0.2,3.4
				C308.3,526.2,309.1,526.3,309.6,526z"/>
			<path class="st19" d="M309.6,522.9c-0.5-0.4-1.2-0.4-1.8-0.1c-0.1,0.1-0.2,0.1-0.3,0.2c0.2-0.2,0.4-0.3,0.6-0.5
				c0.6-0.3,1.3-0.2,1.8,0.1c1.2,0.8,1.2,2.5,0.1,3.2C310.7,525,310.6,523.6,309.6,522.9z"/>
			<path class="st20" d="M308.1,525.2c0.5-0.3,0.6-1,0.1-1.3c-0.2-0.1-0.5-0.2-0.7-0.1c-0.5,0.3-0.6,1-0.1,1.3
				C307.6,525.3,307.8,525.3,308.1,525.2z"/>
		</g>
		<g>
			<path class="st15" d="M332.8,536.3c0.7-1.8-0.8-3.5-2.6-3.2c-0.8,0.1-1.4,0.7-1.7,1.4c-0.7,1.8,0.8,3.5,2.6,3.2
				C331.8,537.6,332.5,537,332.8,536.3z"/>
			<path class="st16" d="M332.8,536.4c0.7-1.8-0.8-3.5-2.6-3.2c-0.8,0.1-1.4,0.7-1.7,1.4c-0.7,1.8,0.8,3.5,2.6,3.2
				C331.8,537.7,332.5,537.1,332.8,536.4z"/>
			<path class="st17" d="M331.1,537.6c0.8-0.1,1.4-0.7,1.7-1.4c0.1-0.2,0.1-0.4,0.1-0.6c0,0.2-0.1,0.5-0.2,0.7
				c-0.3,0.7-0.9,1.3-1.7,1.4c-1.7,0.3-3-1.1-2.8-2.6C328.2,536.7,329.5,537.9,331.1,537.6z"/>
			<path class="st18" d="M332.4,536.2c0.6-1.5-0.6-2.9-2.2-2.7c-0.6,0.1-1.2,0.6-1.4,1.2c-0.6,1.5,0.6,2.9,2.2,2.7
				C331.6,537.3,332.2,536.8,332.4,536.2z"/>
			<path class="st19" d="M330.2,534c-0.6,0.1-1.2,0.6-1.4,1.2c0,0.1-0.1,0.2-0.1,0.4c0-0.2,0-0.5,0.1-0.8c0.2-0.6,0.8-1.1,1.4-1.2
				c1.4-0.3,2.5,1,2.3,2.3C332.5,534.7,331.5,533.8,330.2,534z"/>
			<path class="st20" d="M330.7,536.7c0.2-0.6-0.2-1.1-0.8-1c-0.2,0-0.5,0.2-0.5,0.4c-0.2,0.6,0.2,1.1,0.8,1
				C330.4,537.1,330.6,537,330.7,536.7z"/>
		</g>
		<g>
			<path class="st15" d="M356.3,527.7c-0.7-1.7-3-2-4.1-0.5c-0.5,0.6-0.6,1.5-0.3,2.2c0.7,1.7,3,2,4.1,0.5
				C356.5,529.3,356.6,528.4,356.3,527.7z"/>
			<path class="st16" d="M356.3,527.8c-0.7-1.7-3-2-4.1-0.5c-0.5,0.6-0.6,1.5-0.3,2.2c0.7,1.7,3,2,4.1,0.5
				C356.5,529.4,356.6,528.5,356.3,527.8z"/>
			<path class="st17" d="M356,529.9c0.5-0.6,0.6-1.5,0.3-2.2c-0.1-0.2-0.2-0.4-0.3-0.5c0.2,0.2,0.3,0.4,0.4,0.7
				c0.3,0.7,0.2,1.6-0.3,2.2c-1,1.4-2.9,1.3-3.8,0C353.2,531.2,355,531.2,356,529.9z"/>
			<path class="st18" d="M355.9,527.9c-0.6-1.4-2.5-1.7-3.4-0.4c-0.4,0.5-0.5,1.2-0.2,1.8c0.6,1.4,2.5,1.7,3.4,0.4
				C356.1,529.2,356.2,528.5,355.9,527.9z"/>
			<path class="st19" d="M352.8,527.9c-0.4,0.5-0.5,1.2-0.2,1.8c0,0.1,0.1,0.2,0.2,0.3c-0.2-0.2-0.3-0.4-0.4-0.7
				c-0.2-0.6-0.2-1.3,0.2-1.8c0.8-1.2,2.5-1.1,3.2,0.1C355,526.8,353.6,526.8,352.8,527.9z"/>
			<path class="st20" d="M355,529.5c-0.2-0.6-1-0.6-1.3-0.2c-0.1,0.2-0.2,0.5-0.1,0.7c0.2,0.6,1,0.6,1.3,0.2
				C355.1,530,355.1,529.7,355,529.5z"/>
		</g>
		<g>
			<path class="st15" d="M367.3,505.3c-1.7-0.8-3.6,0.6-3.3,2.5c0.1,0.8,0.6,1.5,1.3,1.8c1.7,0.8,3.6-0.6,3.3-2.5
				C368.6,506.3,368.1,505.6,367.3,505.3z"/>
			<path class="st16" d="M367.4,505.3c-1.7-0.8-3.6,0.6-3.3,2.5c0.1,0.8,0.6,1.5,1.3,1.8c1.7,0.8,3.6-0.6,3.3-2.5
				C368.7,506.3,368.1,505.6,367.4,505.3z"/>
			<path class="st17" d="M368.6,507.1c-0.1-0.8-0.6-1.5-1.3-1.8c-0.2-0.1-0.4-0.1-0.6-0.2c0.2,0,0.5,0.1,0.7,0.2
				c0.7,0.3,1.2,1,1.3,1.8c0.2,1.7-1.2,2.9-2.8,2.7C367.5,509.9,368.8,508.7,368.6,507.1z"/>
			<path class="st18" d="M367.3,505.7c-1.4-0.6-3,0.5-2.8,2c0.1,0.6,0.5,1.2,1.1,1.5c1.4,0.6,3-0.5,2.8-2
				C368.3,506.5,367.9,506,367.3,505.7z"/>
			<path class="st19" d="M364.9,507.8c0.1,0.6,0.5,1.2,1.1,1.5c0.1,0.1,0.2,0.1,0.3,0.1c-0.2,0-0.5-0.1-0.8-0.2
				c-0.6-0.3-1-0.8-1.1-1.5c-0.2-1.4,1.1-2.5,2.4-2.2C365.8,505.5,364.8,506.5,364.9,507.8z"/>
			<path class="st20" d="M367.7,507.4c-0.5-0.2-1.1,0.2-1.1,0.8c0,0.2,0.2,0.5,0.4,0.6c0.5,0.2,1.1-0.2,1.1-0.8
				C368.1,507.7,367.9,507.5,367.7,507.4z"/>
		</g>
		<g>
			<path class="st15" d="M359.9,481.4c-1.8,0.6-2.2,2.9-0.7,4.1c0.6,0.5,1.5,0.6,2.2,0.4c1.8-0.6,2.2-2.9,0.7-4.1
				C361.5,481.3,360.6,481.2,359.9,481.4z"/>
			<path class="st16" d="M360,481.4c-1.8,0.6-2.2,2.9-0.7,4.1c0.6,0.5,1.5,0.6,2.2,0.4c1.8-0.6,2.2-2.9,0.7-4.1
				C361.6,481.3,360.7,481.1,360,481.4z"/>
			<path class="st17" d="M362,481.9c-0.6-0.5-1.5-0.6-2.2-0.4c-0.2,0.1-0.4,0.2-0.5,0.3c0.2-0.1,0.4-0.3,0.7-0.4
				c0.7-0.3,1.6-0.1,2.2,0.4c1.3,1.1,1.1,3-0.2,3.8C363.2,484.7,363.3,482.9,362,481.9z"/>
			<path class="st18" d="M360.1,481.8c-1.5,0.5-1.8,2.4-0.6,3.4c0.5,0.4,1.2,0.5,1.8,0.3c1.5-0.5,1.8-2.4,0.6-3.4
				C361.4,481.7,360.7,481.6,360.1,481.8z"/>
			<path class="st19" d="M359.9,484.9c0.5,0.4,1.2,0.5,1.8,0.3c0.1,0,0.2-0.1,0.3-0.2c-0.2,0.2-0.4,0.3-0.7,0.4
				c-0.6,0.2-1.3,0.1-1.8-0.3c-1.1-0.9-0.9-2.6,0.2-3.2C358.9,482.7,358.9,484.1,359.9,484.9z"/>
			<path class="st20" d="M361.6,482.8c-0.6,0.2-0.7,0.9-0.2,1.3c0.2,0.2,0.5,0.2,0.7,0.1c0.6-0.2,0.7-0.9,0.2-1.3
				C362.1,482.7,361.8,482.7,361.6,482.8z"/>
		</g>
	</g>
</g>
<path class="st2" d="M246.8,450.3c0,1.1-0.4,2.2-1.1,3v-6.1C246.4,448.1,246.8,449.1,246.8,450.3z"/>
<path class="st2" d="M245.7,552.6c0.7,0.8,1.1,1.9,1.1,3c0,1.2-0.4,2.2-1.1,3V552.6z"/>
<path class="st21" d="M273.3,486.1v37.8c-1.9-0.7-3.3-2.5-3.3-4.6V516h-24.4v-22H270v-3.3C270.1,488.6,271.4,486.8,273.3,486.1z"/>
<rect x="250" y="246" class="st2" width="19" height="435.4"/>
<g>
	<g>
		<path class="st3" d="M307.2,733.2h-8.5c-38.7,0-50.1-21.5-50.1-60.1v-17.4h22v17.4c0,26.5,1.6,38.1,28.1,38.1h8.5V733.2z"/>
	</g>
	<rect x="299.5" y="711.2" class="st4" width="7.7" height="22"/>
	<rect x="248.5" y="655.7" class="st4" width="22" height="8.5"/>
	<g>
		<path class="st3" d="M312.5,737v-30.3c0-3-2.5-5.5-5.5-5.5s-5.5,2.5-5.5,5.5V737c0,3,2.5,5.5,5.5,5.5S312.5,740,312.5,737z"/>
		<path class="st3" d="M279.6,655.7c0-3-2.5-5.5-5.5-5.5h-30.3c-3,0-5.5,2.5-5.5,5.5s2.5,5.5,5.5,5.5h30.3
			C277.1,661.2,279.6,658.7,279.6,655.7z"/>
	</g>
</g>
<path class="st1" d="M236.5,110.7V256h-8.1c-4.7,0-8.7-2.5-10.9-6.3V117c2.2-3.8,6.2-6.3,10.9-6.3H236.5z"/>
<rect x="250" y="246" class="st22" width="19" height="10"/>
<path class="st23" d="M306,246h-77.6c-6.9,0-12.6-5.6-12.6-12.6V113.3c0-6.9,5.6-12.6,12.6-12.6H306c6.9,0,12.6,5.6,12.6,12.6v120.2
	C318.6,240.4,312.9,246,306,246z"/>
<path class="st24" d="M305.4,120.1v22.6c0,3.5-2.7,6.4-6.1,6.8c-0.2,0-0.4,0-0.7,0h-61.8c-3.7,0-6.8-3-6.8-6.8v-22.6
	c0-3.7,3-6.8,6.8-6.8h61.8C302.4,113.3,305.4,116.4,305.4,120.1z"/>
<path class="st3" d="M305.4,204.5v22.6c0,3.5-2.7,6.4-6.1,6.8c-0.2,0-0.4,0-0.7,0h-61.8c-3.7,0-6.8-3-6.8-6.8v-22.6
	c0-3.7,3-6.8,6.8-6.8h61.8C302.4,197.7,305.4,200.7,305.4,204.5z"/>
<path class="st25" d="M269.5,149.5h-3.4l-8.7-20.5c-0.1-0.3,0-0.7,0.3-0.8c0.1,0,0.2-0.1,0.3-0.1c0.2,0,0.4,0.1,0.6,0.3L269.5,149.5
	z"/>
<path class="st24" d="M305.4,162.7v22.6c0,3.5-2.7,6.4-6.1,6.8c-0.2,0-0.4,0-0.7,0h-61.8c-3.7,0-6.8-3-6.8-6.8v-22.6
	c0-3.8,3-6.8,6.8-6.8h61.8C302.4,155.9,305.4,158.9,305.4,162.7z"/>
<path class="st25" d="M278.5,167.3c0,0.1,0,0.2,0,0.2L268.3,192h-3.8l12.9-25.1c0.2-0.3,0.5-0.4,0.8-0.3
	C278.3,166.8,278.5,167.1,278.5,167.3z"/>
<g>
	<path class="st25" d="M268.6,118.7c-16.9,0-30.7,13.8-30.7,30.8h1.4c0-16.3,13.2-29.5,29.3-29.5c16.2,0,29.3,13.2,29.3,29.5h0.7
		c0.2,0,0.5,0,0.7,0C299.3,132.5,285.5,118.7,268.6,118.7z"/>
</g>
<g>
	<path class="st25" d="M295.3,176.9c-5.3-9.4-15.3-15.7-26.7-15.7c-11.5,0-21.5,6.3-26.7,15.7c-2.5,4.5-4,9.6-4,15.1h1.4
		c0-5.5,1.5-10.7,4.2-15.1c5.1-8.6,14.5-14.3,25.2-14.3s20,5.8,25.2,14.3c2.7,4.4,4.2,9.6,4.2,15.1h0.7c0.2,0,0.5,0,0.7,0
		C299.3,186.6,297.8,181.4,295.3,176.9z"/>
</g>
<g>
	<path class="st23" d="M292.8,224.9c-0.2,0-0.4,0-0.6-0.1c-1-0.4-1.7-1.7-1.9-2.1l-4.3-9.9c-2.2,3.6-3.9,7.4-5,11.5
		c0,0.2-0.2,0.3-0.3,0.3c-0.1,0.1-0.3,0-0.4,0c-1.9-1.1-3.5-2.7-4.6-4.6l-1.7,3.9c-0.1,0.2-0.2,0.3-0.4,0.3c-0.2,0-0.3-0.1-0.5-0.2
		l-2.6-3.4c-0.6,1.4-1.4,2.8-2.4,3.9c-0.1,0.1-0.3,0.2-0.5,0.2s-0.3-0.1-0.4-0.3c-1.9-4.6-4.2-9.1-6.7-13.5l-3.4,8.4
		c-0.3,0.8-1,1.8-1.8,2c-0.4,0.1-0.8,0.1-1.2-0.2c-0.1-0.1-0.2-0.1-0.2-0.2c-0.7-1.9-1.6-3.9-2.5-5.7c-0.8,2.4-1.7,4.7-2.8,6.9
		c-0.1,0.2-0.3,0.3-0.5,0.3s-0.4-0.2-0.4-0.4c-1.1-4.1-2.6-8.1-4.6-11.8l-1.8,5.6c-0.2,0.7-0.5,1.5-1.1,2.1
		c-0.6,0.5-1.3,0.7-2.1,0.9c-4.1,0.9-8.5,1.5-13.1,1.8c-0.1,0-0.1,0-0.2,0h-0.3c-0.3,0-0.5-0.2-0.5-0.5s0.2-0.5,0.5-0.5
		c4.7-0.3,9.2-0.9,13.4-1.8c0.7-0.1,1.2-0.3,1.6-0.6c0.4-0.4,0.6-1,0.8-1.6l2.1-6.8c0.1-0.2,0.2-0.3,0.4-0.3s0.4,0.1,0.5,0.3
		c2,3.8,3.7,7.7,4.9,11.8c1-2.2,1.8-4.4,2.5-6.7c0.1-0.2,0.2-0.3,0.4-0.4c0.2,0,0.4,0.1,0.5,0.2c1.2,2.1,2.3,4.4,3.1,6.7
		c0.1,0,0.2,0,0.2,0c0.4-0.1,0.9-0.7,1.2-1.4l3.8-9.3c0.1-0.2,0.2-0.3,0.4-0.3c0.2,0,0.4,0.1,0.5,0.2c2.6,4.4,4.9,9,6.9,13.7
		c0.9-1.1,1.6-2.4,2-3.8c0.1-0.2,0.2-0.3,0.4-0.3c0.2,0,0.4,0,0.5,0.2l2.7,3.5l1.8-4c0.1-0.2,0.3-0.3,0.4-0.3c0.2,0,0.4,0.1,0.5,0.3
		c1,1.9,2.4,3.5,4.2,4.7c1.2-4.2,3-8.2,5.4-11.9c0.1-0.2,0.3-0.2,0.5-0.2s0.3,0.1,0.4,0.3l4.7,10.8c0.3,0.8,0.9,1.4,1.3,1.6
		c0.1,0,0.2,0,0.3,0c0.7-2.8,1.9-5.6,3.6-8c0.1-0.1,0.3-0.2,0.4-0.2c0.2,0,0.3,0.1,0.4,0.3c0.9,1.8,1.9,3.5,3.1,5.2
		c0.6-2,1.4-3.9,2.5-5.6c0.1-0.1,0.2-0.2,0.3-0.2c0.1,0,0.3,0,0.4,0.1c2.8,1.8,6.3,2.5,9.6,2c0.3,0,0.5,0.1,0.6,0.4
		c0,0.3-0.1,0.5-0.4,0.6c-3.4,0.6-6.9-0.1-9.9-1.9c-1.1,1.8-1.9,3.8-2.4,5.9c0,0.2-0.2,0.3-0.4,0.4c-0.2,0-0.4,0-0.5-0.2
		c-1.3-1.7-2.4-3.5-3.4-5.4c-1.4,2.2-2.4,4.7-3,7.2c0,0.1-0.1,0.3-0.3,0.3C293.3,224.9,293.1,224.9,292.8,224.9z"/>
</g>
<path class="st8" d="M286.4,642.5c7.6-4.7,15-9.9,22.1-15.4c5-3.9,11-8.3,17.2-6.7c2,0.5,3.9,1.7,5.8,2.5c4.6,1.9,10.5,1.4,13.8-2.3
	s2.2-10.8-2.6-12.3c4.7-0.1,9.4-2.7,11.6-6.8c2.3-4.1,1.8-9.7-1.5-13.1c-3.3-3.4-9.1-4-12.8-1.1c0.9-5.1-3.3-10.5-8.5-10.9
	s-10.2,4.2-10.2,9.4c-1-3.8-6.1-5.5-9.6-3.7s-5.3,6.1-4.9,10c0.3,3.9,2.3,7.6,4.7,10.7c0.8,1,1.6,2.1,1.8,3.4
	c0.1,1.3-0.5,2.6-1.1,3.8C305.2,621.9,292.7,630.1,286.4,642.5z"/>
</svg>
