<?xml version="1.0" encoding="utf-8"?>
<!-- Generator: Adobe Illustrator 19.2.1, SVG Export Plug-In . SVG Version: 6.00 Build 0)  -->
<svg version="1.1" id="Слой_1" xmlns="http://www.w3.org/2000/svg" xmlns:xlink="http://www.w3.org/1999/xlink" x="0px" y="0px"
	 viewBox="0 0 328.7 800" style="enable-background:new 0 0 328.7 800;" xml:space="preserve">
<style type="text/css">
	.st0{fill:#A1C3AB;}
	.st1{fill:#FAAF61;}
	.st2{fill:#F69E4E;}
	.st3{fill:#CF6B49;}
	.st4{fill:#BD5538;}
	.st5{fill:#7FA492;}
	.st6{fill:#505B60;}
	.st7{fill:#FFD37A;}
	.st8{opacity:0.46;fill:#FFD37A;enable-background:new    ;}
	.st9{fill:#434D50;}
	.st10{fill:#8898A2;}
	.st11{fill:#A9B7C0;}
	.st12{fill:#738086;}
	.st13{fill:#FBBF83;}
	.st14{fill:#EA9447;}
	.st15{fill:#FCC07E;}
	.st16{fill:#FDCE8B;}
	.st17{opacity:0.36;fill:#D4D6D7;enable-background:new    ;}
	.st18{fill:#F3B861;}
	.st19{fill:#FFFFFF;}
	.st20{fill:#E2E3E4;}
	.st21{fill:#D67C61;}
	.st22{fill:#FFCF78;}
	.st23{
		fill:#E7B057;
		animation: gear 5s linear infinite;
		-webkit-animation: gear 5s linear infinite;
		}
		@-webkit-keyframes gear {
			from {
				transform: rotate(0deg);
			}
			to {
				transform: rotate(360deg);
			}
		}
	}
	.st24{fill:#FFDE8F;}
	.st25{fill:#80301A;}
	.st26{fill:#FDC26B;}
	.st27{fill:#EA9D40;}
	.st28{fill:#EB9039;}
	.st29{fill:#FDC880;}
	.st30{opacity:0.47;fill:#F1B670;enable-background:new    ;}
	.st31{fill:#FDD199;}
	.st32{fill:#A8675A;}
	.st33{fill:#8C554A;}
	.st34{fill:#CACCCE;}
	.st35{fill:#AAACAF;}
	.st36{fill:#FCBF6E;}
</style>
<g id="Background">
</g>
<g>
	<rect x="280.5" y="583.7" class="st0" width="19" height="216.2"/>
	<rect x="82.5" y="380.9" class="st0" width="19" height="125.8"/>
	<rect x="149.7" y="336.5" class="st0" width="179" height="19"/>
	<rect x="118.7" y="533.1" class="st0" width="144.4" height="19"/>
	<g>
		<g>
			<path class="st1" d="M242.3,531.8h8.5c38.7,0,50.1,21.5,50.1,60.1v17.4h-22V592c0-26.5-1.6-38.1-28.1-38.1h-8.5V531.8z"/>
		</g>
		<rect x="242.3" y="531.8" class="st2" width="7.7" height="22"/>
		<rect x="279" y="600.8" class="st2" width="22" height="8.5"/>
		<g>
			<path class="st1" d="M237,528v30.3c0,3,2.5,5.5,5.5,5.5s5.5-2.5,5.5-5.5V528c0-3-2.5-5.5-5.5-5.5S237,525,237,528z"/>
			<path class="st1" d="M269.9,609.4c0,3,2.5,5.5,5.5,5.5h30.3c3,0,5.5-2.5,5.5-5.5s-2.5-5.5-5.5-5.5h-30.3
				C272.4,603.9,269.9,606.3,269.9,609.4z"/>
		</g>
	</g>
	<rect x="248.7" class="st0" width="19" height="35.8"/>
	<rect x="285.1" y="67.4" class="st0" width="43.6" height="19"/>
	<g>
		<g>
			<path class="st1" d="M305.9,87.6h-8.5c-38.7,0-50.1-21.5-50.1-60.1V10.1h22v17.4c0,26.5,1.6,38.1,28.1,38.1h8.5V87.6z"/>
		</g>
		<rect x="298.2" y="65.6" class="st2" width="7.7" height="22"/>
		<rect x="247.2" y="10.1" class="st2" width="22" height="8.5"/>
		<g>
			<path class="st1" d="M311.2,91.4V61.1c0-3-2.5-5.5-5.5-5.5s-5.5,2.5-5.5,5.5v30.3c0,3,2.5,5.5,5.5,5.5
				C308.8,97,311.2,94.5,311.2,91.4z"/>
			<path class="st1" d="M278.3,10.1c0-3-2.5-5.5-5.5-5.5h-30.3c-3,0-5.5,2.5-5.5,5.5s2.5,5.5,5.5,5.5h30.3
				C275.9,15.6,278.3,13.2,278.3,10.1z"/>
		</g>
	</g>
	<g>
		<g>
			<path class="st3" d="M139.8,552.4h-8.5c-38.7,0-50.1-21.5-50.1-60.1v-17.4h22v17.4c0,26.5,1.6,38.1,28.1,38.1h8.5V552.4z"/>
		</g>
		<rect x="132" y="530.4" class="st4" width="7.7" height="22"/>
		<rect x="81.1" y="474.9" class="st4" width="22" height="8.5"/>
		<g>
			<path class="st3" d="M145.1,556.2v-30.3c0-3-2.5-5.5-5.5-5.5s-5.5,2.5-5.5,5.5v30.3c0,3,2.5,5.5,5.5,5.5S145.1,559.3,145.1,556.2
				z"/>
			<path class="st3" d="M112.2,474.9c0,2.7-1.9,4.9-4.4,5.4c-0.4,0.1-0.7,0.1-1.1,0.1H76.4c-3,0-5.5-2.5-5.5-5.5
				c0-3.1,2.5-5.5,5.5-5.5h30.3C109.7,469.4,112.2,471.8,112.2,474.9z"/>
		</g>
	</g>
	<g>
		<g>
			<path class="st3" d="M81.4,394v-8.5c0-38.7,21.5-50.1,60.1-50.1h17.4v22h-17.4c-26.5,0-38.1,1.6-38.1,28.1v8.5H81.4z"/>
		</g>
		<rect x="81.4" y="386.2" class="st4" width="22" height="7.7"/>
		<rect x="150.4" y="335.3" class="st4" width="8.5" height="22"/>
		<g>
			<path class="st3" d="M113.4,393.8c0,0.3,0,0.6-0.1,0.8c-0.4,2.7-2.7,4.7-5.4,4.7H77.6c-3,0-5.5-2.5-5.5-5.5
				c0-3.1,2.5-5.5,5.5-5.5h30.3C110.9,388.2,113.4,390.7,113.4,393.8z"/>
			<path class="st3" d="M158.9,366.4c3,0,5.5-2.5,5.5-5.5v-30.3c0-3-2.5-5.5-5.5-5.5s-5.5,2.5-5.5,5.5v30.3
				C153.4,363.9,155.9,366.4,158.9,366.4z"/>
		</g>
	</g>
	<path class="st1" d="M133.9,76.4l9.3-1.7l0.3-9.9l-9.3-2.2c-0.4-3.7-1.1-7.3-2.2-10.7l7.6-5.5l-4.1-9.1l-9.4,2
		c-1.9-3.1-4.1-6-6.6-8.7l4.5-8.3l-7.6-6.4l-7.5,5.9c-2.3-1.5-4.8-2.8-7.3-3.9c-0.8-0.4-1.6-0.7-2.4-1l0.4-9.5L90,4.9l-4.2,8.6
		c-1-0.1-2.1-0.2-3.1-0.3c-2.3-0.1-4.6-0.1-6.9,0l-3.6-8.8l-9.8,1.8l-0.2,9.6c-3.5,1.1-6.8,2.6-9.9,4.4l-7.1-6.3l-8,5.9l4,8.8
		c-2.6,2.5-5,5.3-7.1,8.3L25,34.3l-4.6,8.8l7.4,6.1c-0.6,1.7-1.2,3.5-1.7,5.4c-0.4,1.7-0.8,3.5-1.1,5.2l-9.4,1.6l-0.4,9.9l9.3,2.3
		c0.4,3.7,1.1,7.2,2.1,10.7l-7.7,5.5l4,9.1l9.4-2c1.9,3.1,4.1,6,6.6,8.7l-4.5,8.3l7.6,6.4l7.6-5.8c3,2,6.3,3.6,9.7,5l-0.5,9.4
		l9.6,2.5l4.3-8.6c3.4,0.4,6.7,0.5,10,0.3c0.3,0,0.6,0,0.9,0l3.7,8.7l9.7-1.9l0.1-9.5c1.5-0.5,3-1.1,4.5-1.8
		c1.9-0.8,3.7-1.7,5.5-2.8l7.1,6.2l7.9-6l-4-8.6c2.6-2.6,4.9-5.4,7-8.4l9.1,2.5l4.6-8.8l-7.4-6.1c0.6-1.6,1.1-3.3,1.5-4.9
		C133.2,80.2,133.6,78.3,133.9,76.4z M70.4,27.6c3.9-0.8,7.9-1.1,12.1-0.8c2.4,0.2,4.8,0.6,7.1,1.2c4.3,1.1,8.3,2.8,11.9,5.1
		c1.8,1.1,3.6,2.4,5.2,3.8c2.4,2,4.5,4.3,6.3,6.8l-11.4,6.8l-7.4,4.4c-0.5-0.6-1.1-1.1-1.6-1.6c-2.3-2-5.1-3.5-8.2-4.3
		c-0.6-0.2-1.2-0.3-1.8-0.4c-2.5-0.4-5.1-0.3-7.5,0.2c-0.7,0.2-1.5,0.4-2.2,0.6L61.7,30.6C64.4,29.3,67.4,28.3,70.4,27.6z
		 M41.4,86.1c-3.9-8.4-5.1-18.3-2.6-28S47,40.3,54.5,34.8l11.2,18.8c-2.8,2.5-4.9,5.9-5.9,9.8s-0.8,7.9,0.4,11.4L41.4,86.1z
		 M82.5,110.1c-4.4,0.3-9,0-13.5-1.2c-9.7-2.5-17.8-8.2-23.3-15.7L64.5,82c2.5,2.8,5.9,4.9,9.8,5.9c2.8,0.7,5.5,0.8,8.2,0.4
		c1.1-0.2,2.2-0.5,3.3-0.8L97,106.3C92.4,108.4,87.5,109.7,82.5,110.1z M119.7,78.8c-2.5,9.7-8.2,17.8-15.7,23.3l-2.6-4.3l-8.6-14.5
		c2.8-2.5,4.9-5.9,5.9-9.8s0.8-7.9-0.4-11.4l3.2-1.9l15.7-9.3C121.1,59.3,122.2,69.1,119.7,78.8z"/>
	<rect x="82.5" class="st0" width="19" height="214"/>
	<rect x="208.3" y="336.5" class="st5" width="28.7" height="19"/>
	<rect x="208.3" y="533.1" class="st5" width="28.7" height="19"/>
	<rect x="213.1" class="st0" width="19" height="799.3"/>
	<path class="st6" d="M318,229.5l1.8-7.9l-7.1-3.3c0.1-1.4,0.2-2.8,0.2-4.2c0-1.6-0.1-3.2-0.3-4.7l7-3.2l-1.8-7.9l-7.8,0.1
		c-1.1-2.8-2.4-5.5-4-8.1l4.9-6l-5.1-6.4l-7,3.5c-2.2-2.1-4.5-3.9-7.1-5.5l1.9-7.5l-7.3-3.6l-4.8,6.2c-2.8-0.9-5.7-1.6-8.8-1.9
		l-1.6-7.6H263l-1.6,7.7c-2.8,0.4-5.5,1-8,1.8l-4.7-6.2l-7,3.3l-0.4,0.2l0.1,0.4l1.7,7.3c-2.5,1.6-4.9,3.5-7,5.5l-4.1-2.1l-2.8-1.5
		l-5.2,6.3l4.9,6.2c-1.5,2.5-2.9,5.2-3.9,8l-7.8-0.2l-1.9,7.9l7.1,3.4c-0.2,1.5-0.2,3.1-0.2,4.6s0.1,2.9,0.2,4.3l-7.1,3.2l1.7,8h7.9
		c1,2.8,2.3,5.5,3.9,8.1l-5,5.9l5,6.4l3.2-1.5l3.9-1.9c2.1,2.1,4.5,4,7,5.6l-1.9,7.5l7.3,3.6l4.8-6.2c2.8,0.9,5.7,1.6,8.8,2l1.4,7
		l0.1,0.6l8.1,0.1l0.1-0.6l1.5-7c3-0.4,5.9-1.1,8.8-2l4.7,6.2l7.4-3.5l-1.8-7.6c2.5-1.6,4.9-3.5,7-5.6l6.9,3.5l5.1-6.3l-4.9-6.1
		c1.5-2.6,2.8-5.3,3.9-8.1L318,229.5z M252.3,183.3c4.6-2.3,9.8-3.6,15.3-3.6s10.7,1.3,15.3,3.6c2.3,1.1,4.4,2.5,6.4,4.1l-12.7,12.7
		c-0.5-0.3-1.1-0.7-1.6-0.9c-2.2-1.1-4.7-1.7-7.4-1.7s-5.2,0.6-7.4,1.7c-0.6,0.3-1.1,0.6-1.6,0.9l-12.7-12.7
		C247.9,185.9,250,184.5,252.3,183.3z M241.1,235.7c-4.8-5.9-7.8-13.5-7.8-21.7s2.9-15.8,7.8-21.7l12.7,12.7c-1.7,2.6-2.7,5.7-2.7,9
		s1,6.4,2.7,9L241.1,235.7z M267.7,248.3c-8.2,0-15.8-2.9-21.7-7.8l12.7-12.7c2.6,1.7,5.7,2.7,9,2.7s6.4-1,9-2.7l12.7,12.7
		C283.5,245.4,275.9,248.3,267.7,248.3z M294.2,235.7L281.5,223c1.7-2.6,2.7-5.7,2.7-9s-1-6.4-2.7-9l12.7-12.7
		c4.9,5.9,7.8,13.5,7.8,21.7S299,229.8,294.2,235.7z"/>
	<path class="st3" d="M328.7,123.4V112l-1.7,3.4c-1.9-0.2-3.8-0.3-5.7-0.1l-2-5l-5.5,1l-0.1,5.4c-2,0.6-3.8,1.5-5.6,2.5l-4-3.6
		l-4.5,3.3l2.3,5c-1.5,1.4-2.8,3-4,4.7l-5.2-1.5l-2.6,5l4.2,3.5c-0.4,1-0.7,2-0.9,3c-0.3,1-0.4,1.9-0.6,2.9l-5.3,0.9l-0.2,5.6
		l5.3,1.3c0.2,2.1,0.6,4.1,1.2,6l-4.4,3.1l2.3,5.1l5.3-1.1c1.1,1.8,2.3,3.4,3.7,4.9l-2.6,4.7l4.3,3.6l4.3-3.3
		c1.7,1.1,3.5,2.1,5.5,2.8l-0.3,5.3l5.4,1.4l2.4-4.8c2.1,0.3,4.2,0.3,6.2,0.2l2.1,4.9l0.8-0.2v-12.8c-3.5,0.8-7.3,0.8-11.1-0.1
		c-5.5-1.4-10.1-4.6-13.2-8.9l10.7-6.3c1.4,1.6,3.3,2.8,5.6,3.3c2.2,0.6,4.5,0.4,6.5-0.3l1.6,2.7V136c-0.8-0.4-1.6-0.7-2.4-0.9
		c-1.8-0.4-3.6-0.5-5.2-0.1c-0.4,0.1-0.8,0.2-1.3,0.3l-6.5-10.3c1.6-0.7,3.3-1.3,5-1.7C321.8,122.6,325.2,122.6,328.7,123.4z
		 M315.8,138.1c-1.6,1.4-2.8,3.3-3.3,5.6c-0.6,2.2-0.4,4.4,0.3,6.5l-10.7,6.3c-2.2-4.8-2.9-10.3-1.5-15.8s4.6-10.1,8.9-13.2
		L315.8,138.1z"/>
	<path class="st3" d="M237.9,149.8l9.3-1.7l0.3-9.9l-9.3-2.2c-0.4-3.7-1.1-7.3-2.3-10.7l7.6-5.5l-4.1-9.1l-7.4,1.6l-2,0.4
		c-1.9-3.1-4.1-6-6.6-8.7l4.5-8.3l-7.6-6.4L213,95l-0.3,0.2c-3-1.9-6.3-3.6-9.8-4.9l0.4-9.5l-9.6-2.5l-4.2,8.6
		c-3.4-0.4-6.8-0.5-10.1-0.2l-3.6-8.8l-9.8,1.8l-0.2,9.6c-3.5,1.2-6.8,2.6-9.9,4.4l-7.1-6.3l-8,5.9l4,8.8c-2.6,2.5-5,5.3-7,8.3
		l-9.1-2.6l-4.6,8.8l7.4,6.2c-0.6,1.7-1.2,3.5-1.7,5.4c-0.4,1.7-0.8,3.5-1.1,5.2l-9.4,1.6l-0.4,9.9l9.3,2.3
		c0.4,3.6,1.1,7.2,2.1,10.7l-7.7,5.5l4,9.1l9.4-2c1.9,3.1,4.1,6,6.6,8.7l-4.5,8.3l7.5,6.4l7.6-5.8c3,1.9,6.3,3.6,9.7,5l-0.5,9.4
		l9.6,2.5l4.3-8.6c3.7,0.5,7.3,0.6,10.9,0.3l3.7,8.7l9.8-1.9l0.1-9.6c3.5-1.2,6.8-2.7,10-4.5l2.1,1.9l4.9,4.3l7.9-5.9l-4-8.7
		c2.6-2.5,4.9-5.4,7-8.4l3.1,0.9l5.9,1.6l3.5-6.7l0.3-0.5l0.8-1.6l-7.4-6.1c0.6-1.6,1.1-3.3,1.5-4.9
		C237.3,153.6,237.6,151.7,237.9,149.8z M174.5,101c6.1-1.3,12.7-1.3,19.2,0.3c6.5,1.7,12.3,4.8,17,8.9c0.8,0.7,1.7,1.5,2.5,2.3
		c1.4,1.4,2.7,2.9,3.8,4.5l-3.8,2.3l-15,8.9c-0.5-0.6-1-1.1-1.6-1.6c-2.3-2-5.1-3.5-8.2-4.3c-3.1-0.8-6.3-0.8-9.2-0.2
		c-0.8,0.2-1.5,0.4-2.2,0.6l-11.2-18.8C168.5,102.6,171.4,101.6,174.5,101z M145.5,159.4c-3.9-8.4-5.1-18.3-2.6-28
		s8.2-17.8,15.7-23.3l11.2,18.8c-2.8,2.5-4.9,5.9-5.9,9.8s-0.8,7.9,0.5,11.4L145.5,159.4z M173,182.3c-9.7-2.5-17.8-8.2-23.3-15.7
		l18.9-11.2c2.5,2.8,5.9,4.9,9.8,5.9c3.9,1,7.9,0.8,11.4-0.4l11.2,18.8C192.5,183.6,182.7,184.8,173,182.3z M223.8,152.1
		c-1.9,7.4-5.7,13.8-10.7,18.9c-1.6,1.6-3.3,3.1-5,4.4l-11.2-18.8c2.8-2.6,4.9-5.9,5.9-9.8s0.8-7.9-0.5-11.4l10.8-6.4l8.1-4.8
		C225.1,132.6,226.3,142.4,223.8,152.1z"/>
	<rect x="213.1" y="262" class="st5" width="19" height="27"/>
	<rect x="149.7" y="266" class="st0" width="179" height="19"/>
	<rect x="120" y="428.3" class="st0" width="72.3" height="19"/>
	<g>
		<g>
			<path class="st1" d="M81,187.8v28.5c0,38.7,31.5,70.1,70.1,70.1h17.4v-22h-17.4c-26.5,0-48.1-21.6-48.1-48.1v-28.5L81,187.8
				L81,187.8z"/>
		</g>
		<rect x="81" y="187.8" class="st2" width="22" height="7.7"/>
		<rect x="160" y="264.5" class="st2" width="8.5" height="22"/>
		<g>
			<path class="st1" d="M77.2,182.5h30.3c3,0,5.5,2.5,5.5,5.5s-2.5,5.5-5.5,5.5H77.2c-3,0-5.5-2.5-5.5-5.5S74.1,182.5,77.2,182.5z"
				/>
			<path class="st1" d="M168.5,255.4c3,0,5.5,2.5,5.5,5.5v30.3c0,3-2.5,5.5-5.5,5.5s-5.5-2.5-5.5-5.5v-30.3
				C163,257.9,165.5,255.4,168.5,255.4z"/>
		</g>
	</g>
	<g>
		<rect x="211.5" y="383.5" class="st7" width="22" height="105.8"/>
		<rect x="175.2" y="427.2" class="st7" width="58.3" height="22"/>
		<rect x="211.5" y="482" class="st8" width="22" height="7.3"/>
		<path class="st7" d="M208.2,493.7h28.6c2.7,0,4.9-2.2,4.9-4.9l0,0c0-2.7-2.2-4.9-4.9-4.9h-28.6c-2.7,0-4.9,2.2-4.9,4.9l0,0
			C203.4,491.5,205.5,493.7,208.2,493.7z"/>
		<rect x="175.2" y="427.2" class="st8" width="6.8" height="22"/>
		<path class="st7" d="M175.2,457.4c2.7,0,4.9-2.2,4.9-4.9v-28.6c0-2.7-2.2-4.9-4.9-4.9s-4.9,2.2-4.9,4.9v28.6
			C170.3,455.2,172.5,457.4,175.2,457.4z"/>
		<rect x="211.5" y="383.5" class="st8" width="22" height="7.8"/>
		<path class="st7" d="M208.2,388.3h28.6c2.7,0,4.9-2.2,4.9-4.9s-2.2-4.9-4.9-4.9h-28.6c-2.7,0-4.9,2.2-4.9,4.9
			S205.5,388.3,208.2,388.3z"/>
	</g>
	<path class="st8" d="M233.5,436.6c-0.1-0.4-0.1-0.7-0.2-1l0,0l0,0l0,0c-0.3-1-0.7-1.9-1.2-2.8c0-0.1-0.1-0.1-0.1-0.2l1.5-1.5v-7.3
		l-3.8,3.8l-0.3,0.3l-1,1c-0.6-0.4-1.2-0.7-1.8-0.9l0,0c-0.4-0.2-0.9-0.3-1.4-0.4v-10.5c0-0.9,0-1.9-0.1-2.9c-0.1-2.5-0.3-5,0-7.4
		c0-0.4,0.1-0.7,0.1-1.1c0.1-0.3,3.9,0.8,6.9,1.6c0.5,0.2,1,0.3,1.4,0.4v-9.5c-0.5-0.1-0.9-0.3-1.4-0.4c-1.1-0.3-2.1-0.5-3.2-0.6
		c-2.1-0.3-4.2-0.5-6.3-0.5c-3.3,0-6.4,0.4-9.5,1.1c-0.6,0.1-1.1,0.3-1.6,0.4v9.3c0.5-0.2,1.1-0.4,1.6-0.5c2.3-0.6,4.6-1.1,6.9-1.4
		c0.1,0.5,0.1,1,0.1,1.5c0.4,5,0.1,10.1,0,15.2l0,0c0,0.9,0,1.8-0.1,2.7c0,0.2,0,0.4,0,0.6c0,0.5,0,1,0,1.5v0.4
		c-0.5,0.1-0.9,0.3-1.4,0.5c-0.6,0.2-1.2,0.5-1.8,0.9l-1-1l-0.3-0.3l-0.3-0.3l-0.2-0.2l-1.3-1.3l-0.6-0.6l-1.6-1.6v3.6h-3.6l3.4,3.4
		l0.2,0.2l1.1,1.1l0.2,0.2l0.4,0.4l0.1,0.1c0,0.1-0.1,0.1-0.1,0.2c-0.5,0.9-0.9,1.8-1.2,2.8l0,0l0,0l0,0c-0.2,0.9-0.3,1.8-0.3,2.7
		c0,0.1,0,0.2,0,0.3c0,0,0,0,0-0.1c0,1.3,0.3,2.6,0.7,3.7c0.2,0.6,0.5,1.1,0.8,1.6c0,0.1,0.1,0.1,0.1,0.2l-0.1,0.1l-0.3,0.3
		l-1.3,1.3l-0.2,0.2l-3.3,3.3h3.4v3.8c0.5-0.5,1.1-1.1,1.6-1.6l2.2-2.2l1.6-1.5c1,0.6,2.1,1.1,3.2,1.3v16.1c0,0.6,0.1,1.2,0.1,1.8
		c0,0.1,0,0.1,0,0.2l0,0c0,0.4,0,0.8,0,1.2c0,0.1,0,0.1,0,0.2c0,0.2,0,0.4-0.1,0.6c-0.1,0.5-0.3,0.9-0.6,1.1c-1,0.9-3,0.1-4.6-0.2
		c-0.6-0.1-1.1-0.3-1.7-0.4c-0.5-0.1-1.1-0.3-1.6-0.5v9.2c0.5,0.2,1.1,0.3,1.6,0.4c3.1,0.7,6.2,1.1,9.5,1.1c2.2,0,4.3-0.2,6.3-0.5
		c1.1-0.2,2.1-0.4,3.2-0.6c0.5-0.1,0.9-0.2,1.4-0.4V469c-0.5,0.2-0.9,0.3-1.4,0.5c-2.3,0.7-4.6,1.1-6.9,1.3c0.1,0,0.1-1,0.1-2.6
		c0-0.4,0-0.8,0-1.2l0,0c0-5.6-0.1-15.8-0.1-17.9V449c1.1-0.3,2.2-0.7,3.2-1.3l1.6,1.5l0.4,0.4c0,0,0.7,0.7,1.8,1.8
		c0.4,0.4,0.9,0.9,1.4,1.4v-7.3l-1.1-1.1l-0.3-0.3l-0.1-0.1c0-0.1,0.1-0.1,0.1-0.2c0.3-0.5,0.6-1,0.8-1.6c0.3-0.8,0.5-1.6,0.6-2.4
		c0.1-0.4,0.1-0.9,0.1-1.3c0,0,0,0,0,0.1c0-0.1,0-0.2,0-0.3C233.7,437.7,233.6,437.2,233.5,436.6z"/>
	<g>
		<polygon class="st6" points="250.8,410.9 247.2,407.4 246.8,407.8 241.3,413.4 230.1,424.5 225.1,429.5 225.1,398.2 220.1,398.2 
			220.1,429.5 198,407.4 194.5,410.9 194.9,411.3 211.7,428.1 219.1,435.5 211.7,443 194.9,459.7 194.5,460.1 198,463.6 
			220.1,441.5 220.1,472.8 225.1,472.8 225.1,441.5 230.1,446.5 246.8,463.2 247.2,463.6 250.8,460.1 226.2,435.5 		"/>
		<path class="st9" d="M246.8,407.8l-2.8,2.8l-0.8,0.8l0,0l-2,2c1.3,1.1,2.4,2.3,3.5,3.5l2.6-2.6l2.9-2.9
			C249.2,410.1,248.1,408.9,246.8,407.8z M222.6,398.8c-0.8,0-1.7,0-2.5,0.1v7.8c0.8-0.1,1.7-0.1,2.5-0.1s1.7,0,2.5,0.1v-7.8
			C224.3,398.8,223.5,398.8,222.6,398.8z M200.5,454.2l-2.5,2.5l-3,3c1.1,1.3,2.3,2.4,3.5,3.5l2.9-2.9l0.7-0.6l2-2
			C202.7,456.6,201.6,455.4,200.5,454.2z M247.3,456.7l-2.5-2.5c-1.1,1.3-2.2,2.5-3.5,3.5l2,2l0,0l0,0l3.6,3.6
			c1.3-1.1,2.4-2.3,3.5-3.5L247.3,456.7z M222.6,464.5c-0.8,0-1.7,0-2.5-0.1v7.8c0.8,0.1,1.7,0.1,2.5,0.1s1.7,0,2.5-0.1v-7.8
			C224.3,464.4,223.5,464.5,222.6,464.5z M198.5,407.8c-1.3,1.1-2.4,2.3-3.5,3.5l2.9,2.9l0,0l0.7,0.7l2,2c1.1-1.3,2.3-2.5,3.5-3.5
			L198.5,407.8z"/>
		<path class="st10" d="M262.9,434.8c0-0.3,0-0.5,0-0.7c0-0.1,0-0.1,0-0.2c0-0.3,0-0.5,0-0.8c-0.1-1.1-0.2-2.2-0.3-3.3
			c-0.1-0.5-0.1-0.9-0.2-1.4c-0.2-1-0.4-2-0.6-2.9c-0.1-0.3-0.2-0.6-0.3-1c-0.1-0.2-0.1-0.3-0.1-0.5c-0.1-0.2-0.1-0.4-0.2-0.6
			c-0.2-0.5-0.3-1-0.5-1.5s-0.4-0.9-0.5-1.4c-0.2-0.6-0.5-1.2-0.8-1.7c-0.1-0.3-0.3-0.6-0.4-1c-0.2-0.3-0.3-0.7-0.5-1
			c-0.1-0.3-0.3-0.5-0.4-0.8c-0.8-1.4-1.6-2.8-2.6-4c-0.1-0.2-0.3-0.4-0.5-0.6c-0.2-0.3-0.4-0.5-0.6-0.8c-0.2-0.3-0.4-0.6-0.7-0.8
			c-0.4-0.4-0.7-0.9-1.1-1.3c-0.4-0.5-0.9-0.9-1.3-1.4c-0.3-0.3-0.7-0.7-1-1c-0.1-0.1-0.2-0.2-0.4-0.3c-0.3-0.2-0.5-0.5-0.8-0.7
			c-0.4-0.3-0.8-0.7-1.2-1c-0.2-0.2-0.4-0.3-0.6-0.5s-0.4-0.3-0.6-0.5c-0.4-0.3-0.8-0.6-1.3-0.9c-0.4-0.3-0.9-0.6-1.4-0.9
			s-0.9-0.5-1.4-0.8c-0.2-0.1-0.4-0.3-0.7-0.4s-0.5-0.3-0.8-0.4c-0.4-0.2-0.8-0.4-1.2-0.6c-0.5-0.3-1.1-0.5-1.6-0.7
			c-1-0.4-2-0.8-3-1.1c-0.5-0.2-1-0.3-1.5-0.5c-0.1,0-0.2-0.1-0.3-0.1l-0.6-0.1c-0.2-0.1-0.4-0.1-0.6-0.1h-0.1
			c-0.3-0.1-0.6-0.1-0.8-0.2c-0.5-0.1-1-0.2-1.5-0.3c-0.4-0.1-0.7-0.1-1.1-0.2c-0.4-0.1-0.8-0.1-1.2-0.2c-0.9-0.1-1.8-0.2-2.7-0.2
			c-0.3,0-0.6,0-0.9,0c-0.4,0-0.8,0-1.2,0s-0.8,0-1.2,0c-0.3,0-0.6,0-0.9,0c-0.9,0-1.8,0.1-2.7,0.2c-0.4,0-0.8,0.1-1.2,0.2
			c-0.4,0-0.7,0.1-1.1,0.2c-0.5,0.1-1,0.2-1.5,0.3c-0.3,0.1-0.6,0.1-0.8,0.2c0,0,0,0-0.1,0c-0.2,0-0.4,0.1-0.6,0.1
			c-0.2,0.1-0.5,0.1-0.7,0.2c-0.1,0-0.2,0.1-0.4,0.1c-0.4,0.1-0.8,0.2-1.2,0.4c-0.5,0.1-1,0.3-1.4,0.5s-0.9,0.3-1.3,0.5
			c-0.4,0.2-0.8,0.3-1.3,0.5c-0.4,0.2-0.8,0.4-1.2,0.6s-0.8,0.4-1.2,0.6s-0.8,0.4-1.2,0.6c-0.6,0.4-1.3,0.7-1.9,1.1
			c-0.3,0.2-0.6,0.4-0.9,0.6c-0.3,0.2-0.6,0.5-1,0.7c-0.3,0.2-0.5,0.4-0.8,0.6c-0.7,0.5-1.4,1.1-2.1,1.7c-0.3,0.3-0.7,0.6-1,0.9
			s-0.7,0.6-1,0.9s-0.6,0.6-0.9,1c-0.1,0.1-0.2,0.3-0.4,0.4c-0.5,0.5-1,1.1-1.4,1.6c-0.3,0.4-0.6,0.7-0.8,1.1
			c-0.3,0.4-0.5,0.7-0.8,1.1c-0.8,1.1-1.5,2.3-2.2,3.5c-0.2,0.3-0.3,0.6-0.5,0.8c-0.2,0.4-0.4,0.8-0.6,1.3c-0.2,0.4-0.4,0.8-0.5,1.2
			c-0.1,0.3-0.2,0.5-0.3,0.8s-0.3,0.6-0.4,0.9c-0.1,0.4-0.3,0.7-0.4,1.1c-0.2,0.4-0.3,0.9-0.5,1.3c-0.1,0.3-0.2,0.5-0.3,0.8
			c-0.3,1.1-0.6,2.2-0.9,3.4c-0.1,0.4-0.1,0.7-0.2,1.1c-0.1,0.6-0.2,1.2-0.3,1.8c0,0.3-0.1,0.6-0.1,1c-0.1,0.7-0.1,1.4-0.2,2.2
			c0,0.5-0.1,1-0.1,1.6c0,0.3,0,0.5,0,0.8c0,0.2,0,0.4,0,0.6c0,0.5,0,1,0,1.4c0,0.6,0.1,1.1,0.1,1.7c0,0.4,0.1,0.8,0.1,1.2
			c0,0.1,0,0.2,0,0.3c0,0.1,0,0.2,0.1,0.4c0,0.2,0.1,0.5,0.1,0.7c0,0,0,0,0,0.1c0.1,0.4,0.2,0.9,0.2,1.3c0.1,0.4,0.2,0.8,0.3,1.2
			c0,0.1,0.1,0.3,0.1,0.4c0.2,0.8,0.4,1.6,0.6,2.4c0,0.1,0.1,0.2,0.1,0.4c0.1,0.3,0.2,0.5,0.3,0.8s0.2,0.5,0.3,0.8
			c0.3,0.8,0.6,1.5,0.9,2.2c0.2,0.4,0.4,0.8,0.5,1.2c0.2,0.4,0.4,0.8,0.6,1.2c0.3,0.6,0.6,1.2,0.9,1.7c0.4,0.7,0.9,1.4,1.3,2.2
			c0.2,0.3,0.4,0.7,0.7,1l0.1,0.1c0.3,0.4,0.6,0.9,1,1.3c0.4,0.5,0.7,0.9,1.1,1.4c0.1,0.1,0.3,0.3,0.4,0.4c0.2,0.2,0.4,0.4,0.6,0.6
			c0.5,0.5,1,1.1,1.5,1.6c0.2,0.2,0.5,0.5,0.7,0.7c0.3,0.3,0.6,0.6,1,0.9c0.3,0.3,0.6,0.5,0.9,0.7c0.5,0.4,1,0.8,1.4,1.2
			c0.5,0.3,0.9,0.7,1.4,1c0.3,0.2,0.6,0.4,1,0.7c0.3,0.2,0.7,0.4,1,0.6c0.4,0.2,0.8,0.5,1.1,0.7s0.6,0.3,0.9,0.5
			c0.3,0.2,0.7,0.4,1.1,0.5c0.3,0.2,0.6,0.3,0.9,0.4c0.3,0.1,0.5,0.3,0.8,0.4c0.2,0.1,0.4,0.2,0.6,0.2c0.3,0.1,0.6,0.3,1,0.4
			c0.8,0.3,1.5,0.6,2.3,0.8c0.4,0.1,0.8,0.2,1.2,0.3c0.1,0,0.3,0.1,0.4,0.1c0.2,0.1,0.5,0.1,0.7,0.2c0.2,0,0.4,0.1,0.6,0.1h0.1
			c0.3,0.1,0.6,0.1,0.8,0.2c0.5,0.1,1,0.2,1.5,0.3c0.4,0.1,0.7,0.1,1.1,0.2c0.4,0.1,0.8,0.1,1.2,0.2c0.9,0.1,1.8,0.2,2.7,0.2
			c0.3,0,0.6,0,0.9,0c0.4,0,0.8,0,1.2,0s0.8,0,1.2,0c0.3,0,0.6,0,0.9,0c0.9,0,1.8-0.1,2.7-0.2c0.4-0.1,0.8-0.1,1.2-0.2
			s0.7-0.1,1.1-0.2c0.5-0.1,1-0.2,1.5-0.3c0.3-0.1,0.6-0.1,0.8-0.2c0,0,0,0,0.1,0c0.2,0,0.4-0.1,0.6-0.1l0.6-0.1
			c0.1,0,0.2-0.1,0.3-0.1c0.5-0.1,1-0.3,1.6-0.5h0.1c0.1,0,0.3-0.1,0.4-0.1c0.2-0.1,0.5-0.2,0.7-0.2c0.1,0,0.3-0.1,0.4-0.1
			c0.5-0.2,1-0.4,1.5-0.6c0.1,0,0.1-0.1,0.2-0.1c0.4-0.2,0.9-0.4,1.3-0.6c0.4-0.2,0.8-0.4,1.2-0.6c0.7-0.3,1.3-0.7,1.9-1
			c0.4-0.2,0.8-0.4,1.1-0.7c0.4-0.3,0.9-0.6,1.3-0.9c0.4-0.3,0.9-0.6,1.3-0.9c0.3-0.2,0.6-0.4,0.8-0.6c0.5-0.4,1.1-0.9,1.6-1.3
			c0.3-0.2,0.5-0.5,0.8-0.7c0.7-0.6,1.3-1.2,1.9-1.8c0.3-0.3,0.6-0.6,0.8-0.9c0.3-0.4,0.6-0.7,1-1.1c0.3-0.4,0.7-0.8,1-1.2
			c0.3-0.4,0.7-0.9,1-1.3c0.1-0.1,0.2-0.2,0.3-0.4c0.3-0.4,0.6-0.9,0.9-1.3c0.5-0.8,0.9-1.5,1.4-2.3c0.2-0.4,0.4-0.7,0.6-1.1
			c0.1-0.1,0.1-0.2,0.1-0.3c0.2-0.5,0.5-1,0.7-1.4l0,0c0.2-0.5,0.4-1,0.6-1.5c0.1-0.4,0.3-0.7,0.4-1.1c0.1-0.4,0.3-0.7,0.4-1.1
			c0-0.1,0-0.1,0-0.2c0.1-0.4,0.2-0.7,0.4-1.1c0.1-0.2,0.1-0.4,0.2-0.6c0.1-0.2,0.1-0.4,0.2-0.6c0.2-0.5,0.3-1.1,0.4-1.6
			c0.1-0.3,0.1-0.5,0.2-0.8c0.1-0.3,0.1-0.5,0.2-0.8c0.2-1.1,0.3-2.2,0.5-3.3c0.1-0.6,0.1-1.1,0.1-1.7s0.1-1.1,0.1-1.7
			c0-0.2,0-0.4,0-0.6C262.9,435.3,262.9,435,262.9,434.8z M254.4,435.5c0,0.2,0,0.4,0,0.6v0.2c0,0.5,0,0.9-0.1,1.4
			c0,0.3,0,0.5-0.1,0.8c0,0.5-0.1,1-0.2,1.5c0,0.2-0.1,0.4-0.1,0.6s-0.1,0.4-0.1,0.5l0,0c-0.1,0.3-0.1,0.7-0.2,1v0.1
			c-0.1,0.3-0.1,0.5-0.2,0.7c-0.1,0.5-0.3,1-0.4,1.5c-0.1,0.4-0.2,0.8-0.4,1.1c-0.2,0.5-0.4,1-0.6,1.5c-0.2,0.6-0.5,1.2-0.8,1.8
			c-0.2,0.4-0.4,0.8-0.6,1.1c-0.6,1.2-1.3,2.4-2.1,3.5c-0.4,0.6-0.9,1.2-1.4,1.8c-0.2,0.3-0.4,0.5-0.6,0.8c-0.1,0.1-0.2,0.3-0.3,0.4
			c-0.2,0.2-0.4,0.5-0.6,0.7c-0.2,0.2-0.4,0.5-0.7,0.7c-0.2,0.1-0.3,0.3-0.5,0.5c-0.1,0.1-0.3,0.3-0.5,0.4c-0.3,0.3-0.6,0.5-0.8,0.8
			l-0.1,0.1l0,0l0,0l0,0c-0.4,0.3-0.8,0.6-1.2,0.9c-0.3,0.2-0.6,0.5-0.9,0.7c-0.3,0.2-0.6,0.5-1,0.7c-0.3,0.2-0.7,0.4-1,0.6
			s-0.6,0.3-0.8,0.5c-0.1,0.1-0.2,0.1-0.3,0.2c-0.2,0.1-0.4,0.2-0.7,0.4c-0.2,0.1-0.4,0.2-0.7,0.3c-1,0.5-2,0.9-3.1,1.3
			c-0.5,0.2-0.9,0.3-1.4,0.5c-0.3,0.1-0.6,0.2-0.9,0.3c-0.9,0.3-1.8,0.5-2.7,0.6c-0.4,0.1-0.7,0.1-1.1,0.2c-0.5,0.1-1,0.1-1.6,0.2
			c-0.2,0-0.3,0-0.5,0.1c-0.1,0-0.1,0-0.2,0l0,0c-0.3,0-0.5,0-0.8,0s-0.5,0-0.8,0c-0.1,0-0.2,0-0.3,0c-0.2,0-0.4,0-0.6,0
			s-0.4,0-0.6,0c-0.1,0-0.2,0-0.3,0c-0.2,0-0.4,0-0.6,0c-0.2,0-0.5,0-0.7,0c-0.1,0-0.1,0-0.2,0h-0.1c-0.2,0-0.5,0-0.7-0.1
			c-0.5,0-1.1-0.1-1.6-0.2c-0.4-0.1-0.7-0.1-1.1-0.2c-0.9-0.2-1.9-0.4-2.7-0.6c-0.3-0.1-0.6-0.2-0.9-0.3c-0.4-0.1-0.9-0.3-1.3-0.4
			c-0.1,0-0.2-0.1-0.3-0.1s-0.3-0.1-0.4-0.1c-0.4-0.2-0.8-0.3-1.2-0.5c-0.3-0.1-0.6-0.3-0.9-0.4c-0.1-0.1-0.3-0.1-0.4-0.2
			c-0.2-0.1-0.5-0.2-0.7-0.3c-0.2-0.1-0.4-0.2-0.7-0.4c-0.1-0.1-0.2-0.1-0.3-0.2c-0.3-0.2-0.6-0.3-0.8-0.5c-0.3-0.2-0.7-0.4-1-0.6
			s-0.7-0.4-1-0.7c-0.3-0.2-0.6-0.5-0.9-0.7c-0.4-0.3-0.8-0.6-1.2-0.9l0,0l-0.1-0.1c-0.3-0.2-0.6-0.5-0.8-0.8
			c-0.1-0.1-0.3-0.3-0.5-0.4s-0.3-0.3-0.5-0.5s-0.4-0.5-0.7-0.7c-0.2-0.2-0.4-0.5-0.6-0.7c-0.1-0.1-0.2-0.3-0.3-0.4
			c-0.2-0.3-0.4-0.5-0.6-0.8c-0.5-0.6-0.9-1.2-1.3-1.8c-0.8-1.1-1.5-2.3-2.1-3.5c-0.1-0.3-0.3-0.6-0.4-0.9c-0.1-0.1-0.1-0.2-0.1-0.3
			c-0.3-0.6-0.5-1.2-0.8-1.8c-0.1-0.3-0.3-0.7-0.4-1c-0.1-0.3-0.2-0.7-0.3-1l0,0c-0.1-0.2-0.1-0.4-0.2-0.6c-0.1-0.5-0.3-1-0.4-1.5
			c-0.1-0.3-0.1-0.5-0.2-0.7c0,0,0,0,0-0.1c-0.1-0.3-0.1-0.7-0.2-1l0,0c0-0.2-0.1-0.3-0.1-0.5s-0.1-0.4-0.1-0.6
			c-0.1-0.5-0.1-1-0.2-1.5c0-0.3,0-0.5-0.1-0.8c0-0.5-0.1-0.9-0.1-1.4v-0.2c0-0.2,0-0.4,0-0.6c0-0.3,0-0.5,0-0.8v-0.1
			c0-0.5,0-1,0.1-1.5l0,0c0-0.5,0.1-1,0.1-1.5c0.1-0.4,0.1-0.8,0.2-1.1c0-0.2,0.1-0.4,0.1-0.6c0-0.1,0-0.1,0-0.2
			c0.1-0.4,0.2-0.8,0.3-1.2c0-0.1,0-0.2,0.1-0.2c0.1-0.4,0.2-0.7,0.3-1.1c0-0.1,0-0.1,0.1-0.2c0.1-0.4,0.2-0.8,0.4-1.3
			c0-0.1,0.1-0.3,0.1-0.4c0.1-0.3,0.2-0.6,0.3-0.9c0-0.1,0.1-0.2,0.1-0.2c0.1-0.3,0.2-0.5,0.3-0.8s0.2-0.6,0.4-0.9
			c0.1-0.3,0.3-0.6,0.4-1l0,0c0.1-0.2,0.2-0.4,0.3-0.6c0.2-0.4,0.4-0.7,0.6-1l0,0c0.2-0.4,0.5-0.9,0.8-1.3s0.5-0.8,0.8-1.3
			c0.3-0.4,0.5-0.8,0.8-1.1c0-0.1,0.1-0.1,0.1-0.1c0.3-0.4,0.6-0.7,0.9-1.1l0.1-0.1c0.4-0.4,0.8-0.9,1.2-1.3
			c0.3-0.3,0.5-0.5,0.8-0.8c0.5-0.5,1.1-1,1.6-1.5c0.6-0.5,1.2-1,1.8-1.5c0.2-0.2,0.4-0.3,0.6-0.4c0.8-0.5,1.6-1,2.4-1.5
			c0.3-0.2,0.6-0.3,0.8-0.5c0.2-0.1,0.4-0.2,0.7-0.4c0.4-0.2,0.9-0.4,1.4-0.6s0.9-0.4,1.4-0.6c0.1,0,0.2-0.1,0.3-0.1
			s0.2-0.1,0.4-0.1c0.4-0.1,0.7-0.3,1.1-0.4c0,0,0.1,0,0.2-0.1c0.4-0.1,0.8-0.2,1.2-0.4c0.2-0.1,0.4-0.1,0.6-0.2
			c0.2,0,0.4-0.1,0.6-0.1c0.4-0.1,0.8-0.2,1.3-0.3c0.9-0.2,1.7-0.3,2.6-0.4c0.2,0,0.5,0,0.7-0.1l0,0c0.2,0,0.3,0,0.5,0
			c0.1,0,0.3,0,0.5,0s0.4,0,0.5,0s0.2,0,0.3,0c0.2,0,0.4,0,0.6,0s0.4,0,0.6,0c0.1,0,0.2,0,0.3,0c0.2,0,0.4,0,0.5,0
			c0.2,0,0.3,0,0.5,0s0.3,0,0.5,0l0,0c0.2,0,0.5,0,0.7,0.1c0.9,0.1,1.8,0.2,2.6,0.4c0.4,0.1,0.8,0.2,1.3,0.3
			c0.2,0.1,0.4,0.1,0.6,0.1c0.2,0.1,0.4,0.1,0.6,0.2c0.4,0.1,0.8,0.2,1.2,0.4c0.5,0.1,0.9,0.3,1.4,0.5c0.9,0.3,1.7,0.7,2.5,1.1
			c0.3,0.1,0.6,0.3,0.8,0.4s0.4,0.2,0.7,0.4c0.3,0.1,0.6,0.3,0.8,0.5c0.8,0.5,1.6,1,2.4,1.5c0.2,0.1,0.4,0.3,0.6,0.4
			c0.6,0.4,1.2,0.9,1.8,1.4c0,0,0.1,0,0.1,0.1l0,0c0.6,0.5,1.1,1,1.6,1.5c0.3,0.3,0.5,0.5,0.8,0.8c0.4,0.4,0.8,0.8,1.2,1.3l0.1,0.1
			c0.3,0.4,0.6,0.7,0.9,1.1l0.1,0.1c0.3,0.4,0.6,0.8,0.8,1.1c0.3,0.4,0.6,0.8,0.8,1.3c0.3,0.4,0.5,0.8,0.8,1.3l0,0
			c0.2,0.3,0.4,0.7,0.5,1c0.1,0.2,0.2,0.4,0.3,0.6l0,0c0.2,0.3,0.3,0.6,0.4,1c0.1,0.3,0.3,0.6,0.4,0.9c0.1,0.3,0.2,0.5,0.3,0.8
			c0,0.1,0.1,0.2,0.1,0.2c0.1,0.3,0.2,0.6,0.3,0.9c0.1,0.1,0.1,0.3,0.1,0.4c0.1,0.4,0.3,0.8,0.4,1.3c0.1,0.5,0.3,1,0.4,1.5
			c0.1,0.4,0.2,0.8,0.3,1.2v0.2c0,0.2,0.1,0.4,0.1,0.6c0.1,0.4,0.1,0.8,0.2,1.1c0.1,0.5,0.1,1,0.1,1.5l0,0c0,0.5,0.1,1,0.1,1.5v0.1
			C254.4,435,254.4,435.3,254.4,435.5z"/>
		<g>
			<path class="st11" d="M222.6,396.5c22,0,39.9,17.7,40.3,39.7c0-0.2,0-0.4,0-0.6c0-22.2-18-40.3-40.3-40.3s-40.3,18-40.3,40.3
				c0,0.2,0,0.4,0,0.6C182.7,414.2,200.6,396.5,222.6,396.5z"/>
			<path class="st11" d="M222.6,468.5c17.5,0,31.7-14.2,31.7-31.7c0-0.2,0-0.4,0-0.6c-0.3,17.2-14.4,31.1-31.7,31.1
				s-31.4-13.9-31.7-31.1c0,0.2,0,0.4,0,0.6C190.9,454.3,205.1,468.5,222.6,468.5z"/>
		</g>
		<g>
			<path class="st12" d="M222.6,402.3c-17.5,0-31.7,14.2-31.7,31.7c0,0.2,0,0.5,0,0.7c0.4-17.2,14.4-31,31.7-31s31.3,13.8,31.7,31
				c0-0.2,0-0.5,0-0.7C254.4,416.5,240.2,402.3,222.6,402.3z"/>
			<path class="st12" d="M222.6,474.3c-22,0-39.9-17.6-40.3-39.5c0,0.2,0,0.5,0,0.7c0,22.2,18,40.3,40.3,40.3s40.3-18,40.3-40.3
				c0-0.2,0-0.5,0-0.7C262.5,456.7,244.6,474.3,222.6,474.3z"/>
		</g>
		<path class="st9" d="M226.2,435.5l7.5,7.5c-0.9,1.4-2.1,2.6-3.5,3.5l-5-5v7c-0.8,0.2-1.6,0.2-2.5,0.2s-1.7-0.1-2.5-0.2v-7l-5,5
			c-1.4-0.9-2.6-2.1-3.5-3.5l7.5-7.5l-7.5-7.5c0.9-1.4,2.1-2.6,3.5-3.5l5,5v-7c0.8-0.2,1.6-0.2,2.5-0.2s1.7,0.1,2.5,0.2v7l5-5
			c1.4,0.9,2.6,2.1,3.5,3.5L226.2,435.5z"/>
		<circle class="st1" cx="222.6" cy="435.5" r="10.7"/>
		<path class="st13" d="M222.6,425.4c5.8,0,10.5,4.6,10.7,10.4c0-0.1,0-0.2,0-0.3c0-5.9-4.8-10.7-10.7-10.7s-10.7,4.8-10.7,10.7
			c0,0.1,0,0.2,0,0.3C212.1,430.1,216.8,425.4,222.6,425.4z"/>
		<ellipse class="st14" cx="222.6" cy="437.3" rx="7.2" ry="7.9"/>
		<circle class="st15" cx="222.6" cy="435.5" r="7.2"/>
		<path class="st16" d="M222.6,428.9c3.9,0,7,3.1,7.1,6.9c0-0.1,0-0.2,0-0.2c0-4-3.2-7.2-7.2-7.2s-7.2,3.2-7.2,7.2
			c0,0.1,0,0.2,0,0.2C215.6,431.9,218.8,428.9,222.6,428.9z"/>
	</g>
	<path class="st17" d="M112.2,474.9c0,2.7-1.9,4.9-4.4,5.4c-1.6-0.3-3.1-0.7-4.7-1.2c-0.5-0.2-1.1-0.4-1.6-0.6
		c-2.6-1-5.1-2.2-7.5-3.6c-2.6-1.6-5-3.4-7.2-5.5c-1.5-1.4-3-3-4.3-4.7v-53.8c3.8-4.8,8.6-8.8,14.1-11.7c1.6-0.8,3.2-1.5,4.9-2.1
		c3.8-1.4,7.7-2.3,11.9-2.5c-0.4,2.7-2.7,4.7-5.4,4.7h-6.4v70.1h5.2C109.7,469.4,112.2,471.8,112.2,474.9z"/>
	<g>
		<circle class="st18" cx="116.5" cy="435.8" r="37.2"/>
		<g>
			<circle class="st19" cx="116.5" cy="435.8" r="29.2"/>
			<path class="st20" d="M116.5,407.8c15.9,0,28.9,12.8,29.2,28.6c0-0.2,0-0.4,0-0.6c0-16.1-13.1-29.2-29.2-29.2
				s-29.2,13.1-29.2,29.2c0,0.2,0,0.4,0,0.6C87.6,420.6,100.5,407.8,116.5,407.8z"/>
			<path class="st21" d="M140.7,435.8c0,3.8-0.9,7.4-2.4,10.6h-12.1c2.9-2.6,4.7-6.4,4.7-10.6c0-1.4-0.2-2.7-0.6-4
				c-1.7-6-7.3-10.4-13.8-10.4c-7.9,0-14.4,6.4-14.4,14.4c0,4.2,1.8,8,4.7,10.6H94.7c-1.6-3.2-2.4-6.8-2.4-10.6
				c0-13.4,10.8-24.2,24.2-24.2c12,0,22,8.8,23.9,20.2C140.6,433.1,140.7,434.5,140.7,435.8z"/>
			<g>
				<path class="st22" d="M120.9,435.8c0-2.3-1.7-4.2-3.9-4.4l-0.5-21.9h-0.2l-0.5,21.9c-2.2,0.3-3.9,2.2-3.9,4.4
					c0,2.2,1.6,4,3.7,4.4l-0.1,6.8h1.9l-0.1-6.8C119.3,439.9,120.9,438,120.9,435.8z"/>
				<ellipse class="st23" cx="116.4" cy="436.3" rx="2.6" ry="2.8"/>
				<circle class="st24" cx="116.4" cy="435.8" r="2.6"/>
			</g>
			<path class="st25" d="M140.7,435.8c0,3.8-0.9,7.4-2.4,10.6h-12.1c2.9-2.6,4.7-6.4,4.7-10.6c0-1.4-0.2-2.7-0.6-4h10.1
				C140.6,433.1,140.7,434.5,140.7,435.8z"/>
		</g>
		<g>
			<g>
				<path class="st26" d="M118.6,402.3c0.5,1.8-1.1,3.4-2.9,2.9c-0.8-0.2-1.4-0.8-1.6-1.6c-0.5-1.8,1.1-3.4,2.9-2.9
					C117.8,401,118.4,401.6,118.6,402.3z"/>
				<path class="st27" d="M118.6,402.2c0.5,1.8-1.1,3.4-2.9,2.9c-0.8-0.2-1.4-0.8-1.6-1.6c-0.5-1.8,1.1-3.4,2.9-2.9
					C117.8,400.9,118.4,401.5,118.6,402.2z"/>
				<path class="st28" d="M117,400.8c0.8,0.2,1.4,0.8,1.6,1.6c0.1,0.2,0.1,0.4,0.1,0.6c0-0.2,0-0.5-0.1-0.8
					c-0.2-0.8-0.8-1.4-1.6-1.6c-1.6-0.5-3.1,0.8-3,2.3C114,401.5,115.4,400.4,117,400.8z"/>
				<path class="st29" d="M118.2,402.4c0.4,1.5-0.9,2.8-2.4,2.4c-0.6-0.2-1.1-0.7-1.3-1.3c-0.4-1.5,0.9-2.8,2.4-2.4
					C117.5,401.2,118,401.7,118.2,402.4z"/>
				<path class="st30" d="M115.8,404.4c-0.6-0.2-1.1-0.7-1.3-1.3c0-0.1-0.1-0.2-0.1-0.4c0,0.2,0,0.5,0.1,0.8
					c0.2,0.6,0.7,1.1,1.3,1.3c1.4,0.4,2.6-0.7,2.5-2.1C118.1,403.9,117,404.7,115.8,404.4z"/>
				<path class="st31" d="M116.5,401.7c0.2,0.6-0.4,1.1-0.9,0.9c-0.2-0.1-0.4-0.3-0.5-0.5c-0.2-0.6,0.4-1.1,0.9-0.9
					C116.3,401.3,116.5,401.5,116.5,401.7z"/>
			</g>
			<g>
				<path class="st26" d="M141.1,413.1c-0.9,1.7-3.2,1.7-4.1,0.1c-0.4-0.7-0.4-1.5-0.1-2.2c0.9-1.7,3.2-1.7,4.1-0.1
					C141.5,411.6,141.5,412.5,141.1,413.1z"/>
				<path class="st27" d="M141.2,413.1c-0.9,1.7-3.2,1.7-4.1,0.1c-0.4-0.7-0.4-1.5-0.1-2.2c0.9-1.7,3.2-1.7,4.1-0.1
					C141.5,411.5,141.5,412.4,141.2,413.1z"/>
				<path class="st28" d="M141,411c0.4,0.7,0.4,1.5,0.1,2.2c-0.1,0.2-0.2,0.3-0.3,0.5c0.2-0.2,0.3-0.4,0.5-0.6
					c0.4-0.7,0.3-1.5-0.1-2.2c-0.9-1.4-2.8-1.6-3.8-0.4C138.4,409.4,140.2,409.6,141,411z"/>
				<path class="st29" d="M140.8,412.9c-0.7,1.4-2.6,1.4-3.4,0.1c-0.3-0.6-0.3-1.3,0-1.8c0.7-1.4,2.6-1.4,3.4-0.1
					C141.1,411.6,141.1,412.3,140.8,412.9z"/>
				<path class="st30" d="M137.7,412.7c-0.3-0.6-0.3-1.3,0-1.8c0.1-0.1,0.1-0.2,0.2-0.3c-0.2,0.2-0.4,0.4-0.5,0.6
					c-0.3,0.6-0.3,1.3,0,1.8c0.7,1.2,2.4,1.3,3.2,0.2C139.7,414,138.3,413.8,137.7,412.7z"/>
				<path class="st31" d="M140,411.3c-0.3,0.5-1,0.5-1.3,0c-0.1-0.2-0.1-0.5,0-0.7c0.3-0.5,1-0.5,1.3,0
					C140.2,410.8,140.2,411.1,140,411.3z"/>
			</g>
			<g>
				<path class="st26" d="M150,436.5c-1.8,0.6-3.5-0.9-3.1-2.8c0.2-0.8,0.8-1.4,1.5-1.6c1.8-0.6,3.5,0.9,3.1,2.8
					C151.3,435.6,150.7,436.3,150,436.5z"/>
				<path class="st27" d="M150,436.5c-1.8,0.6-3.5-0.9-3.1-2.8c0.2-0.8,0.8-1.4,1.5-1.6c1.8-0.6,3.5,0.9,3.1,2.8
					C151.4,435.6,150.8,436.3,150,436.5z"/>
				<path class="st28" d="M151.4,434.9c-0.2,0.8-0.8,1.4-1.5,1.6c-0.2,0.1-0.4,0.1-0.6,0.1c0.2,0,0.5,0,0.8-0.1
					c0.7-0.2,1.3-0.9,1.5-1.6c0.4-1.6-0.9-3-2.5-2.9C150.5,431.9,151.7,433.3,151.4,434.9z"/>
				<path class="st29" d="M149.9,436.1c-1.5,0.5-2.9-0.8-2.5-2.3c0.1-0.6,0.6-1.2,1.2-1.4c1.5-0.5,2.9,0.8,2.5,2.3
					C151,435.4,150.5,435.9,149.9,436.1z"/>
				<path class="st30" d="M147.8,433.8c0.1-0.6,0.6-1.2,1.2-1.4c0.1,0,0.2-0.1,0.4-0.1c-0.2,0-0.5,0-0.8,0.1
					c-0.6,0.2-1.1,0.7-1.2,1.4c-0.3,1.4,0.8,2.6,2.2,2.4C148.4,436.1,147.5,435.1,147.8,433.8z"/>
				<path class="st31" d="M150.5,434.5c-0.6,0.2-1.1-0.3-1-0.9c0.1-0.2,0.2-0.4,0.5-0.5c0.6-0.2,1.1,0.3,1,0.9
					C150.9,434.2,150.7,434.4,150.5,434.5z"/>
			</g>
			<g>
				<path class="st26" d="M140.2,459.6c-1.7-0.8-1.9-3.1-0.3-4.1c0.7-0.4,1.5-0.5,2.2-0.2c1.7,0.8,1.9,3.1,0.3,4.1
					C141.8,459.8,141,459.9,140.2,459.6z"/>
				<path class="st27" d="M140.3,459.6c-1.7-0.8-1.9-3.1-0.3-4.1c0.7-0.4,1.5-0.5,2.2-0.2c1.7,0.8,1.9,3.1,0.3,4.1
					C141.9,459.9,141,459.9,140.3,459.6z"/>
				<path class="st28" d="M142.4,459.3c-0.7,0.4-1.5,0.5-2.2,0.2c-0.2-0.1-0.4-0.2-0.5-0.3c0.2,0.2,0.4,0.3,0.6,0.4
					c0.7,0.3,1.6,0.3,2.2-0.2c1.4-0.9,1.4-2.8,0.2-3.8C143.8,456.6,143.8,458.4,142.4,459.3z"/>
				<path class="st29" d="M140.5,459.2c-1.4-0.7-1.6-2.6-0.2-3.4c0.5-0.4,1.2-0.4,1.8-0.1c1.4,0.7,1.6,2.6,0.2,3.4
					C141.8,459.5,141.1,459.5,140.5,459.2z"/>
				<path class="st30" d="M140.5,456.1c0.5-0.4,1.2-0.4,1.8-0.1c0.1,0.1,0.2,0.1,0.3,0.2c-0.2-0.2-0.4-0.3-0.6-0.5
					c-0.6-0.3-1.3-0.2-1.8,0.1c-1.2,0.8-1.2,2.5-0.1,3.2C139.4,458.2,139.5,456.8,140.5,456.1z"/>
				<path class="st31" d="M142.1,458.4c-0.5-0.3-0.6-1-0.1-1.3c0.2-0.1,0.5-0.2,0.7-0.1c0.5,0.3,0.6,1,0.1,1.3
					C142.5,458.5,142.3,458.5,142.1,458.4z"/>
			</g>
			<g>
				<path class="st26" d="M117.3,469.5c-0.7-1.8,0.8-3.5,2.6-3.2c0.8,0.1,1.4,0.7,1.7,1.4c0.7,1.8-0.8,3.5-2.6,3.2
					C118.3,470.8,117.6,470.3,117.3,469.5z"/>
				<path class="st27" d="M117.3,469.6c-0.7-1.8,0.8-3.5,2.6-3.2c0.8,0.1,1.4,0.7,1.7,1.4c0.7,1.8-0.8,3.5-2.6,3.2
					C118.3,470.9,117.6,470.4,117.3,469.6z"/>
				<path class="st28" d="M119,470.9c-0.8-0.1-1.4-0.7-1.7-1.4c-0.1-0.2-0.1-0.4-0.1-0.6c0,0.2,0.1,0.5,0.2,0.7
					c0.3,0.7,0.9,1.3,1.7,1.4c1.7,0.3,3-1.1,2.8-2.6C121.9,469.9,120.6,471.2,119,470.9z"/>
				<path class="st29" d="M117.7,469.5c-0.6-1.5,0.6-2.9,2.2-2.7c0.6,0.1,1.2,0.6,1.4,1.2c0.6,1.5-0.6,2.9-2.2,2.7
					C118.5,470.5,117.9,470.1,117.7,469.5z"/>
				<path class="st30" d="M119.9,467.2c0.6,0.1,1.2,0.6,1.4,1.2c0,0.1,0.1,0.2,0.1,0.4c0-0.2,0-0.5-0.1-0.8
					c-0.2-0.6-0.8-1.1-1.4-1.2c-1.4-0.3-2.5,1-2.3,2.3C117.6,468,118.7,467,119.9,467.2z"/>
				<path class="st31" d="M119.4,470c-0.2-0.6,0.2-1.1,0.8-1c0.2,0,0.5,0.2,0.5,0.4c0.2,0.6-0.2,1.1-0.8,1
					C119.7,470.4,119.5,470.2,119.4,470z"/>
			</g>
			<g>
				<path class="st26" d="M93.9,460.9c0.7-1.7,3-2,4.1-0.5c0.5,0.6,0.6,1.5,0.3,2.2c-0.7,1.7-3,2-4.1,0.5
					C93.7,462.5,93.6,461.7,93.9,460.9z"/>
				<path class="st27" d="M93.8,461c0.7-1.7,3-2,4.1-0.5c0.5,0.6,0.6,1.5,0.3,2.2c-0.7,1.7-3,2-4.1,0.5
					C93.6,462.6,93.5,461.7,93.8,461z"/>
				<path class="st28" d="M94.2,463.1c-0.5-0.6-0.6-1.5-0.3-2.2c0.1-0.2,0.2-0.4,0.3-0.5c-0.2,0.2-0.3,0.4-0.4,0.7
					c-0.3,0.7-0.2,1.6,0.3,2.2c1,1.4,2.9,1.3,3.8,0C96.9,464.4,95.1,464.4,94.2,463.1z"/>
				<path class="st29" d="M94.2,461.2c0.6-1.4,2.5-1.7,3.4-0.4c0.4,0.5,0.5,1.2,0.2,1.8c-0.6,1.4-2.5,1.7-3.4,0.4
					C94,462.5,93.9,461.8,94.2,461.2z"/>
				<path class="st30" d="M97.3,461.1c0.4,0.5,0.5,1.2,0.2,1.8c0,0.1-0.1,0.2-0.2,0.3c0.2-0.2,0.3-0.4,0.4-0.7
					c0.2-0.6,0.2-1.3-0.2-1.8c-0.8-1.2-2.5-1.1-3.2,0.1C95.2,460,96.6,460,97.3,461.1z"/>
				<path class="st31" d="M95.1,462.7c0.2-0.6,1-0.6,1.3-0.2c0.1,0.2,0.2,0.5,0.1,0.7c-0.2,0.6-1,0.6-1.3,0.2
					C95,463.2,95,462.9,95.1,462.7z"/>
			</g>
			<g>
				<path class="st26" d="M82.8,438.5c1.7-0.8,3.6,0.6,3.3,2.5c-0.1,0.8-0.6,1.5-1.3,1.8c-1.7,0.8-3.6-0.6-3.3-2.5
					C81.5,439.5,82.1,438.9,82.8,438.5z"/>
				<path class="st27" d="M82.7,438.6c1.7-0.8,3.6,0.6,3.3,2.5c-0.1,0.8-0.6,1.5-1.3,1.8c-1.7,0.8-3.6-0.6-3.3-2.5
					C81.5,439.6,82,438.9,82.7,438.6z"/>
				<path class="st28" d="M81.5,440.3c0.1-0.8,0.6-1.5,1.3-1.8c0.2-0.1,0.4-0.1,0.6-0.2c-0.2,0-0.5,0.1-0.7,0.2
					C82,438.8,81.5,439.5,81.5,440.3c-0.3,1.7,1.1,2.9,2.7,2.7C82.6,443.2,81.3,441.9,81.5,440.3z"/>
				<path class="st29" d="M82.9,438.9c1.4-0.6,3,0.5,2.8,2c-0.1,0.6-0.5,1.2-1.1,1.5c-1.4,0.6-3-0.5-2.8-2
					C81.8,439.8,82.3,439.2,82.9,438.9z"/>
				<path class="st30" d="M85.2,441c-0.1,0.6-0.5,1.2-1.1,1.5c-0.1,0.1-0.2,0.1-0.3,0.1c0.2,0,0.5-0.1,0.8-0.2
					c0.6-0.3,1-0.8,1.1-1.5c0.2-1.4-1.1-2.5-2.4-2.2C84.4,438.8,85.4,439.8,85.2,441z"/>
				<path class="st31" d="M82.5,440.7c0.5-0.2,1.1,0.2,1.1,0.8c0,0.2-0.2,0.5-0.4,0.6c-0.5,0.2-1.1-0.2-1.1-0.8
					C82.1,441,82.2,440.8,82.5,440.7z"/>
			</g>
			<g>
				<path class="st26" d="M90.2,414.7c1.8,0.6,2.2,2.9,0.7,4.1c-0.6,0.5-1.5,0.6-2.2,0.4c-1.8-0.6-2.2-2.9-0.7-4.1
					C88.6,414.6,89.5,414.4,90.2,414.7z"/>
				<path class="st27" d="M90.1,414.6c1.8,0.6,2.2,2.9,0.7,4.1c-0.6,0.5-1.5,0.6-2.2,0.4c-1.8-0.6-2.2-2.9-0.7-4.1
					C88.6,414.5,89.4,414.4,90.1,414.6z"/>
				<path class="st28" d="M88.1,415.1c0.6-0.5,1.5-0.6,2.2-0.4c0.2,0.1,0.4,0.2,0.5,0.3c-0.2-0.1-0.4-0.3-0.7-0.4
					c-0.7-0.3-1.6-0.1-2.2,0.4c-1.3,1.1-1.1,3,0.2,3.8C86.9,417.9,86.8,416.1,88.1,415.1z"/>
				<path class="st29" d="M90,415c1.5,0.5,1.8,2.4,0.6,3.4c-0.5,0.4-1.2,0.5-1.8,0.3c-1.5-0.5-1.8-2.4-0.6-3.4
					C88.7,414.9,89.4,414.8,90,415z"/>
				<path class="st30" d="M90.2,418.2c-0.5,0.4-1.2,0.5-1.8,0.3c-0.1,0-0.2-0.1-0.3-0.2c0.2,0.2,0.4,0.3,0.7,0.4
					c0.6,0.2,1.3,0.1,1.8-0.3c1.1-0.9,0.9-2.6-0.2-3.2C91.2,415.9,91.2,417.3,90.2,418.2z"/>
				<path class="st31" d="M88.5,416c0.6,0.2,0.7,0.9,0.2,1.3c-0.2,0.2-0.5,0.2-0.7,0.1c-0.6-0.2-0.7-0.9-0.2-1.3
					C88,416,88.3,415.9,88.5,416z"/>
			</g>
		</g>
	</g>
	<rect x="213.1" y="662.8" class="st5" width="19" height="127.2"/>
	<rect x="280.5" y="662.8" class="st5" width="19" height="127.2"/>
	<path class="st5" d="M103.1,712.9v19h-26v-16.2c0-0.9,0-1.9,0.1-2.8H103.1z"/>
	<path class="st32" d="M328.7,672.8V800H89.1v-84.3c0-0.9,0-1.9,0.1-2.8c1.4-22.4,20-40.1,42.8-40.1L328.7,672.8L328.7,672.8z"/>
	<path class="st33" d="M172.7,714.3V800h-23.6v-85.7c0-5,3.1-9.2,7.4-10.9c1.4-0.5,2.8-0.8,4.4-0.8
		C167.4,702.6,172.7,707.8,172.7,714.3z"/>
	<path class="st33" d="M245.1,714.3V800h-23.5v-85.7c0-2.2,0.6-4.2,1.6-5.9c0.5-0.9,1.2-1.8,2-2.5c0.1-0.2,0.3-0.3,0.5-0.4
		c0.1-0.1,0.1-0.1,0.2-0.2c1.7-1.5,3.9-2.4,6.3-2.7c0.4,0,0.8-0.1,1.2-0.1c2.9,0,5.5,1,7.5,2.7c0.1,0.1,0.2,0.1,0.2,0.2
		c0.2,0.2,0.4,0.4,0.6,0.6c0.7,0.7,1.3,1.5,1.8,2.3C244.5,710.1,245.1,712.2,245.1,714.3z"/>
	<path class="st33" d="M317.5,714.3V800H294v-85.7c0-3.3,1.4-6.3,3.6-8.4c0.6-0.6,1.2-1.1,1.9-1.5c1.8-1.2,4-1.8,6.3-1.8
		c3.3,0,6.2,1.3,8.4,3.5C316.2,708.2,317.5,711.1,317.5,714.3z"/>
	<g>
		<path class="st34" d="M314.1,679.1v54.7c0,3.7-3,6.7-6.7,6.7h-3.2c-3.7,0-6.7-3-6.7-6.7v-54.7H314.1z"/>
		<path class="st35" d="M314.1,667.2v20.6c-2.6,1.1-5.4,1.7-8.4,1.7c-2.9,0-5.7-0.6-8.2-1.7v-20.7h16.6V667.2z"/>
		<g>
			<circle class="st1" cx="305.8" cy="663.4" r="21.2"/>
			<path class="st2" d="M305.8,680.3c-11,0-20-8.3-21.1-19c-0.1,0.7-0.1,1.4-0.1,2.2c0,11.7,9.5,21.2,21.2,21.2s21.2-9.5,21.2-21.2
				c0-0.7,0-1.5-0.1-2.2C325.8,671.9,316.7,680.3,305.8,680.3z"/>
			<circle class="st36" cx="300.2" cy="653.4" r="7.8"/>
		</g>
	</g>
	<g>
		<path class="st34" d="M241.7,705.5v54.7c0,3.7-3,6.7-6.7,6.7h-3.2c-3.7,0-6.7-3-6.7-6.7v-54.7H241.7z"/>
		<path class="st35" d="M241.7,693.5v20.6c-2.6,1.1-5.4,1.7-8.4,1.7c-2.9,0-5.7-0.6-8.2-1.7v-20.7h16.6V693.5z"/>
		<g>
			<circle class="st1" cx="233.3" cy="689.8" r="21.2"/>
			<path class="st2" d="M233.3,706.6c-11,0-20-8.3-21.1-19c-0.1,0.7-0.1,1.4-0.1,2.2c0,11.7,9.5,21.2,21.2,21.2s21.2-9.5,21.2-21.2
				c0-0.7,0-1.5-0.1-2.2C253.3,698.3,244.3,706.6,233.3,706.6z"/>
			<circle class="st36" cx="227.8" cy="679.8" r="7.8"/>
		</g>
	</g>
	<g>
		<path class="st34" d="M169.3,736.9v54.7c0,3.7-3,6.7-6.7,6.7h-3.2c-3.7,0-6.7-3-6.7-6.7v-54.7H169.3z"/>
		<path class="st35" d="M169.3,724.9v20.6c-2.6,1.1-5.4,1.7-8.4,1.7c-2.9,0-5.7-0.6-8.2-1.7v-20.7h16.6V724.9z"/>
		<g>
			<circle class="st1" cx="160.9" cy="721.2" r="21.2"/>
			<path class="st2" d="M160.9,738c-11,0-20-8.3-21.1-19c-0.1,0.7-0.1,1.4-0.1,2.2c0,11.7,9.5,21.2,21.2,21.2s21.2-9.5,21.2-21.2
				c0-0.7,0-1.5-0.1-2.2C180.9,729.7,171.9,738,160.9,738z"/>
			<circle class="st36" cx="155.4" cy="711.2" r="7.8"/>
		</g>
	</g>
	<path class="st19" d="M73.9,201.4c-7.6,4.7-15,9.9-22.1,15.4c-5,3.9-11,8.3-17.2,6.7c-2-0.5-3.9-1.7-5.8-2.5
		c-4.6-1.9-10.5-1.4-13.8,2.3s-2.2,10.8,2.6,12.3c-4.7,0.1-9.4,2.7-11.6,6.8c-2.3,4.1-1.8,9.7,1.5,13.1c3.3,3.4,9.1,4,12.8,1.1
		c-0.9,5.1,3.3,10.5,8.5,10.9s10.2-4.2,10.2-9.4c1,3.8,6.1,5.5,9.6,3.7s5.3-6.1,4.9-10c-0.3-3.9-2.3-7.6-4.7-10.7
		c-0.8-1-1.6-2.1-1.8-3.4c-0.1-1.3,0.5-2.6,1.1-3.8C55.1,222.1,67.6,213.8,73.9,201.4z"/>
	<path class="st19" d="M248.5,400.1c4.7-2.9,9.3-6.1,13.6-9.5c3.1-2.4,6.8-5.1,10.6-4.1c1.3,0.3,2.4,1,3.6,1.5
		c2.8,1.1,6.5,0.9,8.5-1.4s1.4-6.7-1.6-7.6c2.9-0.1,5.8-1.7,7.2-4.2s1.1-6-0.9-8.1s-5.6-2.5-7.9-0.7c0.5-3.1-2-6.5-5.2-6.7
		c-3.2-0.3-6.3,2.6-6.3,5.8c-0.6-2.4-3.8-3.4-5.9-2.3c-2.2,1.1-3.2,3.8-3,6.2c0.2,2.4,1.4,4.7,2.9,6.6c0.5,0.6,1,1.3,1.1,2.1
		c0.1,0.8-0.3,1.6-0.7,2.3C260.1,387.4,252.4,392.5,248.5,400.1z"/>
</g>
</svg>
