<?xml version="1.0" encoding="utf-8"?>
<!-- Generator: Adobe Illustrator 19.2.1, SVG Export Plug-In . SVG Version: 6.00 Build 0)  -->
<svg version="1.1" id="Слой_1" xmlns="http://www.w3.org/2000/svg" xmlns:xlink="http://www.w3.org/1999/xlink" x="0px" y="0px"
	 viewBox="0 0 100 100" style="enable-background:new 0 0 100 100;" xml:space="preserve">
<style type="text/css">
	.st0{fill:none;stroke:#ff7043;stroke-miterlimit:10;}
	.st1{fill:#ff7043;}
	.st2{fill:#ff7043;stroke:#ff7043;stroke-width:2;stroke-linecap:round;stroke-linejoin:round;stroke-miterlimit:10;}
</style>
<path class="st0" d="M8.2,45.9"/>
<path class="st0" d="M8.2,30.5"/>
<path class="st1" d="M81.8,33.7c-0.8,0-1.5,0.1-2.3,0.2c-2.6,0.7-5.4-0.2-7.1-2.3c-1.7-2.2-1.9-5.2-0.4-7.6c1.2-2.2,1.8-4.7,1.8-7.4
	c0-8.9-7.2-16.1-16.1-16.1c-8.2,0-14.9,6.1-16,14c0.3,2.9-1.2,5.6-3.7,6.6c-2.9,1.2-6.5,0-8.1-3.1c-2.9-3.1-7.1-5-11.6-5
	C9.3,13,2.1,20.3,2.1,29.2c0,6,3.3,11.3,8.3,14.1c0.3,0.2,3.5,2.3,3.6,6.3c0.2,4.3-3.5,6.7-3.6,6.8c-4.9,2.8-8.3,8-8.3,14.1
	c0,8.9,7.2,16.1,16.1,16.1c4.5,0,8.6-1.9,11.6-4.9c1.9-2.2,4.9-3,7.5-2c2.3,0.9,4,3.1,4.3,5.6c0.9,8.1,7.7,14.3,16,14.3
	c8.9,0,16.1-7.2,16.1-16.1c0-2.8-0.7-5.4-1.9-7.7c-2.1-2.7-1.9-6.4,0.3-8.7c1.8-1.9,4.8-2.4,7.4-1.3c0.8,0.1,1.5,0.2,2.3,0.2
	c8.9,0,16.1-7.2,16.1-16.1C97.9,41,90.7,33.7,81.8,33.7z M17.9,81.9c-6.1,0-11.1-5-11.1-11.1c0-6.1,5-11.1,11.1-11.1
	S29,64.7,29,70.8C29,77,24,81.9,17.9,81.9z M17.9,40.3c-6.1,0-11.1-5-11.1-11.1S11.7,18,17.9,18S29,23,29,29.1S24,40.3,17.9,40.3z
	 M45.7,66.3c-9.1,0-16.5-7.4-16.5-16.5c0-9.1,7.4-16.5,16.5-16.5s16.5,7.4,16.5,16.5C62.2,58.9,54.8,66.3,45.7,66.3z M57.7,94.5
	c-6.1,0-11.1-5-11.1-11.1c0-6.1,5-11.1,11.1-11.1s11.1,5,11.1,11.1C68.8,89.5,63.9,94.5,57.7,94.5z M57.7,27.4
	c-6.1,0-11.1-5-11.1-11.1s5-11.1,11.1-11.1s11.1,5,11.1,11.1S63.9,27.4,57.7,27.4z M82.3,61c-6.1,0-11.1-5-11.1-11.1
	c0-6.1,5-11.1,11.1-11.1c6.1,0,11.1,5,11.1,11.1C93.4,56,88.4,61,82.3,61z"/>
<path class="st2" d="M45.8,38.7L36,44.4v11.3l9.8,5.6l9.8-5.6V44.4L45.8,38.7z M45.8,57.4c-4.1,0-7.4-3.3-7.4-7.4s3.3-7.4,7.4-7.4
	c4.1,0,7.4,3.3,7.4,7.4S49.9,57.4,45.8,57.4z"/>
</svg>
